<svg xmlns="http://www.w3.org/2000/svg" viewBox="0 0 161.63 215.13"><title>Asset 11</title><g id="Layer_2" data-name="Layer 2"><g id="Layer_1-2" data-name="Layer 1"><path d="M160.19,215.13H1.44A1.43,1.43,0,0,1,0,213.69V175.3a1.43,1.43,0,0,1,1.44-1.44H59.76a1.45,1.45,0,0,0,1.44-1.44V1.44A1.43,1.43,0,0,1,62.64,0H101a1.43,1.43,0,0,1,1.44,1.44v171a1.45,1.45,0,0,0,1.44,1.44h56.28a1.43,1.43,0,0,1,1.44,1.44v38.39A1.43,1.43,0,0,1,160.19,215.13Zm-154-4.75H155.44a1.44,1.44,0,0,0,1.44-1.44V180.05a1.45,1.45,0,0,0-1.44-1.44H99.16a1.43,1.43,0,0,1-1.44-1.44V6.19a1.44,1.44,0,0,0-1.44-1.44H67.39A1.45,1.45,0,0,0,66,6.19v171a1.43,1.43,0,0,1-1.44,1.44H6.19a1.45,1.45,0,0,0-1.44,1.44v28.89A1.44,1.44,0,0,0,6.19,210.38Z"/><path d="M92.14,11.12V13.2a1.44,1.44,0,0,1-1.44,1.44H79A1.31,1.31,0,0,0,77.64,16h0A1.31,1.31,0,0,0,79,17.26H90.44a1.45,1.45,0,0,1,1.44,1.44v1.82A1.44,1.44,0,0,1,90.44,22H79.08a1.45,1.45,0,0,0-1.44,1.44v.06a1.44,1.44,0,0,0,1.44,1.44H90.7a1.45,1.45,0,0,1,1.44,1.44v2.08a1.45,1.45,0,0,1-1.44,1.44H73.26a1.45,1.45,0,0,1-1.44-1.44V11.12a1.45,1.45,0,0,1,1.44-1.44H90.7A1.45,1.45,0,0,1,92.14,11.12Z"/><path d="M75,34.75l10.4,8.78a1.44,1.44,0,0,0,2.37-1.1V35.85a1.44,1.44,0,0,1,1.44-1.44h2.94a1.43,1.43,0,0,1,1.44,1.44V53.14a1.44,1.44,0,0,1-1.44,1.44H89.54a1.44,1.44,0,0,1-.93-.34L78.24,45.46a1.44,1.44,0,0,0-2.37,1.1v6.58a1.44,1.44,0,0,1-1.44,1.44H71.49a1.44,1.44,0,0,1-1.44-1.44V35.85a1.43,1.43,0,0,1,1.44-1.44H74.1A1.44,1.44,0,0,1,75,34.75Z"/><path d="M81.39,59.13q5.53,0,8.64,2.59t3.12,7.49q0,4.94-3.12,7.51T81.39,79.3H73.12a1.43,1.43,0,0,1-1.44-1.44V60.57a1.43,1.43,0,0,1,1.44-1.44Zm4.48,14a4.84,4.84,0,0,0,1.46-3.88,4.81,4.81,0,0,0-1.47-3.9,6.85,6.85,0,0,0-4.47-1.22H78.94a1.43,1.43,0,0,0-1.44,1.44V72.9a1.43,1.43,0,0,0,1.44,1.44h2.45A6.71,6.71,0,0,0,85.87,73.09Z"/><path d="M79.08,85.29V97.63a1.45,1.45,0,0,0,1.44,1.44h9.89a1.43,1.43,0,0,1,1.44,1.44v2.07A1.43,1.43,0,0,1,90.41,104H74.7a1.44,1.44,0,0,1-1.44-1.44V85.29a1.45,1.45,0,0,1,1.44-1.44h2.94A1.44,1.44,0,0,1,79.08,85.29Z"/><path d="M92.14,110v2.08a1.44,1.44,0,0,1-1.44,1.44H79a1.31,1.31,0,0,0-1.31,1.31h0A1.31,1.31,0,0,0,79,116.15H90.44a1.45,1.45,0,0,1,1.44,1.44v1.82a1.45,1.45,0,0,1-1.44,1.44H79.08a1.44,1.44,0,0,0-1.44,1.44v.06a1.45,1.45,0,0,0,1.44,1.44H90.7a1.44,1.44,0,0,1,1.44,1.44v2.08a1.45,1.45,0,0,1-1.44,1.44H73.26a1.45,1.45,0,0,1-1.44-1.44V110a1.45,1.45,0,0,1,1.44-1.44H90.7A1.45,1.45,0,0,1,92.14,110Z"/><path d="M71.65,150.56a5.36,5.36,0,0,1-1.1-1.79,1.45,1.45,0,0,1,1.35-2h3.58a1.5,1.5,0,0,1,1.2.68,2.12,2.12,0,0,0,.2.24,3.71,3.71,0,0,0,1.58.85,10.7,10.7,0,0,0,3,.39,20.11,20.11,0,0,0,4.47-.3c1.11-.24,1.67-.72,1.67-1.43,0-.48-.4-.79-1.2-1a34.77,34.77,0,0,0-3.93-.4,57.11,57.11,0,0,1-5.91-.65,9.75,9.75,0,0,1-4.12-1.71c-1.45-1.08-2-2.79-1.65-5.14a1.47,1.47,0,0,1,.08-.35,7.5,7.5,0,0,1,4.94-4.36,17.43,17.43,0,0,1,5.65-.85,17.89,17.89,0,0,1,5.82.88,9.15,9.15,0,0,1,4,2.5,5.73,5.73,0,0,1,1.1,1.78A1.45,1.45,0,0,1,91,140H87.51a1.52,1.52,0,0,1-1.26-.75,2.64,2.64,0,0,0-.74-.7,6.76,6.76,0,0,0-3.56-.71,15.68,15.68,0,0,0-4,.3c-1,.24-1.44.72-1.44,1.43,0,.54.45.91,1.36,1.12a28.65,28.65,0,0,0,4.21.52c2.32.21,4.24.46,5.74.75a9.64,9.64,0,0,1,3.94,1.66,4.09,4.09,0,0,1,1.67,3.5,5.17,5.17,0,0,1-1.43,3.6,9.2,9.2,0,0,1-4,2.41,19.29,19.29,0,0,1-6,.85,19.83,19.83,0,0,1-6.2-.88A9.46,9.46,0,0,1,71.65,150.56Z"/><path d="M71.65,175.28a5.36,5.36,0,0,1-1.1-1.79,1.45,1.45,0,0,1,1.35-2h3.58a1.5,1.5,0,0,1,1.2.68l.2.25a3.82,3.82,0,0,0,1.58.85,10.75,10.75,0,0,0,3,.38,20.11,20.11,0,0,0,4.47-.3c1.11-.24,1.67-.71,1.67-1.43,0-.48-.4-.79-1.2-1a37.35,37.35,0,0,0-3.93-.4,54.47,54.47,0,0,1-5.91-.65,9.75,9.75,0,0,1-4.12-1.71c-1.45-1.08-2-2.79-1.65-5.13a1.37,1.37,0,0,1,.08-.35,7.45,7.45,0,0,1,4.94-4.36,17.17,17.17,0,0,1,5.65-.85,17.9,17.9,0,0,1,5.82.87,9.15,9.15,0,0,1,4,2.5,5.85,5.85,0,0,1,1.1,1.78,1.45,1.45,0,0,1-1.35,2H87.51a1.52,1.52,0,0,1-1.26-.75,2.64,2.64,0,0,0-.74-.7,6.86,6.86,0,0,0-3.56-.71,15.6,15.6,0,0,0-4,.31c-1,.24-1.44.71-1.44,1.42,0,.54.45.91,1.36,1.13a29,29,0,0,0,4.21.51c2.32.22,4.24.47,5.74.75a9.64,9.64,0,0,1,3.94,1.66,4.09,4.09,0,0,1,1.67,3.5,5.15,5.15,0,0,1-1.43,3.6,9.2,9.2,0,0,1-4,2.41,19.29,19.29,0,0,1-6,.85,19.83,19.83,0,0,1-6.2-.88A9.37,9.37,0,0,1,71.65,175.28Z"/><path d="M10.93,199.48a10.9,10.9,0,0,1,0-11.07,9.94,9.94,0,0,1,4.28-3.7,14.62,14.62,0,0,1,6.37-1.31A16.45,16.45,0,0,1,28,184.55a9.77,9.77,0,0,1,4.28,3.25,7.88,7.88,0,0,1,1.34,3.1,1.45,1.45,0,0,1-1.41,1.75H29a1.47,1.47,0,0,1-1.38-1.07A4,4,0,0,0,26,189.43a8,8,0,0,0-4.41-1.08A7,7,0,0,0,17,189.79a5.89,5.89,0,0,0,0,8.3,7,7,0,0,0,4.63,1.44A8.08,8.08,0,0,0,26,198.45a3.85,3.85,0,0,0,1.66-2.13,1.46,1.46,0,0,1,1.39-1.08h3.11A1.45,1.45,0,0,1,33.57,197a7.88,7.88,0,0,1-1.34,3.1A9.78,9.78,0,0,1,28,203.34a16.45,16.45,0,0,1-6.37,1.15,14.76,14.76,0,0,1-6.37-1.31A10.08,10.08,0,0,1,10.93,199.48Z"/><path d="M37.64,199.48a10,10,0,0,1,4.43-14.77,16.13,16.13,0,0,1,6.77-1.31,16.26,16.26,0,0,1,6.79,1.31,10,10,0,0,1,0,18.47,16.42,16.42,0,0,1-6.79,1.31,16.29,16.29,0,0,1-6.77-1.31A10.16,10.16,0,0,1,37.64,199.48Zm18.14-5.54a5,5,0,0,0-1.8-4.16,8.11,8.11,0,0,0-5.14-1.43,8.1,8.1,0,0,0-5.12,1.43,5.72,5.72,0,0,0,0,8.33,8.1,8.1,0,0,0,5.12,1.42A8.11,8.11,0,0,0,54,198.11,5,5,0,0,0,55.78,193.94Z"/><path d="M83.13,185.3v2.07a1.43,1.43,0,0,1-1.44,1.44h-10a1.31,1.31,0,0,0-1.31,1.31h0a1.31,1.31,0,0,0,1.31,1.32h9.75a1.43,1.43,0,0,1,1.44,1.44v1.81a1.43,1.43,0,0,1-1.44,1.44H71.81a1.44,1.44,0,0,0-1.44,1.44v5A1.45,1.45,0,0,1,68.93,204H66a1.44,1.44,0,0,1-1.44-1.44V185.3A1.43,1.43,0,0,1,66,183.86h15.7A1.43,1.43,0,0,1,83.13,185.3Z"/><path d="M104.37,185.3v2.07a1.43,1.43,0,0,1-1.44,1.44h-10a1.31,1.31,0,0,0-1.31,1.31h0a1.31,1.31,0,0,0,1.31,1.32h9.75a1.43,1.43,0,0,1,1.44,1.44v1.81a1.43,1.43,0,0,1-1.44,1.44H93.05a1.44,1.44,0,0,0-1.44,1.44v5A1.45,1.45,0,0,1,90.17,204h-3a1.45,1.45,0,0,1-1.44-1.44V185.3a1.44,1.44,0,0,1,1.44-1.44h15.71A1.43,1.43,0,0,1,104.37,185.3Z"/><path d="M127.34,185.3v2.07a1.44,1.44,0,0,1-1.44,1.44H114.16a1.32,1.32,0,0,0-1.32,1.31h0a1.32,1.32,0,0,0,1.32,1.32h11.48a1.43,1.43,0,0,1,1.44,1.44v1.81a1.43,1.43,0,0,1-1.44,1.44H114.28a1.45,1.45,0,0,0-1.44,1.44v.06a1.44,1.44,0,0,0,1.44,1.44H125.9a1.45,1.45,0,0,1,1.44,1.44v2.08A1.45,1.45,0,0,1,125.9,204H108.46a1.45,1.45,0,0,1-1.44-1.44V185.3a1.44,1.44,0,0,1,1.44-1.44H125.9A1.44,1.44,0,0,1,127.34,185.3Z"/><path d="M151.17,185.3v2.07a1.43,1.43,0,0,1-1.44,1.44H138a1.31,1.31,0,0,0-1.31,1.31h0a1.31,1.31,0,0,0,1.31,1.32h11.48a1.43,1.43,0,0,1,1.44,1.44v1.81a1.43,1.43,0,0,1-1.44,1.44H138.12a1.44,1.44,0,0,0-1.44,1.44v.06a1.43,1.43,0,0,0,1.44,1.44h11.61a1.44,1.44,0,0,1,1.44,1.44v2.08a1.44,1.44,0,0,1-1.44,1.44H132.29a1.45,1.45,0,0,1-1.44-1.44V185.3a1.44,1.44,0,0,1,1.44-1.44h17.44A1.43,1.43,0,0,1,151.17,185.3Z"/></g></g></svg>