<svg xmlns="http://www.w3.org/2000/svg" viewBox="0 0 224.5 111.57"><defs><style>.cls-1{fill:#ede8da;}.cls-2{fill:#eae4d6;}</style></defs><title>Asset 4</title><g id="Layer_2" data-name="Layer 2"><g id="Layer_3" data-name="Layer 3"><path class="cls-1" d="M142.67,0H122.84a2.08,2.08,0,0,0-2.09,2.09V5a2.08,2.08,0,0,0,2.09,2.09h4.36a2.08,2.08,0,0,1,2.08,2.08V28.82a.62.62,0,0,1-.07.35s-.16,0-.37-.21L97.32.55A2.07,2.07,0,0,0,95.91,0H81.45a2.08,2.08,0,0,0-2.08,2.09V5A2.08,2.08,0,0,0,81.45,7.1h4.36A2.09,2.09,0,0,1,87.9,9.18V29.82a2.09,2.09,0,0,1-2.09,2.08H81.45A2.08,2.08,0,0,0,79.37,34v2.93A2.08,2.08,0,0,0,81.45,39h19.83a2.08,2.08,0,0,0,2.08-2.08V34a2.08,2.08,0,0,0-2.08-2.09H96.92a2.09,2.09,0,0,1-2.09-2.08V8.56a.7.7,0,0,1,.07-.35s.16,0,.38.21l33.14,30a2.07,2.07,0,0,0,1.41.55h4.3a2.08,2.08,0,0,0,2.09-2.08V9.18A2.08,2.08,0,0,1,138.3,7.1h4.37A2.08,2.08,0,0,0,144.75,5V2.09A2.08,2.08,0,0,0,142.67,0Z"/><path class="cls-1" d="M22,7.1h4.36A2.09,2.09,0,0,1,28.4,9.18V29.82a2.09,2.09,0,0,1-2.09,2.08H22A2.09,2.09,0,0,0,19.86,34v2.93A2.09,2.09,0,0,0,22,39H75.06a2.08,2.08,0,0,0,2.08-2.08V24.78a2.08,2.08,0,0,0-2.08-2.08H72.13A2.09,2.09,0,0,0,70,24.78V30A2.08,2.08,0,0,1,68,32.06H37.42A2.09,2.09,0,0,1,35.33,30v-5.2a2.09,2.09,0,0,1,2.09-2.08h22.9a2.09,2.09,0,0,0,2.09-2.09V18.39a2.09,2.09,0,0,0-2.09-2.09H37.42a2.09,2.09,0,0,1-2.09-2.08V9a2.09,2.09,0,0,1,2.09-2.08H68A2.08,2.08,0,0,1,70,9v5.2a2.09,2.09,0,0,0,2.09,2.08h2.93a2.08,2.08,0,0,0,2.08-2.08V2.08A2.08,2.08,0,0,0,75.06,0H22a2.09,2.09,0,0,0-2.09,2.08V5A2.09,2.09,0,0,0,22,7.1Z"/><path class="cls-1" d="M179.72,0H149.14a2.08,2.08,0,0,0-2.09,2.08V5a2.08,2.08,0,0,0,2.09,2.09h4.36a2.08,2.08,0,0,1,2.08,2.08V29.82a2.08,2.08,0,0,1-2.08,2.08h-13A2.09,2.09,0,0,0,138.44,34v2.93A2.09,2.09,0,0,0,140.53,39h39.19c12,0,24.92-5.12,24.92-19.5S191.76,0,179.72,0Zm17.55,19.5c0,8.22-6.07,12.56-17.55,12.56H164.6A2.08,2.08,0,0,1,162.52,30V9a2.08,2.08,0,0,1,2.08-2.08h15.12C191.2,6.94,197.27,11.28,197.27,19.5Z"/><path class="cls-1" d="M38.59,73.72h-21a2.09,2.09,0,0,1-2.08-2.09V51a2.09,2.09,0,0,1,2.08-2.09h4.36A2.09,2.09,0,0,0,24,46.83V43.9a2.1,2.1,0,0,0-2.09-2.09H2.08A2.09,2.09,0,0,0,0,43.9v2.93a2.08,2.08,0,0,0,2.08,2.08H6.45A2.09,2.09,0,0,1,8.53,51V71.63a2.09,2.09,0,0,1-2.08,2.09H2.08A2.08,2.08,0,0,0,0,75.8v2.93a2.08,2.08,0,0,0,2.08,2.08H45.69c1.15,0,3.09-.93,3.09-2.08V66.6c0-1.16-1.94-2.09-3.09-2.09H42.76a2.08,2.08,0,0,0-2.08,2.09v5A2.1,2.1,0,0,1,38.59,73.72Z"/><path class="cls-1" d="M96,73.72H68.47a2.09,2.09,0,0,1-2.08-2.09v-5a2.08,2.08,0,0,1,2.08-2.09H88.38a2.08,2.08,0,0,0,2.08-2.08V60.2a2.08,2.08,0,0,0-2.08-2.08H68.47A2.09,2.09,0,0,1,66.39,56V50.84a2.08,2.08,0,0,1,2.08-2.09H96a2.09,2.09,0,0,1,2.09,2.09V56a2.09,2.09,0,0,0,2.08,2.09h2.93A2.1,2.1,0,0,0,105.2,56V43.9a2.1,2.1,0,0,0-2.09-2.09H53a2.09,2.09,0,0,0-2.08,2.09v2.93A2.08,2.08,0,0,0,53,48.91h4.37A2.09,2.09,0,0,1,59.45,51V71.63a2.09,2.09,0,0,1-2.08,2.09H53a2.08,2.08,0,0,0-2.08,2.08v2.93A2.08,2.08,0,0,0,53,80.81h50.23a2.09,2.09,0,0,0,2.09-2.08V66.6a2.09,2.09,0,0,0-2.09-2.09h-3.09a2.08,2.08,0,0,0-2.08,2.09v5A2.09,2.09,0,0,1,96,73.72Z"/><path class="cls-1" d="M209.32,59l-25.68-1.73c-7.76-.5-9.19-1.76-9.19-4.06,0-3.33,5.57-5.09,16.09-5.09,17.78,0,22.35,4.78,25.28,8.91a2.07,2.07,0,0,0,1.56.88l2.46.17a3.2,3.2,0,0,0,3.2-3.2v-11A2.09,2.09,0,0,0,221,41.82h-2.6a2.09,2.09,0,0,0-2.09,2.08v5.77a1.53,1.53,0,0,1,0,.25s-.17,0-.37-.18c-7.35-6.13-14.45-8.52-25.32-8.52-14.65,0-23.4,4.64-23.4,12.41,0,6.2,4.91,9.66,14.59,10.29l25.78,1.73c7.86.55,9.4,1.88,9.4,4,0,3.2-5.77,4.82-15,4.82-6.49,0-13.13-.65-19.22-3-6.84-2.63-11.24-7.6-16.09-12.85A62.56,62.56,0,0,0,149,45.09c-6.74-3.32-13.94-4.15-21.35-3.8-5.47.26-11.65,1.1-16.18,4.46a9.79,9.79,0,0,0-4.22,7.88c0,6.2,4.91,9.66,14.59,10.29l25.78,1.73c7.87.55,9.41,1.88,9.41,4,0,3.2-4.69,4.82-13.92,4.82-18.37,0-24.88-4-28.75-9.14a2.08,2.08,0,0,0-1.66-.83h-3a2.08,2.08,0,0,0-2.08,2.09V78.73a2.08,2.08,0,0,0,2.08,2.08h2.61a2.08,2.08,0,0,0,2.08-2.08V73.12a.28.28,0,0,1,.06-.2c.07,0,.27,0,.51.19,6.82,5.74,15.39,8.3,27.76,8.3h.38c18.71-.09,21.5-7.5,21.5-11.91,0-6.29-5.11-9.8-15.18-10.46l-25.68-1.73c-7.76-.5-9.18-1.76-9.18-4.06,0-4,7-4.56,9.7-4.82,11.72-1.13,23.92.57,33.06,8.46,4,3.42,7.35,7.43,11,11.16a44.37,44.37,0,0,0,13.34,9.72c5.44,2.47,11.69,3.38,17.61,3.6.78,0,1.55,0,2.32,0h.27c18.71-.09,22.59-7.5,22.59-11.91C224.5,63.21,219.39,59.7,209.32,59Z"/><path class="cls-2" d="M5,93.6a5.13,5.13,0,0,1,0-6,6.24,6.24,0,0,1,2.8-2A11.16,11.16,0,0,1,12,84.84a12.57,12.57,0,0,1,4.15.63,6.38,6.38,0,0,1,2.8,1.77,3.94,3.94,0,0,1,1,2.64H16.09a2.2,2.2,0,0,0-1.22-1.75A6.11,6.11,0,0,0,12,87.54a5.1,5.1,0,0,0-3,.79,2.83,2.83,0,0,0,0,4.51,5.1,5.1,0,0,0,3,.79A6.11,6.11,0,0,0,14.87,93a2.14,2.14,0,0,0,1.22-1.75h3.84a3.94,3.94,0,0,1-1,2.64,6.38,6.38,0,0,1-2.8,1.77,12.57,12.57,0,0,1-4.15.63,11.16,11.16,0,0,1-4.16-.72A6.32,6.32,0,0,1,5,93.6Z"/><path class="cls-2" d="M21.94,93.31a5,5,0,0,1,.4-6,6.38,6.38,0,0,1,3-1.82,12.32,12.32,0,0,1,4.46-.41,12.44,12.44,0,0,1,4.37,1,6.39,6.39,0,0,1,2.76,2.2,5,5,0,0,1-.4,6,6.53,6.53,0,0,1-3,1.81,12.4,12.4,0,0,1-4.47.41,12.38,12.38,0,0,1-4.37-1A6.39,6.39,0,0,1,21.94,93.31Zm12-2.22a2.53,2.53,0,0,0-1-2.34,6.12,6.12,0,0,0-3.3-1,5.94,5.94,0,0,0-3.38.55,2.76,2.76,0,0,0-.3,4.52,6,6,0,0,0,3.28,1,6,6,0,0,0,3.4-.55A2.55,2.55,0,0,0,34,91.09Z"/><path class="cls-2" d="M51.79,89l-.58,2.64-8.14-1.78-.31,1.39,8,1.75-.54,2.49-8-1.74-.92,4.2-3.71-.81,2.34-10.73Z"/><path class="cls-2" d="M65,93.19l-.81,2.57-7.95-2.54-.43,1.36,7.78,2.49-.77,2.43L55.06,97l-1.3,4.09L50.14,100,53.47,89.5Z"/><path class="cls-2" d="M78.9,97.47l-.7,2.6-9.14-2.44L68.69,99l9,2.4L77,103.88l-9-2.4L67.62,103l9.14,2.44-.69,2.6-12.81-3.42,2.83-10.6Z"/><path class="cls-2" d="M93.07,99.16l-.35,2.68-9.39-1.25L83.15,102l9.22,1.22L92,105.76l-9.22-1.22-.21,1.59L92,107.37l-.36,2.68L78.48,108.3l1.44-10.88Z"/><path class="cls-2" d="M101.06,108.43a4.88,4.88,0,0,1-.81-3.06,4.82,4.82,0,0,1,1.15-3,6.38,6.38,0,0,1,2.91-1.86,11.15,11.15,0,0,1,4.19-.48,12.64,12.64,0,0,1,4.12.86,6.35,6.35,0,0,1,2.68,1.92,3.88,3.88,0,0,1,.84,2.69l-3.83-.21a2.18,2.18,0,0,0-1.12-1.82,6.15,6.15,0,0,0-2.84-.75,5.17,5.17,0,0,0-3.06.62,2.59,2.59,0,0,0-1.25,2.19,2.63,2.63,0,0,0,1,2.32,5.22,5.22,0,0,0,3,.95,6.22,6.22,0,0,0,2.92-.43,2.14,2.14,0,0,0,1.31-1.68l3.83.22a3.87,3.87,0,0,1-1.13,2.57,6.33,6.33,0,0,1-2.89,1.62,12.62,12.62,0,0,1-4.19.39,11.34,11.34,0,0,1-4.11-.94A6.39,6.39,0,0,1,101.06,108.43Z"/><path class="cls-2" d="M118.59,109a5,5,0,0,1-.59-6,6.5,6.5,0,0,1,2.68-2.29,14.17,14.17,0,0,1,8.81-.87,6.38,6.38,0,0,1,3.08,1.72,5,5,0,0,1,.58,6,6.43,6.43,0,0,1-2.68,2.28,14.19,14.19,0,0,1-8.81.87A6.43,6.43,0,0,1,118.59,109Zm11.49-4.16a2.54,2.54,0,0,0-1.39-2.14,6.09,6.09,0,0,0-3.42-.45,6,6,0,0,0-3.24,1.1,2.78,2.78,0,0,0,.44,4.52,7.63,7.63,0,0,0,6.66-.66A2.54,2.54,0,0,0,130.08,104.83Z"/><path class="cls-2" d="M136.68,98.3l6.66,5.12,3.58-7.6,3-.71,2.58,10.67-3.69.89-1.24-5.09-2.75,6.06-.77.18-5.22-4.12,1.23,5.09-3.7.89L133.73,99Z"/><path class="cls-2" d="M159.85,91.13a5.7,5.7,0,0,1,2.35-.32,3.71,3.71,0,0,1,1.86.66,3,3,0,0,1,.69,4.17A5.49,5.49,0,0,1,162,97.48l-5.58,1.88,1.37,4.06-3.6,1.22-3.51-10.4Zm1.6,3.65a.68.68,0,0,0,.07-.67c-.18-.51-.61-.65-1.3-.42l-5.15,1.74.52,1.53,5.15-1.74A1.38,1.38,0,0,0,161.45,94.78Z"/><path class="cls-2" d="M172.9,87.79l10.07,9-4.4,1L177,96.24,168.79,98l-.82,2.08-4.39,1,5.33-12.42ZM171.53,91,170,95l4.65-1Z"/><path class="cls-2" d="M186.54,85.66l9,5.5-.39-6,3.8-.24.69,11-3,.19-9-5.51.38,6-3.79.24-.7-11Z"/><path class="cls-2" d="M200.16,85.09h4.69L209.76,90l4.91-4.88h4.68l-7.69,7.42v3.56h-3.8V92.53Z"/><path class="cls-2" d="M96.77,88.84l-.09,1.06-3.08-.26,0,.56,3,.25-.08,1-3-.25,0,.63,3.08.25-.08,1-4.33-.35.36-4.29Z"/><path class="cls-2" d="M97.25,92.56a1.15,1.15,0,0,1-.26-.81l1.33.07a.26.26,0,0,0,.08.2.81.81,0,0,0,.33.2,2.35,2.35,0,0,0,.64.12,4.83,4.83,0,0,0,.95,0c.24,0,.37-.14.38-.29s-.08-.17-.25-.22-.45-.08-.83-.13-.92-.13-1.26-.2a2.1,2.1,0,0,1-.86-.42,1,1,0,0,1-.33-.84,1.17,1.17,0,0,1,.33-.75,1.8,1.8,0,0,1,.84-.47,3.83,3.83,0,0,1,1.21-.12,4,4,0,0,1,1.23.26,1.9,1.9,0,0,1,.82.58,1.2,1.2,0,0,1,.27.81l-1.33-.07a.36.36,0,0,0-.19-.32A1.46,1.46,0,0,0,99.6,90a3.24,3.24,0,0,0-.85,0c-.21,0-.32.13-.33.28s.09.2.28.26a7.13,7.13,0,0,0,.89.16,12.32,12.32,0,0,1,1.22.23,2,2,0,0,1,.82.4.87.87,0,0,1,.32.76,1.15,1.15,0,0,1-.35.75,2,2,0,0,1-.89.47,4.06,4.06,0,0,1-1.29.11,4.17,4.17,0,0,1-1.31-.26A2,2,0,0,1,97.25,92.56Z"/><path class="cls-2" d="M102.22,90.2l0-1.06,5.07.15,0,1.06-1.92-.06-.09,3.26-1.25,0,.1-3.25Z"/><path class="cls-2" d="M109.91,89.31a2.8,2.8,0,0,1,1.85.56,2.27,2.27,0,0,1,0,3.21,2.9,2.9,0,0,1-1.86.54h-2.07l0-4.31Zm1,3a1,1,0,0,0,.31-.83,1,1,0,0,0-.31-.84,1.46,1.46,0,0,0-1-.26h-.83v2.2h.83A1.45,1.45,0,0,0,110.86,92.3Z"/><path class="cls-2" d="M115.73,92.19c.54-.25,1-.46,1.27-.62a4.47,4.47,0,0,0,.77-.47c.21-.16.31-.31.31-.45a.4.4,0,0,0-.3-.36,3.36,3.36,0,0,0-1-.07c-.31,0-.69,0-1.15.11a5.15,5.15,0,0,0-.87.18l0-1.1a4,4,0,0,1,.94-.18,11.83,11.83,0,0,1,1.25-.1,6.23,6.23,0,0,1,1.31.07,1.4,1.4,0,0,1,.77.38,1.14,1.14,0,0,1,.27.77,1.49,1.49,0,0,1-1,1.34,10.22,10.22,0,0,1-2.4.82l3.26-.09,0,1.06-4.64.13,0-.86C114.91,92.57,115.3,92.38,115.73,92.19Z"/><path class="cls-2" d="M120.08,92.47a2.09,2.09,0,0,1-.39-1.16,2,2,0,0,1,.27-1.2,2.16,2.16,0,0,1,.9-.84,3.46,3.46,0,0,1,1.43-.36,3.54,3.54,0,0,1,1.46.21,2.13,2.13,0,0,1,1,.74,2,2,0,0,1,.39,1.16,2.09,2.09,0,0,1-.27,1.2,2.16,2.16,0,0,1-.9.84,3.51,3.51,0,0,1-1.44.36,3.38,3.38,0,0,1-1.46-.21A2.1,2.1,0,0,1,120.08,92.47Zm3.81-1.38a1.09,1.09,0,0,0-.43-.87,2.12,2.12,0,0,0-2.19.11,1.22,1.22,0,0,0,.09,1.78,1.77,1.77,0,0,0,1.11.25,1.83,1.83,0,0,0,1.08-.36A1.06,1.06,0,0,0,123.89,91.09Z"/><path class="cls-2" d="M125.6,91.16l-.09-1.24L128,88.64l.87-.07.33,4.31L127.9,93l-.24-3.31Z"/><path class="cls-2" d="M129.89,92.37a.91.91,0,0,1-.36-.65.73.73,0,0,1,.37-.74,2.58,2.58,0,0,1,1-.38,2.61,2.61,0,0,1-1-.26.81.81,0,0,1-.47-.7.93.93,0,0,1,.55-.93,3.91,3.91,0,0,1,1.68-.47,4.75,4.75,0,0,1,1.2,0,2.12,2.12,0,0,1,.89.31.88.88,0,0,1,.38.62.82.82,0,0,1-.33.78,2.57,2.57,0,0,1-.91.44,2.82,2.82,0,0,1,1.05.18.73.73,0,0,1,.5.66.87.87,0,0,1-.25.71,2.28,2.28,0,0,1-.84.52,4.69,4.69,0,0,1-1.26.25,5.31,5.31,0,0,1-1.33,0A2,2,0,0,1,129.89,92.37Zm3-2.68a.33.33,0,0,0,.05-.2c0-.13-.13-.21-.35-.25a2.92,2.92,0,0,0-.79,0,3.05,3.05,0,0,0-.78.16c-.21.07-.3.18-.29.31a.36.36,0,0,0,.07.19s.14.09.3.11a4,4,0,0,0,.77,0,4.3,4.3,0,0,0,.73-.13C132.75,89.8,132.85,89.75,132.88,89.69Zm.24,1.38a.76.76,0,0,0-.36-.09,6.2,6.2,0,0,0-.8,0,4.58,4.58,0,0,0-.8.12.66.66,0,0,0-.33.16.26.26,0,0,0-.06.21c0,.24.44.32,1.25.24s1.22-.23,1.2-.47A.3.3,0,0,0,133.12,91.07Z"/></g></g></svg>