<?xml version="1.0" encoding="UTF-8"?>
<svg width="225px" height="112px" viewBox="0 0 225 112" version="1.1" xmlns="http://www.w3.org/2000/svg" xmlns:xlink="http://www.w3.org/1999/xlink">
    <!-- Generator: Sketch 52.6 (67491) - http://www.bohemiancoding.com/sketch -->
    <title>endless-logo-white</title>
    <desc>Created with Sketch.</desc>
    <g id="Page-1" stroke="none" stroke-width="1" fill="none" fill-rule="evenodd">
        <g id="endless-logo-white" fill="#F7F7F5">
            <path d="M142.67,-2.10890875e-15 L122.84,-2.10890875e-15 C122.284882,-0.00267531555 121.751726,0.216661274 121.359194,0.60919374 C120.966661,1.00172621 120.747325,1.53488171 120.75,2.09 L120.75,5 C120.747325,5.55511829 120.966661,6.08827379 121.359194,6.48080626 C121.751726,6.87333873 122.284882,7.09267532 122.84,7.09 L127.2,7.09 C128.348752,7.09 129.28,8.02124772 129.28,9.17 L129.28,28.82 C129.291479,28.9410061 129.267137,29.0627173 129.21,29.17 C129.21,29.17 129.05,29.17 128.84,28.96 L97.32,0.55 C96.9362736,0.195260056 96.4325752,-0.00121805506 95.91,-1.87908838e-15 L81.45,-1.87908838e-15 C80.8966127,-6.39550784e-06 80.3660354,0.220508014 79.975671,0.612749169 C79.5853066,1.00499032 79.3673395,1.53661911 79.37,2.09 L79.37,5 C79.3646622,5.55510741 79.5814457,6.0893161 79.9721014,6.48372812 C80.3627571,6.87814014 80.8948669,7.10002566 81.45,7.1 L85.81,7.1 C86.9603811,7.09998683 87.8944958,8.02963203 87.9,9.18 L87.9,29.82 C87.8944958,30.970368 86.9603811,31.9000132 85.81,31.9 L81.45,31.9 C80.8948669,31.8999743 80.3627571,32.1218599 79.9721014,32.5162719 C79.5814457,32.9106839 79.3646622,33.4448926 79.37,34 L79.37,36.93 C79.3755041,38.0748451 80.3051417,39.0000132 81.45,39 L101.28,39 C102.428752,39 103.36,38.0687523 103.36,36.92 L103.36,34 C103.362661,33.4466191 103.144693,32.9149903 102.754329,32.5227492 C102.363965,32.130508 101.833387,31.9099936 101.28,31.91 L96.92,31.91 C95.7696189,31.9100132 94.8355042,30.980368 94.83,29.83 L94.83,8.56 C94.8226973,8.4392446 94.8468147,8.3186578 94.9,8.21 C94.9,8.21 95.06,8.21 95.28,8.42 L128.42,38.42 C128.803726,38.7747399 129.307425,38.9712181 129.83,38.97 L134.13,38.97 C134.683381,38.9726605 135.21501,38.7546934 135.607251,38.364329 C135.999492,37.9739646 136.220006,37.4433873 136.22,36.89 L136.22,9.18 C136.22,8.03124772 137.151248,7.1 138.3,7.1 L142.67,7.1 C143.225133,7.10002566 143.757243,6.87814014 144.147899,6.48372812 C144.538554,6.0893161 144.755338,5.55510741 144.75,5 L144.75,2.09 C144.752661,1.53661911 144.534693,1.00499032 144.144329,0.612749169 C143.753965,0.220508014 143.223387,-6.39550785e-06 142.67,-2.10890875e-15 Z" id="Path"></path>
            <path d="M22,7.1 L26.36,7.1 C27.4908276,7.12704958 28.3949113,8.04886034 28.4,9.18 L28.4,29.82 C28.3944958,30.970368 27.4603811,31.9000132 26.31,31.9 L22,31.9 C21.4353468,31.8864804 20.8892615,32.1020732 20.4861271,32.4976724 C20.0829927,32.8932715 19.8571357,33.4351923 19.86,34 L19.86,36.93 C19.8651945,37.4895985 20.0945931,38.0237386 20.49683,38.4128182 C20.8990669,38.8018979 21.4405381,39.0134122 22,39 L75.06,39 C76.2087523,39 77.14,38.0687523 77.14,36.92 L77.14,24.78 C77.14,23.6312477 76.2087523,22.7 75.06,22.7 L72.13,22.7 C71.5705297,22.6892845 71.0301282,22.9033664 70.6297794,23.2943173 C70.2294306,23.6852683 70.0025748,24.2204331 70,24.78 L70,30 C69.990142,31.1104657 69.1096894,32.0173319 68,32.06 L37.42,32.06 C36.2773398,32.0601177 35.3464018,31.1425425 35.33,30 L35.33,24.8 C35.3355042,23.649632 36.2696189,22.7199868 37.42,22.72 L60.32,22.72 C60.8743025,22.72 61.4059021,22.4998042 61.7978532,22.1078532 C62.1898042,21.7159021 62.41,21.1843025 62.41,20.63 L62.41,18.39 C62.41,17.2357249 61.4742751,16.3 60.32,16.3 L37.42,16.3 C36.2696189,16.3000132 35.3355042,15.370368 35.33,14.22 L35.33,9 C35.3355042,7.84963203 36.2696189,6.91998683 37.42,6.92 L68,6.92 C69.1173949,6.96300824 70.0008274,7.88177805 70,9 L70,14.2 C70.0055042,15.350368 70.9396189,16.2800132 72.09,16.28 L75.02,16.28 C76.1687523,16.28 77.1,15.3487523 77.1,14.2 L77.1,2.08 C77.1002096,0.946689106 76.1931013,0.0217944213 75.06,0 L22,0 C20.8496189,-1.31680558e-05 19.9155042,0.929632033 19.91,2.08 L19.91,5 C19.9073395,5.55603307 20.1263603,6.09020537 20.5186,6.48432188 C20.9108398,6.87843838 21.4439606,7.10000636 22,7.1 Z" id="Path"></path>
            <path d="M179.72,2.21316834e-15 L149.14,2.21316834e-15 C148.586619,-0.00266051585 148.05499,0.215306637 147.662749,0.60567104 C147.270508,0.996035444 147.049994,1.52661271 147.05,2.08 L147.05,5 C147.047325,5.55511829 147.266661,6.08827379 147.659194,6.48080626 C148.051726,6.87333873 148.584882,7.09267532 149.14,7.09 L153.5,7.09 C154.648752,7.09 155.58,8.02124772 155.58,9.17 L155.58,29.82 C155.58,30.9687523 154.648752,31.9 153.5,31.9 L140.5,31.9 C139.353552,31.9164442 138.434396,32.8534482 138.44,34 L138.44,36.93 C138.450971,38.076457 139.38349,39.0000525 140.53,39 L179.72,39 C191.72,39 204.64,33.88 204.64,19.5 C204.64,5.12 191.76,2.21316834e-15 179.72,2.21316834e-15 Z M197.27,19.5 C197.27,27.72 191.2,32.06 179.72,32.06 L164.6,32.06 C163.459013,32.0600527 162.530971,31.1409342 162.52,30 L162.52,9 C162.52,7.85124772 163.451248,6.92 164.6,6.92 L179.72,6.92 C191.2,6.94 197.27,11.28 197.27,19.5 Z" id="Shape" fill-rule="nonzero"></path>
            <path d="M38.59,73.72 L17.59,73.72 C16.439632,73.7144958 15.5099868,72.7803811 15.51,71.63 L15.51,51 C15.5099868,49.8496189 16.439632,48.9155042 17.59,48.91 L21.95,48.91 C23.0847455,48.8882904 23.9947773,47.9649412 24,46.83 L24,43.9 C23.9945272,42.7479994 23.0620006,41.8154728 21.91,41.81 L2.08,41.81 C0.929632033,41.8155042 -1.31680558e-05,42.7496189 0,43.9 L0,46.83 C1.4068158e-16,47.9787523 0.93124772,48.91 2.08,48.91 L6.45,48.91 C7.60036797,48.9155042 8.53001317,49.8496189 8.53,51 L8.53,71.63 C8.53001317,72.7803811 7.60036797,73.7144958 6.45,73.72 L2.08,73.72 C0.93124772,73.72 1.4068158e-16,74.6512477 0,75.8 L0,78.73 C8.30305746e-15,79.8787523 0.93124772,80.81 2.08,80.81 L45.69,80.81 C46.84,80.81 48.78,79.88 48.78,78.73 L48.78,66.6 C48.78,65.44 46.84,64.51 45.69,64.51 L42.76,64.51 C42.2066127,64.5099936 41.6760354,64.730508 41.285671,65.1227492 C40.8953066,65.5149903 40.6773395,66.0466191 40.68,66.6 L40.68,71.6 C40.6853272,72.1586827 40.4678043,72.6964574 40.0755631,73.0943288 C39.683322,73.4922001 39.1487019,73.7173649 38.59,73.72 Z" id="Path"></path>
            <path d="M96,73.72 L68.47,73.72 C67.319632,73.7144958 66.3899868,72.7803811 66.39,71.63 L66.39,66.63 C66.3873395,66.0766191 66.6053066,65.5449903 66.995671,65.1527492 C67.3860354,64.760508 67.9166127,64.5399936 68.47,64.54 L88.38,64.54 C89.5287523,64.54 90.46,63.6087523 90.46,62.46 L90.46,60.2 C90.46,59.0512477 89.5287523,58.12 88.38,58.12 L68.47,58.12 C67.9121961,58.1173886 67.3785811,57.8919046 66.987924,57.4937349 C66.597267,57.0955652 66.381987,56.5577525 66.39,56 L66.39,50.84 C66.3873395,50.2866191 66.6053066,49.7549903 66.995671,49.3627492 C67.3860354,48.970508 67.9166127,48.7499936 68.47,48.75 L96,48.75 C96.5543025,48.75 97.0859021,48.9701958 97.4778532,49.3621468 C97.8698042,49.7540979 98.09,50.2856975 98.09,50.84 L98.09,56 C98.0899868,57.1503811 99.019632,58.0844958 100.17,58.09 L103.1,58.09 C104.255904,58.0900131 105.194496,57.1558908 105.2,56 L105.2,43.9 C105.194527,42.7479994 104.262001,41.8154728 103.11,41.81 L53,41.81 C51.849632,41.8155042 50.9199868,42.7496189 50.92,43.9 L50.92,46.83 C50.92,47.3816503 51.1391422,47.9107064 51.5292179,48.3007821 C51.9192936,48.6908578 52.4483497,48.91 53,48.91 L57.37,48.91 C58.520368,48.9155042 59.4500132,49.8496189 59.45,51 L59.45,71.63 C59.4500132,72.7803811 58.520368,73.7144958 57.37,73.72 L53,73.72 C51.8512477,73.72 50.92,74.6512477 50.92,75.8 L50.92,78.73 C50.92,79.8787523 51.8512477,80.81 53,80.81 L103.23,80.81 C104.380381,80.8100132 105.314496,79.880368 105.32,78.73 L105.32,66.6 C105.32,66.0456975 105.099804,65.5140979 104.707853,65.1221468 C104.315902,64.7301958 103.784302,64.51 103.23,64.51 L100.14,64.51 C99.5866127,64.5099936 99.0560354,64.730508 98.665671,65.1227492 C98.2753066,65.5149903 98.0573395,66.0466191 98.06,66.6 L98.06,71.6 C98.0680139,72.1543191 97.8554675,72.6891124 97.4691303,73.0867021 C97.0827932,73.4842918 96.5543208,73.7121004 96,73.72 Z" id="Path"></path>
            <path d="M209.32,59 L183.64,57.27 C175.88,56.77 174.45,55.51 174.45,53.21 C174.45,49.88 180.02,48.12 190.54,48.12 C208.32,48.12 212.89,52.9 215.82,57.03 C216.17961,57.5447623 216.753442,57.8684625 217.38,57.91 L219.84,58.08 C221.607311,58.08 223.04,56.6473112 223.04,54.88 L223.04,43.88 C223.024193,42.7566478 222.123145,41.8467659 221,41.82 L218.4,41.82 C217.249619,41.8199868 216.315504,42.749632 216.31,43.9 L216.31,49.67 C216.31682,49.7531938 216.31682,49.8368062 216.31,49.92 C216.31,49.92 216.14,49.92 215.94,49.74 C208.59,43.61 201.49,41.22 190.62,41.22 C175.97,41.22 167.22,45.86 167.22,53.63 C167.22,59.83 172.13,63.29 181.81,63.92 L207.59,65.65 C215.45,66.2 216.99,67.53 216.99,69.65 C216.99,72.85 211.22,74.47 201.99,74.47 C195.5,74.47 188.86,73.82 182.77,71.47 C175.93,68.84 171.53,63.87 166.68,58.62 C161.643001,53.0892178 155.654868,48.5066706 149,45.09 C142.26,41.77 135.06,40.94 127.65,41.29 C122.18,41.55 116,42.39 111.47,45.75 C108.876296,47.5436986 107.305431,50.4769721 107.25,53.63 C107.25,59.83 112.16,63.29 121.84,63.92 L147.62,65.65 C155.49,66.2 157.03,67.53 157.03,69.65 C157.03,72.85 152.34,74.47 143.11,74.47 C124.74,74.47 118.23,70.47 114.36,65.33 C113.967611,64.808122 113.352936,64.5007845 112.7,64.5 L109.7,64.5 C109.146613,64.4999936 108.616035,64.720508 108.225671,65.1127492 C107.835307,65.5049903 107.617339,66.0366191 107.62,66.59 L107.62,78.73 C107.62,79.8787523 108.551248,80.81 109.7,80.81 L112.31,80.81 C113.458752,80.81 114.39,79.8787523 114.39,78.73 L114.39,73.12 C114.383464,73.0480908 114.40496,72.9764366 114.45,72.92 C114.52,72.92 114.72,72.92 114.96,73.11 C121.78,78.85 130.35,81.41 142.72,81.41 L143.1,81.41 C161.81,81.32 164.6,73.91 164.6,69.5 C164.6,63.21 159.49,59.7 149.42,59.04 L123.74,57.31 C115.98,56.81 114.56,55.55 114.56,53.25 C114.56,49.25 121.56,48.69 124.26,48.43 C135.98,47.3 148.18,49 157.32,56.89 C161.32,60.31 164.67,64.32 168.32,68.05 C172.119586,72.0958385 176.64453,75.3928746 181.66,77.77 C187.1,80.24 193.35,81.15 199.27,81.37 C200.05,81.37 200.82,81.37 201.59,81.37 L201.86,81.37 C220.57,81.28 224.45,73.87 224.45,69.46 C224.5,63.21 219.39,59.7 209.32,59 Z" id="Path"></path>
            <path d="M5,93.6 C3.70847727,91.8085039 3.70847727,89.3914961 5,87.6 C5.72744442,86.6840886 6.69766941,85.9910708 7.8,85.6 C9.13806607,85.0788135 10.5641428,84.8207616 12,84.84 C13.4088663,84.8159122 14.8117554,85.0288809 16.15,85.47 C17.2228921,85.8031874 18.1887825,86.4137681 18.95,87.24 C19.5979773,87.9662744 19.9541955,88.9066905 19.95,89.88 L16.09,89.88 C16.0122762,89.1253309 15.5512042,88.4639571 14.87,88.13 C13.9753464,87.703467 12.9903599,87.5009785 12,87.54 C10.9422272,87.4854209 9.89370375,87.7615321 9,88.33 C8.29441236,88.865037 7.87993421,89.6994953 7.87993421,90.585 C7.87993421,91.4705047 8.29441236,92.304963 9,92.84 C9.89370375,93.4084679 10.9422272,93.6845791 12,93.63 C12.9936707,93.6565844 13.978823,93.4403314 14.87,93 C15.5591558,92.6753882 16.023795,92.0088975 16.09,91.25 L19.93,91.25 C19.9341955,92.2233095 19.5779773,93.1637256 18.93,93.89 C18.1687825,94.7162319 17.2028921,95.3268126 16.13,95.66 C14.7917554,96.1011191 13.3888663,96.3140878 11.98,96.29 C10.5601537,96.3168642 9.14822695,96.0724923 7.82,95.57 C6.71593287,95.1867049 5.73977036,94.5047758 5,93.6 Z" id="Path"></path>
            <path d="M21.94,93.31 C20.7213998,91.4443225 20.8845276,88.997406 22.34,87.31 C23.1502364,86.4348602 24.1895478,85.8043446 25.34,85.49 C26.789129,85.0819805 28.3007699,84.943018 29.8,85.08 C31.3052043,85.1459506 32.7859089,85.4847846 34.17,86.08 C35.2783003,86.5396686 36.2347914,87.3020891 36.93,88.28 C38.1486002,90.1456775 37.9854724,92.592594 36.53,94.28 C35.7135557,95.1453565 34.6762124,95.7712203 33.53,96.09 C32.0773498,96.4974622 30.5625351,96.6364049 29.06,96.5 C27.554616,96.4353806 26.073674,96.0964923 24.69,95.5 C23.5866071,95.0414709 22.633882,94.2827552 21.94,93.31 Z M33.94,91.09 C34.051735,90.1869229 33.669891,89.2934078 32.94,88.75 C31.9585823,88.1072651 30.8131095,87.7601522 29.64,87.75 C28.4837706,87.5975501 27.3082445,87.7888339 26.26,88.3 C25.486389,88.7658183 24.9895817,89.5806205 24.9297777,90.4816667 C24.8699738,91.3827128 25.254738,92.2560264 25.96,92.82 C26.932774,93.4653129 28.0726668,93.8128412 29.24,93.82 C30.4027293,93.9728819 31.5847716,93.7816691 32.64,93.27 C33.4530621,92.8415125 33.9726442,92.008653 34,91.09 L33.94,91.09 Z" id="Shape" fill-rule="nonzero"></path>
            <polygon id="Path" points="51.79 89 51.21 91.64 43.07 89.86 42.76 91.25 50.76 93 50.22 95.49 42.22 93.75 41.3 97.95 37.59 97.14 39.93 86.41"></polygon>
            <polygon id="Path" points="65 93.19 64.19 95.76 56.24 93.22 55.81 94.58 63.59 97.07 62.82 99.5 55.06 97 53.76 101.09 50.14 100 53.47 89.5"></polygon>
            <polygon id="Path" points="78.9 97.47 78.2 100.07 69.06 97.63 68.69 99 77.69 101.4 77 103.88 68 101.48 67.62 103 76.76 105.44 76.07 108.04 63.26 104.62 66.09 94.02"></polygon>
            <polygon id="Path" points="93.07 99.16 92.72 101.84 83.33 100.59 83.15 102 92.37 103.22 92 105.76 82.78 104.54 82.57 106.13 92 107.37 91.64 110.05 78.48 108.3 79.92 97.42"></polygon>
            <path d="M101.06,108.43 C100.457502,107.528333 100.172502,106.451667 100.25,105.37 C100.27896,104.267909 100.684855,103.209053 101.4,102.37 C102.180551,101.494256 103.187445,100.850674 104.31,100.51 C105.663415,100.084912 107.085515,99.9219987 108.5,100.03 C109.911744,100.084403 111.304379,100.375098 112.62,100.89 C113.666789,101.282895 114.59128,101.945217 115.3,102.81 C115.907244,103.569698 116.207036,104.529746 116.14,105.5 L112.31,105.29 C112.280013,104.529404 111.855474,103.839528 111.19,103.47 C110.317809,102.994278 109.343349,102.736938 108.35,102.72 C107.290479,102.606378 106.221732,102.822922 105.29,103.34 C104.522108,103.804188 104.04918,104.632757 104.04,105.53 C103.955767,106.423283 104.332746,107.297875 105.04,107.85 C105.91847,108.467724 106.966086,108.799469 108.04,108.8 C109.033736,108.893019 110.035263,108.745533 110.96,108.37 C111.664186,108.082585 112.162906,107.443005 112.27,106.69 L116.1,106.91 C116.058295,107.877909 115.655073,108.794973 114.97,109.48 C114.167573,110.266996 113.170072,110.826148 112.08,111.1 C110.715003,111.463583 109.298651,111.595415 107.89,111.49 C106.473285,111.436338 105.079196,111.117495 103.78,110.55 C102.696175,110.105969 101.755239,109.372593 101.06,108.43 Z" id="Path"></path>
            <path d="M118.59,109 C117.074062,107.356818 116.833162,104.906988 118,103 C118.665339,102.004376 119.592782,101.211897 120.68,100.71 C123.448386,99.4865435 126.535784,99.1816587 129.49,99.84 C130.657919,100.112457 131.725397,100.708581 132.57,101.56 C134.082717,103.205534 134.319517,105.655183 133.15,107.56 C132.486032,108.554397 131.557946,109.343963 130.47,109.84 C127.701252,111.062083 124.614302,111.366923 121.66,110.71 C120.497739,110.436117 119.434702,109.844003 118.59,109 Z M130.08,104.84 C130.034619,103.9288 129.504037,103.111933 128.69,102.7 C127.617193,102.22353 126.429545,102.06726 125.27,102.25 C124.106126,102.29442 122.980342,102.676631 122.03,103.35 C121.346391,103.939971 120.991916,104.825212 121.079404,105.723952 C121.166891,106.622691 121.685442,107.422948 122.47,107.87 C124.673187,108.687318 127.130082,108.443842 129.13,107.21 C129.852983,106.646252 130.216062,105.736644 130.08,104.83 L130.08,104.84 Z" id="Shape" fill-rule="nonzero"></path>
            <polygon id="Path" points="136.68 98.3 143.34 103.42 146.92 95.82 149.92 95.11 152.5 105.78 148.81 106.67 147.57 101.58 144.82 107.64 144.05 107.82 138.83 103.7 140.06 108.79 136.36 109.68 133.73 99"></polygon>
            <path d="M159.85,91.13 C160.602232,90.8597438 161.402895,90.7507174 162.2,90.81 C162.868218,90.8580277 163.510963,91.0860983 164.06,91.47 C165.396367,92.4345061 165.704456,94.2964369 164.75,95.64 C164.04437,96.5215467 163.084078,97.1640695 162,97.48 L156.42,99.36 L157.79,103.42 L154.19,104.64 L150.68,94.24 L159.85,91.13 Z M161.45,94.78 C161.59009,94.5847276 161.616702,94.3300118 161.52,94.11 C161.34,93.6 160.91,93.46 160.22,93.69 L155.07,95.43 L155.59,96.96 L160.74,95.22 C161.016437,95.1501992 161.264469,94.9964895 161.45,94.78 Z" id="Shape" fill-rule="nonzero"></path>
            <path d="M172.9,87.79 L182.97,96.79 L178.57,97.79 L177,96.24 L168.79,98 L167.97,100.08 L163.58,101.08 L168.91,88.66 L172.9,87.79 Z M171.53,91 L170,95 L174.65,94 L171.53,91 Z" id="Shape" fill-rule="nonzero"></path>
            <polygon id="Path" points="186.54 85.66 195.54 91.16 195.15 85.16 198.95 84.92 199.64 95.92 196.64 96.11 187.64 90.6 188.02 96.6 184.23 96.84 183.53 85.84"></polygon>
            <polygon id="Path" points="200.16 85.09 204.85 85.09 209.76 90 214.67 85.12 219.35 85.12 211.66 92.54 211.66 96.1 207.86 96.1 207.86 92.53"></polygon>
            <polygon id="Path" points="96.77 88.84 96.68 89.9 93.6 89.64 93.6 90.2 96.6 90.45 96.52 91.45 93.52 91.2 93.52 91.83 96.6 92.08 96.52 93.08 92.19 92.73 92.55 88.44"></polygon>
            <path d="M97.25,92.56 C97.0629827,92.3331598 96.9699439,92.0433082 96.99,91.75 L98.32,91.82 C98.3164975,91.8950974 98.3456724,91.9680346 98.4,92.02 C98.4922823,92.1122772 98.6054946,92.1808908 98.73,92.22 C98.9367311,92.2895053 99.1521317,92.3298929 99.37,92.34 C99.6858973,92.3712178 100.004103,92.3712178 100.32,92.34 C100.56,92.34 100.69,92.2 100.7,92.05 C100.71,91.9 100.62,91.88 100.45,91.83 C100.28,91.78 100,91.75 99.62,91.7 C99.24,91.65 98.7,91.57 98.36,91.5 C98.0448268,91.4280615 97.7505174,91.284329 97.5,91.08 C97.2627209,90.8683804 97.1402117,90.5565389 97.17,90.24 C97.1860005,89.9583953 97.3031925,89.6920497 97.5,89.49 C97.7321431,89.2599851 98.0225262,89.0975089 98.34,89.02 C98.73437,88.9158222 99.1428499,88.8753118 99.55,88.9 C99.9711416,88.9212917 100.386268,89.0090419 100.78,89.16 C101.100411,89.2762798 101.383641,89.4766132 101.6,89.74 C101.786259,89.9677687 101.882346,90.2560297 101.87,90.55 L100.54,90.48 C100.540988,90.346331 100.467832,90.2231195 100.35,90.16 C100.118723,90.0407892 99.8597908,89.9855503 99.6,90 C99.317896,89.9626731 99.032104,89.9626731 98.75,90 C98.54,90 98.43,90.13 98.42,90.28 C98.41,90.43 98.51,90.48 98.7,90.54 C98.9929824,90.612111 99.2902467,90.6655518 99.59,90.7 C100.000274,90.7561149 100.407457,90.8328791 100.81,90.93 C101.110501,90.9983753 101.391135,91.1352702 101.63,91.33 C101.857577,91.5134826 101.977792,91.7989936 101.95,92.09 C101.930456,92.3747732 101.805703,92.6421008 101.6,92.84 C101.348249,93.0699728 101.041881,93.2317625 100.71,93.31 C100.288652,93.4154327 99.8531157,93.4525715 99.42,93.42 C98.9722005,93.4042773 98.5298619,93.3164849 98.11,93.16 C97.7750714,93.0400482 97.4782004,92.8329289 97.25,92.56 Z" id="Path"></path>
            <polygon id="Path" points="102.22 90.2 102.22 89.14 107.29 89.29 107.29 90.35 105.37 90.29 105.28 93.55 104.03 93.55 104.13 90.3"></polygon>
            <path d="M109.91,89.31 C110.573589,89.271152 111.229356,89.4696543 111.76,89.87 C112.646314,90.7564598 112.646314,92.1935402 111.76,93.08 C111.220204,93.4678363 110.563563,93.6584741 109.9,93.62 L107.83,93.62 L107.83,89.31 L109.91,89.31 Z M110.91,92.31 C111.136946,92.0967034 111.251556,91.7898455 111.22,91.48 C111.254794,91.1667956 111.139916,90.8555137 110.91,90.64 C110.619503,90.4343369 110.263882,90.3418756 109.91,90.38 L109.08,90.38 L109.08,92.58 L109.91,92.58 C110.249715,92.601059 110.586011,92.50194 110.86,92.3 L110.91,92.31 Z" id="Shape" fill-rule="nonzero"></path>
            <path d="M115.73,92.19 C116.27,91.94 116.73,91.73 117,91.57 C117.271859,91.4396999 117.529839,91.2822316 117.77,91.1 C117.98,90.94 118.08,90.79 118.08,90.65 C118.068119,90.4778529 117.947182,90.3327296 117.78,90.29 C117.452042,90.2167936 117.114958,90.1931978 116.78,90.22 C116.47,90.22 116.09,90.22 115.63,90.33 C115.335356,90.3648274 115.044274,90.4250514 114.76,90.51 L114.76,89.41 C115.065,89.3125956 115.380592,89.2521631 115.7,89.23 C116.114606,89.174591 116.531858,89.1412108 116.95,89.13 C117.387913,89.1071651 117.827014,89.1306285 118.26,89.2 C118.550134,89.2428861 118.819473,89.3758065 119.03,89.58 C119.211919,89.7945634 119.308084,90.0688119 119.3,90.35 C119.272307,90.9592251 118.876152,91.490073 118.3,91.69 C117.53715,92.061923 116.730944,92.3373768 115.9,92.51 L119.16,92.42 L119.16,93.48 L114.52,93.61 L114.52,92.75 C114.91,92.57 115.3,92.38 115.73,92.19 Z" id="Path"></path>
            <path d="M120.08,92.47 C119.837169,92.1309083 119.701345,91.7269187 119.69,91.31 C119.651712,90.8915689 119.746181,90.4717069 119.96,90.11 C120.172166,89.7486252 120.484869,89.4567691 120.86,89.27 C121.30526,89.0486387 121.793003,88.9258504 122.29,88.91 C122.786013,88.8767081 123.283477,88.9482611 123.75,89.12 C124.149544,89.2616605 124.497731,89.5193187 124.75,89.86 C124.998014,90.1964173 125.134401,90.6020812 125.14,91.02 C125.172405,91.4380275 125.078331,91.8561381 124.87,92.22 C124.657834,92.5813748 124.345131,92.8732309 123.97,93.06 C123.521151,93.2812802 123.030175,93.4040243 122.53,93.42 C122.033808,93.4583388 121.535272,93.3866315 121.07,93.21 C120.673238,93.0682319 120.328294,92.8103948 120.08,92.47 Z M123.89,91.09 C123.890792,90.7486695 123.731647,90.4266768 123.46,90.22 C122.76625,89.8469769 121.92288,89.889338 121.27,90.33 C121.035237,90.5728601 120.911668,90.9021824 120.928725,91.2395308 C120.945782,91.5768791 121.101938,91.892058 121.36,92.11 C121.692402,92.3132264 122.082569,92.401102 122.47,92.36 C122.859119,92.3578756 123.23743,92.2317717 123.55,92 C123.803839,91.7695078 123.930513,91.4304699 123.89,91.09 Z" id="Shape" fill-rule="nonzero"></path>
            <polygon id="Path" points="125.6 91.16 125.51 89.92 128 88.64 128.87 88.57 129.2 92.88 127.9 93 127.66 89.69"></polygon>
            <path d="M129.89,92.37 C129.68298,92.2144258 129.552048,91.97802 129.53,91.72 C129.488156,91.4205071 129.635299,91.1262207 129.9,90.98 C130.203124,90.7848591 130.543779,90.6554102 130.9,90.6 C130.552671,90.5808386 130.212677,90.49244 129.9,90.34 C129.624668,90.2130227 129.443306,89.9429086 129.43,89.64 C129.395989,89.2443717 129.616923,88.8707916 129.98,88.71 C130.497458,88.4288121 131.071751,88.268147 131.66,88.24 C132.058392,88.1892705 132.461608,88.1892705 132.86,88.24 C133.176168,88.2752478 133.48035,88.3811989 133.75,88.55 C133.960126,88.6922196 134.098639,88.918215 134.13,89.17 C134.173175,89.4710809 134.046149,89.7713253 133.8,89.95 C133.528784,90.1554599 133.219469,90.3050187 132.89,90.39 C133.248257,90.3827446 133.604615,90.4438344 133.94,90.57 C134.227383,90.6650595 134.426288,90.9276139 134.44,91.23 C134.468661,91.4923341 134.376702,91.7534978 134.19,91.94 C133.951369,92.1726414 133.664639,92.350141 133.35,92.46 C132.943454,92.6007289 132.519478,92.684851 132.09,92.71 C131.648419,92.7657405 131.201581,92.7657405 130.76,92.71 C130.447229,92.6669252 130.149098,92.5504145 129.89,92.37 Z M132.89,89.69 C132.927597,89.6303835 132.945119,89.5602956 132.94,89.49 C132.94,89.36 132.81,89.28 132.59,89.24 C132.327883,89.2042134 132.062117,89.2042134 131.8,89.24 C131.534125,89.2590202 131.271891,89.3128118 131.02,89.4 C130.81,89.47 130.72,89.58 130.73,89.71 C130.734675,89.7787261 130.758969,89.8446682 130.8,89.9 C130.8,89.9 130.94,89.99 131.1,90.01 C131.356069,90.0347616 131.613931,90.0347616 131.87,90.01 C132.116623,89.9877666 132.360864,89.9442716 132.6,89.88 C132.75,89.8 132.85,89.75 132.88,89.69 L132.89,89.69 Z M133.13,91.07 C133.01928,91.0107151 132.895593,90.9797934 132.77,90.98 C132.503611,90.9627778 132.236389,90.9627778 131.97,90.98 C131.700316,90.9963254 131.432605,91.036482 131.17,91.1 C131.047093,91.1210868 130.932676,91.1765621 130.84,91.26 C130.790144,91.3177989 130.768205,91.3945863 130.78,91.47 C130.78,91.71 131.22,91.79 132.03,91.71 C132.84,91.63 133.25,91.48 133.23,91.24 C133.214143,91.1722978 133.17526,91.1122063 133.12,91.07 L133.13,91.07 Z" id="Shape" fill-rule="nonzero"></path>
        </g>
    </g>
</svg>