<?xml version="1.0" encoding="utf-8"?>
<!-- Generator: Adobe Illustrator 19.1.0, SVG Export Plug-In . SVG Version: 6.00 Build 0)  -->
<svg version="1.1" id="Layer_1" xmlns="http://www.w3.org/2000/svg" xmlns:xlink="http://www.w3.org/1999/xlink" x="0px" y="0px"
	 viewBox="-13 117.2 333 127.8" style="enable-background:new -13 117.2 333 127.8;" xml:space="preserve">
<style type="text/css">
	.st0{fill:#F7F7F5;}
</style>
<title>Asset 8</title>
<g id="Layer_2">
	<g id="Layer_3">
		<path class="st0" d="M47.6,240.8c-6.4-2.6-10.8-8.5-11.6-15.3c-0.3-3.3,0.4-6.7,2-9.6c1.8-3.4,4.3-6.3,7.4-8.5
			c3-2.4,6.4-4.1,10.1-5.1c3-0.9,6.3-0.9,9.3,0c1.7,0.5,3.3,1.4,4.7,2.5c1.2,1,1.4,2.9,0.4,4.1c-0.1,0.2-0.3,0.3-0.5,0.4l-2.4,1.9
			c-1,0.8-2.4,0.8-3.5,0c-1.5-1.1-3.4-1.6-5.3-1.5c-3.1,0.3-6,1.5-8.3,3.5c-3,2.3-4.9,4.9-5.5,7.8c-0.6,2.9,0.1,5.7,2.2,8.5
			c1.7,2.6,4.5,4.2,7.6,4.4c3,0.2,6-0.9,9-3.2c2.6-1.8,4.5-4.2,5.6-7.1c0.7-1.8,0.7-3.7,0-5.4c-0.5-1.2-0.1-2.6,0.9-3.4l2.4-1.9
			c1.3-1,3.1-0.7,4,0.6c0.1,0.2,0.2,0.4,0.3,0.6c0.7,1.6,1.1,3.4,1.1,5.2c0,3.2-0.8,6.3-2.5,9c-2,3.2-4.5,6-7.6,8.3
			c-3,2.4-6.5,4-10.2,4.9C54.2,242.1,50.8,241.9,47.6,240.8z"/>
		<path class="st0" d="M84.5,213.9c-7.9-5.5-9.8-16.4-4.2-24.3c0.6-0.8,1.3-1.6,2-2.4c2.9-2.8,6.3-5,10.1-6.4
			c3.7-1.6,7.7-2.3,11.8-2.2c7,0.1,13.2,4.5,15.5,11.1c1.3,3.1,1.7,6.6,1,9.9c-0.7,3.3-2.4,6.4-4.8,8.8c-2.9,2.8-6.3,5-10.1,6.4
			c-3.7,1.6-7.7,2.3-11.7,2.2C90.6,217,87.3,215.9,84.5,213.9z M111.7,192.9c-1-3-3.3-5.3-6.3-6.2c-2.9-0.9-6.4-0.6-10.3,1
			c-3.9,1.6-6.7,3.7-8.2,6.3c-1.5,2.7-1.7,6-0.3,8.9c1,3,3.3,5.3,6.3,6.2c2.9,0.9,6.4,0.6,10.3-1c3.9-1.6,6.6-3.7,8.2-6.3
			C112.8,199,112.9,195.7,111.7,192.9L111.7,192.9z"/>
		<path class="st0" d="M157.3,171.3l0.1,1.5c0.2,1.6-1,3-2.6,3.1c0,0,0,0,0,0l-17.6,1.7c-1.6,0.2-2.7,1.6-2.6,3.2l0.1,0.7
			c0.2,1.6,1.6,2.7,3.1,2.6l17.2-1.7c1.6-0.1,3,1,3.1,2.6l0.1,1.1c0.2,1.6-1,3-2.6,3.1c0,0,0,0,0,0l-17.2,1.7
			c-1.6,0.2-2.7,1.6-2.6,3.1l0.8,8.6c0.1,1.6-1,3-2.6,3.2l-2.8,0.3c-1.6,0.2-3-1-3.1-2.6l-2.8-29.1c-0.2-1.6,1-3,2.6-3.2l26.2-2.5
			C155.8,168.5,157.2,169.7,157.3,171.3C157.3,171.3,157.3,171.3,157.3,171.3z"/>
		<path class="st0" d="M198,176.6l-0.2,1.5c-0.2,1.6-1.7,2.7-3.3,2.4l-17.5-2.6c-1.6-0.3-3.1,0.8-3.3,2.4c0,0,0,0,0,0l-0.1,0.7
			c-0.3,1.6,0.8,3.1,2.4,3.3c0,0,0,0,0.1,0l17,2.6c1.6,0.2,2.6,1.7,2.4,3.2c0,0,0,0,0,0l-0.1,1.1c-0.2,1.6-1.7,2.6-3.3,2.4l-17-2.6
			c-1.6-0.2-3,0.8-3.3,2.4l-1.3,8.5c-0.2,1.6-1.7,2.6-3.3,2.4l-2.8-0.4c-1.6-0.2-2.6-1.7-2.4-3.3c0,0,0,0,0,0l4.4-28.9
			c0.2-1.6,1.7-2.7,3.3-2.4l26,3.9C197.1,173.5,198.2,175,198,176.6C198,176.6,198,176.6,198,176.6z"/>
		<path class="st0" d="M239.1,193l-0.6,1.4c-0.6,1.5-2.3,2.1-3.8,1.5c0,0,0,0,0,0l-18.1-7.8c-1.5-0.6-3.2,0-3.8,1.5l-0.3,0.7
			c-0.6,1.5,0,3.2,1.5,3.8l17.7,7.7c1.5,0.6,2.1,2.3,1.5,3.8c0,0,0,0,0,0l-0.4,1c-0.6,1.5-2.3,2.1-3.8,1.5c0,0,0,0,0,0l-17.7-7.7
			c-1.5-0.6-3.2,0-3.8,1.5c0,0,0,0,0,0L207,203c-0.6,1.5,0,3.1,1.5,3.8c0,0,0,0,0,0l18.1,7.8c1.5,0.6,2.1,2.3,1.5,3.8c0,0,0,0,0,0
			l-0.6,1.4c-0.6,1.5-2.3,2.1-3.8,1.5l-26-11.3c-1.5-0.6-2.1-2.3-1.5-3.8c0,0,0,0,0,0l11.6-26.8c0.6-1.5,2.3-2.1,3.8-1.5
			c0,0,0,0,0,0l26,11.3C239.1,189.9,239.8,191.5,239.1,193C239.2,193,239.1,193,239.1,193z"/>
		<path class="st0" d="M277.2,220.8l-1,1.2c-1,1.2-2.8,1.5-4,0.5l-15.6-12.1c-1.3-1-3.1-0.8-4,0.5l-0.5,0.6c-0.9,1.2-0.7,3,0.5,4
			l15.2,11.8c1.2,1,1.4,2.8,0.5,4l-0.7,0.9c-1,1.2-2.8,1.4-4,0.5l-15.2-11.9c-1.3-1-3.1-0.8-4,0.5l-0.8,1c-0.9,1.2-0.7,3,0.5,4
			l15.6,12.1c1.2,1,1.4,2.8,0.5,4l-1,1.2c-1,1.2-2.8,1.5-4,0.5l-22.4-17.4c-1.2-1-1.5-2.7-0.5-4l18-23.1c1-1.3,2.8-1.5,4-0.5
			c0,0,0,0,0,0l22.4,17.4c1.3,1,1.5,2.8,0.5,4C277.3,220.7,277.3,220.8,277.2,220.8z"/>
		<path class="st0" d="M18.9,165.5l1.9,2.3c1,1.2,0.9,3-0.3,4.1c0,0,0,0,0,0L1.6,187.9c-1.2,1-1.4,2.8-0.3,4.1c0,0,0,0,0,0l1.3,1.6
			c1,1.2,2.8,1.4,4.1,0.3c0,0,0,0,0,0l18.5-15.7c1.2-1,3-0.9,4,0.3c0,0,0,0,0,0l1.6,1.9c1,1.2,0.9,3-0.3,4.1c0,0,0,0,0,0l-18.5,15.7
			c-1.2,1-1.4,2.8-0.3,4c0,0,0,0,0,0l1.7,2.1c1,1.2,2.8,1.4,4.1,0.3c0,0,0,0,0,0l18.9-16.1c1.2-1,3-0.9,4.1,0.3c0,0,0,0,0,0l1.9,2.3
			c1,1.2,0.9,3-0.3,4.1c0,0,0,0,0,0l-26.8,22.8c-1.2,1-3,0.9-4.1-0.3c0,0,0,0,0,0L-12.3,192c-1-1.2-0.9-3,0.3-4c0,0,0,0,0,0
			l26.8-22.8C16,164.1,17.8,164.2,18.9,165.5C18.9,165.5,18.9,165.5,18.9,165.5z"/>
		<path class="st0" d="M36.4,151.8l31.1,8.1c1.5,0.4,3.1-0.5,3.5-2.1c0.2-0.7,0.1-1.4-0.2-2l-8-15.4c-0.7-1.4-0.2-3.1,1.2-3.9
			c0,0,0,0,0,0l4-2.1c1.4-0.7,3.1-0.2,3.9,1.2c0,0,0,0,0,0l16.8,32.1c0.7,1.4,0.2,3.1-1.2,3.9c0,0,0,0,0,0l-4.2,2.2
			c-0.6,0.3-1.4,0.4-2.1,0.2l-31.1-8.1c-1.5-0.4-3.1,0.5-3.5,2.1c-0.2,0.7-0.1,1.4,0.2,2.1l8,15.3c0.7,1.4,0.2,3.1-1.2,3.9l-4,2.1
			c-1.4,0.7-3.1,0.2-3.9-1.2L29,158.1c-0.7-1.4-0.2-3.1,1.2-3.8l4.1-2.2C34.9,151.7,35.7,151.6,36.4,151.8z"/>
		<path class="st0" d="M103,123.8c7.5-1.8,13.7-1.5,18.8,1c5,2.5,8.4,7,10,13.6c1.6,6.7,0.7,12.2-2.6,16.7s-8.8,7.6-16.2,9.4
			l-16.6,4c-1.5,0.4-3.1-0.6-3.5-2.1c0,0,0,0,0,0l-8.5-35.2c-0.4-1.5,0.6-3.1,2.1-3.5c0,0,0,0,0,0L103,123.8z M120.4,150.6
			c1.8-2.6,2.3-5.8,1.4-9.7c-0.9-3.9-2.8-6.6-5.7-8c-2.8-1.4-6.5-1.6-11-0.5l-6.6,1.6c-1.5,0.4-2.5,1.9-2.1,3.5c0,0,0,0,0,0
			l4.4,18.2c0.4,1.5,1.9,2.5,3.5,2.1l6.6-1.6C115.4,155,118.6,153.2,120.4,150.6L120.4,150.6z"/>
		<path class="st0" d="M147.3,120.1l0.4,27.5c0,1.6,1.3,2.9,2.9,2.8c0,0,0,0,0,0l22.1-0.3c1.6,0,2.9,1.2,2.9,2.8c0,0,0,0,0,0l0.1,3
			c0,1.6-1.2,2.9-2.8,2.9l-32.5,0.5c-1.6,0-2.9-1.3-2.9-2.8l-0.5-36.2c0-1.6,1.2-2.9,2.8-2.9l4.6-0.1
			C145.9,117.2,147.3,118.5,147.3,120.1C147.3,120.1,147.3,120.1,147.3,120.1z"/>
		<path class="st0" d="M229.4,130.7l-0.7,2.9c-0.4,1.5-1.9,2.5-3.5,2.1l-24.2-5.7c-1.5-0.4-3.1,0.6-3.5,2.1c0,0,0,0,0,0l-0.5,2
			c-0.4,1.5,0.6,3.1,2.1,3.5c0,0,0,0,0,0l23.7,5.6c1.5,0.4,2.5,1.9,2.1,3.5c0,0,0,0,0,0l-0.6,2.4c-0.4,1.5-1.9,2.5-3.5,2.2
			c0,0,0,0-0.1,0l-23.6-5.6c-1.5-0.3-3,0.6-3.4,2.1l-0.6,2.6c-0.4,1.5,0.6,3.1,2.1,3.5c0,0,0,0,0,0l24.2,5.7
			c1.5,0.4,2.5,1.9,2.2,3.5c0,0,0,0,0,0l-0.7,2.9c-0.4,1.6-1.9,2.5-3.5,2.2l-34.2-8.1c-1.5-0.4-2.5-1.9-2.1-3.5l8.3-35.3
			c0.4-1.6,1.9-2.5,3.5-2.2l34.2,8.2C228.8,127.6,229.8,129.1,229.4,130.7z"/>
		<path class="st0" d="M226.4,164.6c-0.4-1.5-0.5-3.1-0.3-4.7c0.3-1.6,1.8-2.6,3.3-2.3c0.3,0.1,0.5,0.1,0.8,0.3l4.8,2.5
			c1,0.5,1.6,1.6,1.6,2.7c0,0.5,0.1,1,0.3,1.5c0.6,1.5,1.6,2.8,2.8,3.9c1.8,1.6,3.8,2.9,6,4c8.1,4.1,12.9,4.8,14.3,2
			c0.5-1,0.3-2.1-0.4-2.9c-0.9-1.2-2-2.2-3.2-3c-1.4-1-3.4-2.2-6-3.8c-3.5-2-6.8-4.2-10-6.6c-2.4-1.8-4.3-4.1-5.7-6.8
			c-1.2-2.7-1.1-5.8,0.4-8.3c1.2-2.4,3.3-4.3,5.8-5.2c2.9-1,6.1-1.3,9.1-0.7c3.9,0.7,7.6,1.9,11.1,3.8c3.7,1.8,7,4.2,9.9,7.1
			c2.4,2.3,4.1,5.1,5,8.3c0.4,1.4,0.5,2.9,0.3,4.4c-0.2,1.6-1.6,2.7-3.2,2.6c-0.4,0-0.7-0.1-1-0.3l-4.7-2.4c-1-0.5-1.6-1.5-1.6-2.6
			c0-1.2-0.3-2.4-1-3.3c-1.1-1.9-3.5-3.7-6.9-5.5c-7.4-3.9-11.8-4.4-13.2-1.6c-0.6,1.2-0.1,2.6,1.5,4c2.5,2.1,5.2,3.9,8.1,5.6
			c3.5,2.1,6.8,4.4,10,6.8c2.4,1.8,4.3,4.2,5.6,6.8c1.2,2.6,1.1,5.7-0.3,8.2c-1.2,2.5-3.4,4.4-6,5.2c-3.1,1-6.4,1.2-9.6,0.5
			c-4.1-0.8-8.1-2.2-11.8-4.1c-3.9-1.9-7.4-4.4-10.5-7.4C229.3,170.7,227.4,167.8,226.4,164.6z"/>
		<path class="st0" d="M269.7,187.7c0-1.6,0.2-3.1,0.8-4.6c0.6-1.4,2.3-2.1,3.8-1.5c0.3,0.1,0.5,0.3,0.7,0.5l4.1,3.5
			c0.8,0.8,1.2,1.9,0.9,3c-0.1,0.5-0.1,1-0.1,1.5c0.2,1.6,0.9,3.1,1.8,4.4c1.4,2,3,3.8,4.9,5.3c6.9,5.9,11.4,7.6,13.4,5.2
			c0.7-0.8,0.8-2,0.3-2.9c-0.6-1.3-1.4-2.6-2.4-3.6c-1.1-1.3-2.8-3-5-5.1c-2.9-2.8-5.6-5.7-8.2-8.8c-1.9-2.3-3.2-5-3.9-7.9
			c-0.6-2.9,0.3-5.9,2.3-8c1.7-2.1,4.2-3.4,6.9-3.8c3.1-0.3,6.2,0.2,9,1.4c3.6,1.5,7,3.7,9.9,6.3c3.2,2.6,5.9,5.7,8,9.2
			c1.7,2.8,2.7,5.9,2.9,9.2c0,1.5-0.2,3-0.7,4.4c-0.5,1.5-2.2,2.3-3.7,1.8c-0.3-0.1-0.6-0.3-0.9-0.5l-4-3.4
			c-0.8-0.7-1.2-1.8-0.9-2.9c0.3-1.2,0.2-2.4-0.2-3.5c-0.7-2.1-2.5-4.4-5.5-7c-6.3-5.5-10.4-7.1-12.5-4.7c-0.9,1.1-0.8,2.5,0.5,4.2
			c2,2.6,4.2,5,6.6,7.3c2.9,2.8,5.6,5.9,8.1,9c1.9,2.3,3.2,5.1,3.9,8c0.6,2.8-0.3,5.8-2.2,7.9c-1.8,2.1-4.3,3.4-7.1,3.6
			c-3.2,0.2-6.5-0.4-9.4-1.8c-3.8-1.7-7.4-4-10.5-6.8c-3.3-2.7-6.2-6-8.5-9.7C270.9,194.3,269.9,191,269.7,187.7z"/>
	</g>
</g>
</svg>
