<svg xmlns="http://www.w3.org/2000/svg" viewBox="0 0 190.82 188.31"><title>Asset 9</title><g id="Layer_2" data-name="Layer 2"><g id="Layer_3" data-name="Layer 3"><path d="M81.47,34.12a.91.91,0,0,0,.65-.27.92.92,0,0,0,0-1.3.92.92,0,0,0-.65-.28,1,1,0,0,0-.86.57,1,1,0,0,0,0,.72A.94.94,0,0,0,81.47,34.12Z"/><path d="M35.22,72.36a.93.93,0,1,0,.92.92A.93.93,0,0,0,35.22,72.36Z"/><path d="M35.22,78.52a.93.93,0,1,0,0,1.85.93.93,0,0,0,0-1.85Z"/><path d="M35.22,84.69a.93.93,0,1,0,.92.92A.93.93,0,0,0,35.22,84.69Z"/><path d="M35.22,90.86a.93.93,0,1,0,.92.92A.93.93,0,0,0,35.22,90.86Z"/><path d="M35.22,103.19a.93.93,0,1,0,.92.92A.93.93,0,0,0,35.22,103.19Z"/><path d="M35.22,97a.93.93,0,1,0,0,1.85.93.93,0,0,0,0-1.85Z"/><path d="M35.22,109.36a.93.93,0,1,0,.92.92A.93.93,0,0,0,35.22,109.36Z"/><path d="M35.22,115.52a.93.93,0,1,0,0,1.85.93.93,0,0,0,0-1.85Z"/><path d="M38.3,69.27a.93.93,0,1,0,.93.93A.93.93,0,0,0,38.3,69.27Z"/><path d="M38.3,75.44a.93.93,0,1,0,.85,1.29.92.92,0,0,0-.85-1.29Z"/><path d="M38.3,124.77a.93.93,0,0,0-.92.93.86.86,0,0,0,.07.36.92.92,0,0,0,.85.56.91.91,0,0,0,.85-.56.86.86,0,0,0,.08-.36A.93.93,0,0,0,38.3,124.77Z"/><path d="M38.3,81.61a.93.93,0,0,0,0,1.85.93.93,0,1,0,0-1.85Z"/><path d="M38.3,118.61a.93.93,0,0,0,0,1.85.93.93,0,1,0,0-1.85Z"/><path d="M38.3,106.27a.93.93,0,1,0,.93.93A.93.93,0,0,0,38.3,106.27Z"/><path d="M38.3,93.94a.93.93,0,0,0,0,1.85.93.93,0,1,0,0-1.85Z"/><path d="M38.3,87.77a.93.93,0,1,0,.93.93A.93.93,0,0,0,38.3,87.77Z"/><path d="M38.3,100.11a.93.93,0,0,0,0,1.85.93.93,0,1,0,0-1.85Z"/><path d="M38.3,112.44a.93.93,0,0,0,0,1.85.93.93,0,1,0,0-1.85Z"/><path d="M32.14,81.61a.93.93,0,1,0,.92.92A.92.92,0,0,0,32.14,81.61Z"/><path d="M32.14,100.11a.93.93,0,1,0,.92.92A.92.92,0,0,0,32.14,100.11Z"/><path d="M32.14,87.77a.93.93,0,1,0,0,1.85.93.93,0,0,0,0-1.85Z"/><path d="M32.14,93.94a.93.93,0,1,0,.92.92A.92.92,0,0,0,32.14,93.94Z"/><path d="M32.14,106.27a.93.93,0,1,0,0,1.85.93.93,0,0,0,0-1.85Z"/><path d="M137,58.79a.93.93,0,1,0-.93-.92A.92.92,0,0,0,137,58.79Z"/><path d="M137,46.46a.93.93,0,0,0,.92-.93.89.89,0,0,0-.12-.43l-.5-.43a1.07,1.07,0,0,0-.3-.06.93.93,0,1,0,0,1.85Z"/><path d="M137,52.62a.92.92,0,0,0,.85-.56,1,1,0,0,0,.07-.36.93.93,0,1,0-1.85,0,1,1,0,0,0,.07.36A.93.93,0,0,0,137,52.62Z"/><path d="M137,83.46a.93.93,0,1,0-.93-.93A.93.93,0,0,0,137,83.46Z"/><path d="M137,65a.93.93,0,0,0,.85-.57,1,1,0,0,0,.07-.36A.93.93,0,0,0,136,64a1,1,0,0,0,.07.36A.94.94,0,0,0,137,65Z"/><path d="M137,89.62a.93.93,0,0,0,0-1.85.93.93,0,1,0,0,1.85Z"/><path d="M137,71.12a.93.93,0,0,0,0-1.85.93.93,0,1,0,0,1.85Z"/><path d="M137,77.29a.92.92,0,0,0,.85-.56,1.15,1.15,0,0,0,.07-.36.93.93,0,1,0-1.85,0,1.15,1.15,0,0,0,.07.36A.93.93,0,0,0,137,77.29Z"/><path d="M140.05,98.87a.93.93,0,0,0,0-1.85.93.93,0,1,0,0,1.85Z"/><path d="M140.05,68a.93.93,0,0,0,0-1.85.93.93,0,1,0,0,1.85Z"/><path d="M140.05,74.21a.93.93,0,1,0-.93-.93A.93.93,0,0,0,140.05,74.21Z"/><path d="M140.05,61.87a.93.93,0,0,0,0-1.85.93.93,0,1,0,0,1.85Z"/><path d="M140.05,55.71a.93.93,0,1,0-.93-.93A.93.93,0,0,0,140.05,55.71Z"/><path d="M140.05,49.54a.93.93,0,0,0,0-1.85.93.93,0,1,0,0,1.85Z"/><path d="M140.05,80.37a.93.93,0,0,0,0-1.85.93.93,0,1,0,0,1.85Z"/><path d="M140.05,105a.93.93,0,1,0-.93-.93A.92.92,0,0,0,140.05,105Z"/><path d="M137,95.79a.93.93,0,1,0-.93-.93A.92.92,0,0,0,137,95.79Z"/><path d="M140.05,111.21a.93.93,0,1,0-.93-.93A.93.93,0,0,0,140.05,111.21Z"/><path d="M140.05,86.54a.93.93,0,1,0-.93-.93A.92.92,0,0,0,140.05,86.54Z"/><path d="M140.05,92.71a.93.93,0,1,0-.93-.93A.93.93,0,0,0,140.05,92.71Z"/><path d="M130.8,65a.86.86,0,0,0,.36-.08.91.91,0,0,0,.49-.49.86.86,0,0,0,.07-.36.92.92,0,0,0-.56-.85.86.86,0,0,0-.36-.07.93.93,0,0,0-.93.92.86.86,0,0,0,.08.36A.93.93,0,0,0,130.8,65Z"/><path d="M133.88,92.71a.93.93,0,1,0,0-1.85.93.93,0,0,0,0,1.85Z"/><path d="M133.88,98.87A.93.93,0,1,0,133,98,.93.93,0,0,0,133.88,98.87Z"/><path d="M130.8,46.46a.86.86,0,0,0,.36-.08.91.91,0,0,0,.56-.85.92.92,0,0,0-.56-.85.86.86,0,0,0-.36-.07.93.93,0,1,0,0,1.85Z"/><path d="M130.8,52.62a.86.86,0,0,0,.36-.07.91.91,0,0,0,.49-.49.86.86,0,0,0,.07-.36.92.92,0,0,0-.56-.85.86.86,0,0,0-.36-.08.93.93,0,0,0-.93.93.86.86,0,0,0,.08.36A.92.92,0,0,0,130.8,52.62Z"/><path d="M130.8,77.29a1,1,0,0,0,.36-.07.94.94,0,0,0,.49-.49.95.95,0,0,0-.49-1.22,1,1,0,0,0-.36-.07.93.93,0,1,0,0,1.85Z"/><path d="M137,102A.93.93,0,1,0,136,101,.93.93,0,0,0,137,102Z"/><path d="M130.8,58.79a1,1,0,0,0,.36-.07.93.93,0,0,0,0-1.71,1,1,0,0,0-.36-.07.93.93,0,1,0,0,1.85Z"/><path d="M130.8,71.12a.86.86,0,0,0,.36-.07.93.93,0,0,0,0-1.7.86.86,0,0,0-.36-.08.93.93,0,1,0,0,1.85Z"/><path d="M133.88,49.54a.93.93,0,1,0-.92-.92A.93.93,0,0,0,133.88,49.54Z"/><path d="M133.88,55.71a.93.93,0,1,0,0-1.85.93.93,0,0,0,0,1.85Z"/><path d="M133.88,86.54a.93.93,0,1,0,0-1.85.93.93,0,0,0,0,1.85Z"/><path d="M133.88,61.87A.93.93,0,1,0,133,61,.93.93,0,0,0,133.88,61.87Z"/><path d="M133.88,74.21a.93.93,0,1,0,0-1.85.93.93,0,0,0,0,1.85Z"/><path d="M133.88,80.37a.93.93,0,1,0-.92-.92A.93.93,0,0,0,133.88,80.37Z"/><path d="M133.88,68a.93.93,0,1,0-.92-.92A.93.93,0,0,0,133.88,68Z"/><path d="M106.13,81.61a.93.93,0,0,0,0,1.85.93.93,0,1,0,0-1.85Z"/><path d="M84.55,105a.93.93,0,1,0,0-1.85.93.93,0,0,0,0,1.85Z"/><path d="M143.13,89.62a.93.93,0,1,0-.92-.92A.93.93,0,0,0,143.13,89.62Z"/><path d="M143.13,83.46a.93.93,0,1,0,0-1.85.93.93,0,0,0,0,1.85Z"/><path d="M143.13,77.29a.92.92,0,0,0,.85-.56.92.92,0,0,0-.85-1.29.93.93,0,1,0,0,1.85Z"/><path d="M84.55,37.21a.93.93,0,1,0,0-1.85.93.93,0,0,0,0,1.85Z"/><path d="M143.13,95.79a.93.93,0,1,0,0-1.85.93.93,0,0,0,0,1.85Z"/><path d="M143.13,114.29a.93.93,0,1,0,0-1.85.93.93,0,0,0,0,1.85Z"/><path d="M143.13,58.79a.93.93,0,1,0-.92-.92A.93.93,0,0,0,143.13,58.79Z"/><path d="M143.13,108.12a.93.93,0,1,0-.92-.92A.93.93,0,0,0,143.13,108.12Z"/><path d="M143.13,102a.93.93,0,1,0,0-1.85.93.93,0,0,0,0,1.85Z"/><path d="M143.13,71.12a.93.93,0,1,0-.92-.92A.93.93,0,0,0,143.13,71.12Z"/><path d="M130.8,83.46a.86.86,0,0,0,.36-.08.91.91,0,0,0,.56-.85.92.92,0,0,0-.56-.85.86.86,0,0,0-.36-.07.93.93,0,1,0,0,1.85Z"/><path d="M143.13,52.62a.92.92,0,0,0,.85-.56.86.86,0,0,0,.08-.36.93.93,0,1,0-1.85,0,.86.86,0,0,0,.07.36A.92.92,0,0,0,143.13,52.62Z"/><path d="M143.13,65a.93.93,0,0,0,.85-.57.86.86,0,0,0,.08-.36.93.93,0,0,0-1.85,0,.86.86,0,0,0,.07.36A.93.93,0,0,0,143.13,65Z"/><path d="M112.3,77.29a.93.93,0,1,0-.93-.92.94.94,0,0,0,.08.36A.92.92,0,0,0,112.3,77.29Z"/><circle cx="112.3" cy="82.53" r="0.93"/><circle cx="112.3" cy="57.87" r="0.93"/><path d="M112.3,65a.93.93,0,0,0,.85-.57.86.86,0,0,0,.07-.36.93.93,0,0,0-1.85,0,.86.86,0,0,0,.08.36A.93.93,0,0,0,112.3,65Z"/><circle cx="112.3" cy="70.2" r="0.93"/><path d="M109.22,55.71a.93.93,0,1,0-.93-.93A.93.93,0,0,0,109.22,55.71Z"/><path d="M109.22,37.21a.93.93,0,1,0-.93-.93A.93.93,0,0,0,109.22,37.21Z"/><path d="M109.22,61.87a.93.93,0,0,0,0-1.85.93.93,0,1,0,0,1.85Z"/><path d="M109.22,43.37a.93.93,0,0,0,0-1.85.93.93,0,1,0,0,1.85Z"/><path d="M109.22,49.54a.93.93,0,0,0,0-1.85.93.93,0,1,0,0,1.85Z"/><path d="M115.38,68a.93.93,0,1,0-.92-.92A.93.93,0,0,0,115.38,68Z"/><path d="M115.38,74.21a.93.93,0,1,0,0-1.85.93.93,0,0,0,0,1.85Z"/><path d="M115.38,61.87a.93.93,0,1,0-.92-.92A.93.93,0,0,0,115.38,61.87Z"/><path d="M115.38,80.37a.93.93,0,1,0-.92-.92A.93.93,0,0,0,115.38,80.37Z"/><path d="M115.38,55.71a.93.93,0,1,0,0-1.85.93.93,0,0,0,0,1.85Z"/><path d="M112.3,40.29a.93.93,0,0,0,0-1.85.93.93,0,1,0,0,1.85Z"/><path d="M112.3,52.62a.92.92,0,0,0,.85-.56.86.86,0,0,0,.07-.36.93.93,0,1,0-1.85,0,.86.86,0,0,0,.08.36A.92.92,0,0,0,112.3,52.62Z"/><path d="M112.3,46.46a.93.93,0,1,0-.93-.93A.93.93,0,0,0,112.3,46.46Z"/><path d="M109.22,68a.93.93,0,1,0-.93-.92A.92.92,0,0,0,109.22,68Z"/><path d="M115.38,86.54a.93.93,0,1,0,0-1.85.93.93,0,0,0,0,1.85Z"/><circle cx="112.3" cy="33.2" r="0.93"/><path d="M103.05,37.21a.93.93,0,1,0-.93-.93A.93.93,0,0,0,103.05,37.21Z"/><path d="M93.8,34.12a.86.86,0,0,0,.36-.07.93.93,0,0,0,0-1.7.86.86,0,0,0-.36-.08.93.93,0,0,0,0,1.85Z"/><path d="M96.88,37.21a.93.93,0,1,0,0-1.85.93.93,0,0,0,0,1.85Z"/><path d="M93.8,26.11a.85.85,0,0,0-.22,0H94A1,1,0,0,0,93.8,26.11Z"/><path d="M100,40.29a.93.93,0,0,0,0-1.85.93.93,0,1,0,0,1.85Z"/><circle cx="87.63" cy="33.2" r="0.93"/><path d="M100,34.12a.93.93,0,0,0,0-1.85.93.93,0,1,0,0,1.85Z"/><path d="M106.13,40.29a.93.93,0,1,0-.92-.92A.93.93,0,0,0,106.13,40.29Z"/><path d="M109.22,74.21a.93.93,0,1,0-.93-.93A.93.93,0,0,0,109.22,74.21Z"/><path d="M106.13,34.12a.93.93,0,1,0-.92-.92A.93.93,0,0,0,106.13,34.12Z"/><path d="M109.22,86.54a.93.93,0,1,0-.93-.93A.92.92,0,0,0,109.22,86.54Z"/><path d="M109.22,80.37a.93.93,0,0,0,0-1.85.93.93,0,1,0,0,1.85Z"/><path d="M103.05,43.37a.93.93,0,0,0,0-1.85.93.93,0,1,0,0,1.85Z"/><path d="M115.38,49.54a.93.93,0,1,0-.92-.92A.93.93,0,0,0,115.38,49.54Z"/><path d="M106.13,46.46a.93.93,0,1,0,0-1.85.93.93,0,0,0,0,1.85Z"/><path d="M118.47,40.29a.93.93,0,1,0-.86-1.28,1,1,0,0,0-.07.36,1.1,1.1,0,0,0,.07.36A.93.93,0,0,0,118.47,40.29Z"/><path d="M124.63,46.46a.93.93,0,1,0,0-1.85.93.93,0,0,0,0,1.85Z"/><path d="M124.63,52.62a.91.91,0,0,0,.85-.56.86.86,0,0,0,.08-.36.93.93,0,1,0-1.85,0,.86.86,0,0,0,.07.36A.92.92,0,0,0,124.63,52.62Z"/><path d="M124.63,40.29a.93.93,0,1,0-.92-.92A.93.93,0,0,0,124.63,40.29Z"/><path d="M127.72,92.71a.93.93,0,1,0-.93-.93A.93.93,0,0,0,127.72,92.71Z"/><circle cx="124.63" cy="82.53" r="0.93"/><path d="M124.63,77.29a.91.91,0,0,0,.85-.56.92.92,0,0,0-.85-1.29.93.93,0,1,0,0,1.85Z"/><path d="M124.63,65a.92.92,0,0,0,.85-.57.86.86,0,0,0,.08-.36.93.93,0,0,0-1.85,0,.86.86,0,0,0,.07.36A.93.93,0,0,0,124.63,65Z"/><circle cx="124.63" cy="57.87" r="0.93"/><circle cx="124.63" cy="70.2" r="0.93"/><path d="M127.72,49.54a.93.93,0,0,0,0-1.85.93.93,0,1,0,0,1.85Z"/><path d="M127.72,43.37a.93.93,0,0,0,0-1.85.93.93,0,1,0,0,1.85Z"/><path d="M127.72,55.71a.93.93,0,1,0-.93-.93A.93.93,0,0,0,127.72,55.71Z"/><path d="M124.63,89.62a.93.93,0,1,0-.92-.92A.93.93,0,0,0,124.63,89.62Z"/><path d="M130.8,95.79a1,1,0,0,0,.36-.07.93.93,0,0,0,0-1.71,1,1,0,0,0-.36-.07.93.93,0,1,0,0,1.85Z"/><path d="M127.72,68a.93.93,0,1,0-.93-.92A.92.92,0,0,0,127.72,68Z"/><path d="M127.72,80.37a.93.93,0,0,0,0-1.85.93.93,0,1,0,0,1.85Z"/><path d="M127.72,74.21a.93.93,0,1,0-.93-.93A.93.93,0,0,0,127.72,74.21Z"/><path d="M127.72,61.87a.93.93,0,0,0,0-1.85.93.93,0,1,0,0,1.85Z"/><path d="M127.72,86.54a.93.93,0,1,0-.93-.93A.92.92,0,0,0,127.72,86.54Z"/><path d="M121.55,61.87a.93.93,0,0,0,0-1.85.93.93,0,1,0,0,1.85Z"/><path d="M118.47,52.62a.91.91,0,0,0,.65-.27,1,1,0,0,0,.2-.29,1,1,0,0,0,.07-.36.88.88,0,0,0-.27-.65.92.92,0,0,0-.65-.28.94.94,0,0,0-.86.57,1,1,0,0,0,0,.72A.93.93,0,0,0,118.47,52.62Z"/><path d="M118.47,58.79a.93.93,0,1,0-.86-1.28,1,1,0,0,0-.07.36,1.1,1.1,0,0,0,.07.36A.93.93,0,0,0,118.47,58.79Z"/><path d="M130.8,89.62a.86.86,0,0,0,.36-.07.93.93,0,0,0,0-1.7.86.86,0,0,0-.36-.08.93.93,0,1,0,0,1.85Z"/><path d="M118.47,65a1,1,0,0,0,.65-.27,1.21,1.21,0,0,0,.2-.3,1,1,0,0,0,.07-.36.92.92,0,0,0-.92-.92.93.93,0,0,0-.86.56,1,1,0,0,0,0,.72A.94.94,0,0,0,118.47,65Z"/><path d="M118.47,46.46a1,1,0,0,0,.65-.27.93.93,0,1,0-1.51-1,1,1,0,0,0,0,.72A.94.94,0,0,0,118.47,46.46Z"/><path d="M115.38,37.21a.93.93,0,1,0,0-1.85.93.93,0,0,0,0,1.85Z"/><path d="M118.47,77.29a.91.91,0,0,0,.65-.27,1,1,0,0,0,.2-.29,1.15,1.15,0,0,0,.07-.36.93.93,0,0,0-1.78-.36,1,1,0,0,0-.07.36,1.15,1.15,0,0,0,.07.36A.93.93,0,0,0,118.47,77.29Z"/><path d="M118.47,71.12a.91.91,0,0,0,.65-.27.9.9,0,0,0,.27-.65.92.92,0,0,0-.27-.66,1,1,0,0,0-.65-.27.94.94,0,0,0-.86.57,1,1,0,0,0,0,.72A.93.93,0,0,0,118.47,71.12Z"/><path d="M118.47,83.46a1,1,0,0,0,.65-.27.93.93,0,1,0-1.51-1,1,1,0,0,0,0,.72A.94.94,0,0,0,118.47,83.46Z"/><path d="M121.55,49.54a.93.93,0,0,0,0-1.85.93.93,0,1,0,0,1.85Z"/><path d="M121.55,55.71a.93.93,0,1,0-.93-.93A.93.93,0,0,0,121.55,55.71Z"/><path d="M121.55,43.37a.93.93,0,0,0,0-1.85.93.93,0,1,0,0,1.85Z"/><path d="M121.55,37.21a.93.93,0,1,0-.93-.93A.93.93,0,0,0,121.55,37.21Z"/><path d="M115.38,43.37a.93.93,0,1,0-.92-.92A.93.93,0,0,0,115.38,43.37Z"/><path d="M121.55,80.37a.93.93,0,0,0,0-1.85.93.93,0,1,0,0,1.85Z"/><path d="M121.55,86.54a.93.93,0,1,0-.93-.93A.92.92,0,0,0,121.55,86.54Z"/><path d="M121.55,74.21a.93.93,0,1,0-.93-.93A.93.93,0,0,0,121.55,74.21Z"/><path d="M121.55,68a.93.93,0,0,0,0-1.85.93.93,0,1,0,0,1.85Z"/><path d="M87.63,155.6a.93.93,0,1,0,.93.93A.93.93,0,0,0,87.63,155.6Z"/><path d="M152.38,90.86a.93.93,0,0,0,0,1.85.93.93,0,1,0,0-1.85Z"/><path d="M152.38,103.19a.93.93,0,0,0,0,1.85.93.93,0,1,0,0-1.85Z"/><path d="M152.38,97a.93.93,0,1,0,.93.93A.93.93,0,0,0,152.38,97Z"/><path d="M152.38,121.69a.93.93,0,0,0,0,1.85.93.93,0,1,0,0-1.85Z"/><path d="M152.38,109.36a.93.93,0,0,0,0,1.85.93.93,0,1,0,0-1.85Z"/><path d="M152.38,115.52a.93.93,0,1,0,.93.93A.93.93,0,0,0,152.38,115.52Z"/><path d="M149.3,63.11a.93.93,0,0,0-.93.92.86.86,0,0,0,.08.36.92.92,0,0,0,.85.57.93.93,0,0,0,.85-.57.86.86,0,0,0,.07-.36A.92.92,0,0,0,149.3,63.11Z"/><circle cx="149.3" cy="70.2" r="0.93"/><path d="M149.3,75.44a.92.92,0,0,0-.85,1.29.91.91,0,0,0,.85.56.93.93,0,0,0,0-1.85Z"/><circle cx="149.3" cy="82.53" r="0.93"/><path d="M149.3,87.77a.93.93,0,1,0,0,1.85.93.93,0,0,0,0-1.85Z"/><path d="M155.46,112.44a.92.92,0,0,0-.85.56,1.1,1.1,0,0,0-.07.36,1,1,0,0,0,.07.36.93.93,0,1,0,.85-1.28Z"/><path d="M155.46,118.61a.92.92,0,0,0-.85.56,1,1,0,0,0,0,.72.92.92,0,0,0,1.51.29.88.88,0,0,0,.27-.65.9.9,0,0,0-.27-.65A.92.92,0,0,0,155.46,118.61Z"/><path d="M152.38,84.69a.93.93,0,0,0,0,1.85.93.93,0,1,0,0-1.85Z"/><path d="M149.3,93.94a.93.93,0,1,0,.92.92A.93.93,0,0,0,149.3,93.94Z"/><path d="M155.46,87.77a.93.93,0,0,0-.85.57,1,1,0,0,0,0,.72.93.93,0,0,0,1.51.29.9.9,0,0,0,.27-.65.92.92,0,0,0-.27-.66A1,1,0,0,0,155.46,87.77Z"/><path d="M155.46,93.94a.92.92,0,0,0-.85.56,1,1,0,0,0,0,.73.93.93,0,1,0,.85-1.29Z"/><path d="M155.46,100.11a.92.92,0,0,0-.85.56,1,1,0,0,0,0,.72.93.93,0,0,0,.85.57,1,1,0,0,0,.66-.27.92.92,0,0,0,.27-.66.9.9,0,0,0-.27-.65A.92.92,0,0,0,155.46,100.11Z"/><path d="M155.46,106.27a.93.93,0,0,0-.85.57,1,1,0,0,0,0,.72.93.93,0,1,0,1.51-1A1,1,0,0,0,155.46,106.27Z"/><path d="M152.38,66.19a.93.93,0,1,0,.93.93A.92.92,0,0,0,152.38,66.19Z"/><path d="M152.38,72.36a.93.93,0,0,0,0,1.85.93.93,0,1,0,0-1.85Z"/><path d="M152.38,78.52a.93.93,0,1,0,.93.93A.93.93,0,0,0,152.38,78.52Z"/><path d="M146.21,90.86a.93.93,0,0,0,0,1.85.93.93,0,1,0,0-1.85Z"/><path d="M146.21,109.36a.93.93,0,0,0,0,1.85.93.93,0,1,0,0-1.85Z"/><path d="M146.21,115.52a.93.93,0,1,0,.93.93A.93.93,0,0,0,146.21,115.52Z"/><path d="M146.21,134a.94.94,0,0,0-.6.24c-.09.16-.18.33-.28.49a.71.71,0,0,0,0,.2.93.93,0,0,0,1.85,0A.93.93,0,0,0,146.21,134Z"/><path d="M146.21,103.19a.93.93,0,1,0,.93.92A.92.92,0,0,0,146.21,103.19Z"/><path d="M149.3,100.11a.93.93,0,1,0,.92.92A.93.93,0,0,0,149.3,100.11Z"/><path d="M149.3,118.61a.93.93,0,1,0,.92.92A.93.93,0,0,0,149.3,118.61Z"/><circle cx="149.3" cy="107.2" r="0.93"/><path d="M149.3,112.44a.93.93,0,1,0,.92.92A.93.93,0,0,0,149.3,112.44Z"/><path d="M149.3,124.77a.93.93,0,0,0-.93.93.86.86,0,0,0,.08.36.91.91,0,0,0,.85.56.92.92,0,0,0,.85-.56.86.86,0,0,0,.07-.36A.93.93,0,0,0,149.3,124.77Z"/><path d="M149.3,130.94a.93.93,0,1,0,0,1.85.9.9,0,0,0,.63-.26l.23-.34a.88.88,0,0,0,.06-.33A.92.92,0,0,0,149.3,130.94Z"/><path d="M146.21,78.52a.93.93,0,1,0,.93.93A.93.93,0,0,0,146.21,78.52Z"/><path d="M146.21,97a.93.93,0,1,0,.93.93A.93.93,0,0,0,146.21,97Z"/><path d="M155.46,81.61a.92.92,0,0,0-.85.56,1,1,0,0,0,0,.72.93.93,0,0,0,.85.57,1,1,0,0,0,.66-.27.93.93,0,0,0-.66-1.58Z"/><path d="M146.21,66.19a.93.93,0,1,0,.93.93A.92.92,0,0,0,146.21,66.19Z"/><path d="M146.21,84.69a.93.93,0,1,0,.93.92A.92.92,0,0,0,146.21,84.69Z"/><path d="M146.21,72.36a.93.93,0,0,0,0,1.85.93.93,0,1,0,0-1.85Z"/><path d="M146.21,60a.93.93,0,1,0,.93.93A.93.93,0,0,0,146.21,60Z"/><path d="M155.46,75.44a.92.92,0,0,0-.85.57,1,1,0,0,0-.07.36,1.15,1.15,0,0,0,.07.36.93.93,0,0,0,1.51.29,1,1,0,0,0,.2-.29,1.15,1.15,0,0,0,.07-.36.92.92,0,0,0-.93-.93Z"/><path d="M158.55,109.36a.93.93,0,1,0,.92.92A.93.93,0,0,0,158.55,109.36Z"/><path d="M158.55,84.69a.93.93,0,1,0,.92.92A.93.93,0,0,0,158.55,84.69Z"/><path d="M158.55,103.19a.93.93,0,1,0,.92.92A.93.93,0,0,0,158.55,103.19Z"/><path d="M158.55,90.86a.93.93,0,1,0,.92.92A.93.93,0,0,0,158.55,90.86Z"/><path d="M158.55,97a.93.93,0,1,0,0,1.85.93.93,0,0,0,0-1.85Z"/><path d="M41.39,66.19a.93.93,0,1,0,.92.93A.92.92,0,0,0,41.39,66.19Z"/><path d="M53.72,140.19a.93.93,0,1,0,.92.92A.93.93,0,0,0,53.72,140.19Z"/><circle cx="50.64" cy="82.53" r="0.93"/><path d="M53.72,127.86a.93.93,0,1,0,.92.92A.93.93,0,0,0,53.72,127.86Z"/><path d="M53.72,115.52a.93.93,0,1,0,0,1.85.93.93,0,0,0,0-1.85Z"/><path d="M53.72,134a.93.93,0,1,0,0,1.85.93.93,0,0,0,0-1.85Z"/><path d="M53.72,109.36a.93.93,0,1,0,.92.92A.93.93,0,0,0,53.72,109.36Z"/><path d="M53.72,121.69a.93.93,0,1,0,.92.92A.93.93,0,0,0,53.72,121.69Z"/><circle cx="50.64" cy="107.2" r="0.93"/><path d="M50.64,137.11a.92.92,0,0,0-.93.92,1,1,0,0,0,.07.36.93.93,0,0,0,1.71,0,1,1,0,0,0,.07-.36A.92.92,0,0,0,50.64,137.11Z"/><circle cx="50.64" cy="131.86" r="0.93"/><path d="M50.64,112.44a.93.93,0,1,0,.92.92A.92.92,0,0,0,50.64,112.44Z"/><path d="M50.64,100.11a.93.93,0,1,0,.92.92A.92.92,0,0,0,50.64,100.11Z"/><path d="M50.64,124.77a.93.93,0,0,0-.93.93,1,1,0,0,0,.07.36.93.93,0,0,0,1.71,0,1,1,0,0,0,.07-.36A.93.93,0,0,0,50.64,124.77Z"/><path d="M53.72,103.19a.93.93,0,1,0,.92.92A.93.93,0,0,0,53.72,103.19Z"/><path d="M50.64,93.94a.93.93,0,1,0,.92.92A.92.92,0,0,0,50.64,93.94Z"/><path d="M50.64,118.61a.93.93,0,1,0,.92.92A.92.92,0,0,0,50.64,118.61Z"/><path d="M50.64,87.77a.93.93,0,1,0,0,1.85.93.93,0,0,0,0-1.85Z"/><path d="M57.16,87.85a.86.86,0,0,0-.36-.08.93.93,0,0,0,0,1.85.86.86,0,0,0,.36-.07.92.92,0,0,0,0-1.7Z"/><path d="M57.16,100.18a.86.86,0,0,0-.36-.07.93.93,0,0,0,0,1.85.86.86,0,0,0,.36-.08.92.92,0,0,0,0-1.7Z"/><path d="M59.88,146.36a.92.92,0,1,0,.93.92A.92.92,0,0,0,59.88,146.36Z"/><path d="M57.16,94a1,1,0,0,0-.36-.07.93.93,0,0,0,0,1.85,1,1,0,0,0,.36-.07.93.93,0,0,0,0-1.71Z"/><path d="M59.88,115.52a.93.93,0,1,0,.93.93A.93.93,0,0,0,59.88,115.52Z"/><path d="M57.16,106.35a.86.86,0,0,0-.36-.08.93.93,0,0,0,0,1.85.86.86,0,0,0,.36-.07.93.93,0,0,0,.57-.85A.92.92,0,0,0,57.16,106.35Z"/><path d="M59.88,121.69a.93.93,0,0,0,0,1.85.93.93,0,1,0,0-1.85Z"/><path d="M59.88,140.19a.93.93,0,0,0,0,1.85.93.93,0,1,0,0-1.85Z"/><path d="M59.88,134a.93.93,0,1,0,.93.93A.93.93,0,0,0,59.88,134Z"/><path d="M59.88,127.86a.93.93,0,0,0,0,1.85.93.93,0,1,0,0-1.85Z"/><path d="M57.16,124.85a.86.86,0,0,0-.36-.08.93.93,0,0,0-.92.93.86.86,0,0,0,.07.36.92.92,0,0,0,.85.56.86.86,0,0,0,.36-.07.91.91,0,0,0,.49-.49.86.86,0,0,0,.08-.36A.92.92,0,0,0,57.16,124.85Z"/><path d="M57.16,143.34a1,1,0,0,0-.36-.07.93.93,0,0,0,0,1.85.86.86,0,0,0,.36-.07.93.93,0,0,0,.57-.85A1,1,0,0,0,57.16,143.34Z"/><path d="M59.88,109.36a.93.93,0,0,0,0,1.85.93.93,0,1,0,0-1.85Z"/><path d="M53.72,84.69a.93.93,0,1,0,.92.92A.93.93,0,0,0,53.72,84.69Z"/><path d="M53.72,90.86a.93.93,0,1,0,.92.92A.93.93,0,0,0,53.72,90.86Z"/><path d="M57.16,112.51a1,1,0,0,0-.36-.07.93.93,0,0,0,0,1.85,1,1,0,0,0,.36-.07.93.93,0,0,0,0-1.71Z"/><path d="M53.72,97a.93.93,0,1,0,0,1.85.93.93,0,0,0,0-1.85Z"/><path d="M57.16,118.68a.86.86,0,0,0-.36-.07.93.93,0,0,0,0,1.85.86.86,0,0,0,.36-.08.92.92,0,0,0,0-1.7Z"/><path d="M57.16,137.18a.86.86,0,0,0-.36-.07.92.92,0,0,0-.92.92.86.86,0,0,0,.07.36.93.93,0,0,0,.85.57.86.86,0,0,0,.36-.08.91.91,0,0,0,.49-.49.86.86,0,0,0,.08-.36A.93.93,0,0,0,57.16,137.18Z"/><path d="M57.16,131a.86.86,0,0,0-.36-.07.93.93,0,0,0,0,1.85,1,1,0,0,0,.36-.07.93.93,0,0,0,0-1.71Z"/><path d="M41.39,60a.93.93,0,1,0,0,1.85.93.93,0,0,0,0-1.85Z"/><path d="M44.47,130.94a.92.92,0,0,0-.85.56.9.9,0,0,0-.08.36.86.86,0,0,0,.08.36.92.92,0,0,0,.85.57.9.9,0,0,0,.65-.27.93.93,0,0,0,0-1.31A.9.9,0,0,0,44.47,130.94Z"/><path d="M41.39,115.52a.93.93,0,1,0,0,1.85.93.93,0,0,0,0-1.85Z"/><path d="M41.39,109.36a.93.93,0,1,0,.92.92A.92.92,0,0,0,41.39,109.36Z"/><path d="M41.39,121.69a.93.93,0,1,0,.92.92A.92.92,0,0,0,41.39,121.69Z"/><path d="M41.39,127.86a.93.93,0,1,0,.92.92A.92.92,0,0,0,41.39,127.86Z"/><path d="M47.55,78.52a.93.93,0,1,0,.93.93A.93.93,0,0,0,47.55,78.52Z"/><path d="M41.39,72.36a.93.93,0,1,0,.92.92A.92.92,0,0,0,41.39,72.36Z"/><path d="M41.39,78.52a.93.93,0,1,0,0,1.85.93.93,0,0,0,0-1.85Z"/><path d="M41.39,97a.93.93,0,1,0,0,1.85.93.93,0,0,0,0-1.85Z"/><path d="M41.39,90.86a.93.93,0,1,0,.92.92A.92.92,0,0,0,41.39,90.86Z"/><path d="M41.39,103.19a.93.93,0,1,0,.92.92A.92.92,0,0,0,41.39,103.19Z"/><path d="M44.47,124.77a.93.93,0,0,0-.85.57.85.85,0,0,0,0,.72.92.92,0,0,0,.85.56.9.9,0,0,0,.65-.27.84.84,0,0,0,.2-.29.86.86,0,0,0,.07-.36.92.92,0,0,0-.27-.66A.94.94,0,0,0,44.47,124.77Z"/><path d="M47.55,121.69a.93.93,0,0,0,0,1.85.93.93,0,1,0,0-1.85Z"/><path d="M47.55,134a.93.93,0,1,0,.93.93A.93.93,0,0,0,47.55,134Z"/><path d="M47.55,115.52a.93.93,0,1,0,.93.93A.93.93,0,0,0,47.55,115.52Z"/><path d="M47.55,84.69a.93.93,0,0,0,0,1.85.93.93,0,1,0,0-1.85Z"/><path d="M47.55,90.86a.93.93,0,0,0,0,1.85.93.93,0,1,0,0-1.85Z"/><path d="M47.55,97a.93.93,0,1,0,.93.93A.93.93,0,0,0,47.55,97Z"/><path d="M47.55,109.36a.93.93,0,0,0,0,1.85.93.93,0,1,0,0-1.85Z"/><path d="M47.55,103.19a.93.93,0,0,0,0,1.85.93.93,0,1,0,0-1.85Z"/><path d="M47.55,127.86a.93.93,0,0,0,0,1.85.93.93,0,1,0,0-1.85Z"/><path d="M44.47,106.27a.93.93,0,0,0-.85.57.85.85,0,0,0,0,.72.92.92,0,0,0,.85.56.9.9,0,0,0,.65-.27.93.93,0,0,0,0-1.31A.94.94,0,0,0,44.47,106.27Z"/><path d="M44.47,118.61a.92.92,0,0,0-.85.56.85.85,0,0,0,0,.72.93.93,0,0,0,.85.57.91.91,0,0,0,.65-.28.88.88,0,0,0,.27-.65.92.92,0,0,0-.92-.92Z"/><path d="M44.47,93.94a.92.92,0,0,0-.85.56.87.87,0,0,0,0,.73.92.92,0,0,0,.85.56.9.9,0,0,0,.65-.27.93.93,0,0,0,0-1.31A.9.9,0,0,0,44.47,93.94Z"/><path d="M44.47,112.44a.92.92,0,0,0-.85.56.9.9,0,0,0-.08.36.86.86,0,0,0,.08.36.92.92,0,0,0,.85.57.9.9,0,0,0,.65-.27.93.93,0,0,0,0-1.31A.9.9,0,0,0,44.47,112.44Z"/><path d="M44.47,100.11a.92.92,0,0,0-.85.56.85.85,0,0,0,0,.72.92.92,0,0,0,1.5.3.92.92,0,0,0,.27-.66.92.92,0,0,0-.92-.92Z"/><path d="M44.47,75.44a.92.92,0,0,0-.85.57.86.86,0,0,0-.08.36.94.94,0,0,0,.08.36.92.92,0,0,0,.85.56.9.9,0,0,0,.65-.27.84.84,0,0,0,.2-.29.95.95,0,0,0-.2-1A.9.9,0,0,0,44.47,75.44Z"/><path d="M44.47,81.61a.92.92,0,0,0-.85.56.85.85,0,0,0,0,.72.92.92,0,0,0,1.5.3.93.93,0,0,0,0-1.31A.9.9,0,0,0,44.47,81.61Z"/><path d="M44.47,87.77a.93.93,0,0,0-.85.57.85.85,0,0,0,0,.72.92.92,0,0,0,.85.56.92.92,0,0,0,.92-.92.92.92,0,0,0-.27-.66A.94.94,0,0,0,44.47,87.77Z"/><path d="M41.39,84.69a.93.93,0,1,0,.92.92A.92.92,0,0,0,41.39,84.69Z"/><path d="M81.47,163.62h0l-.1,0Z"/><path d="M81.47,155.6a1,1,0,0,0-.86.57,1,1,0,0,0,0,.72,1,1,0,0,0,.86.57.92.92,0,0,0,.65-.28.92.92,0,0,0,0-1.3A.92.92,0,0,0,81.47,155.6Z"/><path d="M78.38,103.19a.93.93,0,0,0,0,1.85.93.93,0,1,0,0-1.85Z"/><path d="M78.38,109.36a.93.93,0,0,0,0,1.85.93.93,0,1,0,0-1.85Z"/><path d="M78.38,115.52a.93.93,0,1,0,.93.93A.93.93,0,0,0,78.38,115.52Z"/><path d="M81.47,137.11a.94.94,0,0,0-.86.56,1,1,0,0,0,0,.72,1,1,0,0,0,.86.57.92.92,0,0,0,.65-.28,1,1,0,0,0,.2-.29.86.86,0,0,0,.07-.36.88.88,0,0,0-.27-.65A.91.91,0,0,0,81.47,137.11Z"/><path d="M81.47,132.79a.91.91,0,0,0,.65-.27,1.43,1.43,0,0,0,.14-.2c0-.22.06-.43.09-.64a.87.87,0,0,0-.23-.47.91.91,0,0,0-.65-.27.94.94,0,0,0-.86.56,1.1,1.1,0,0,0-.07.36,1,1,0,0,0,.07.36A.93.93,0,0,0,81.47,132.79Z"/><path d="M81.47,124.77a1,1,0,0,0-.86.57,1,1,0,0,0,0,.72.94.94,0,0,0,.86.56.91.91,0,0,0,.65-.27,1,1,0,0,0,.2-.29.86.86,0,0,0,.07-.36.92.92,0,0,0-.27-.66A1,1,0,0,0,81.47,124.77Z"/><path d="M81.47,143.27a.93.93,0,0,0-.86.57,1,1,0,0,0-.07.36,1.1,1.1,0,0,0,.07.36.94.94,0,0,0,.86.56.93.93,0,0,0,.65-1.58A1,1,0,0,0,81.47,143.27Z"/><path d="M78.38,121.69a.93.93,0,0,0,0,1.85.93.93,0,1,0,0-1.85Z"/><path d="M59.88,103.19a.93.93,0,1,0,.93.92A.92.92,0,0,0,59.88,103.19Z"/><path d="M75.3,112.44a.93.93,0,0,0,0,1.85.93.93,0,1,0,0-1.85Z"/><path d="M75.3,118.61a.93.93,0,0,0,0,1.85.93.93,0,1,0,0-1.85Z"/><path d="M81.47,118.61a.94.94,0,0,0-.86.56,1,1,0,0,0,0,.72,1,1,0,0,0,.86.57.92.92,0,0,0,.65-.28.88.88,0,0,0,.27-.65.9.9,0,0,0-.27-.65A.91.91,0,0,0,81.47,118.61Z"/><path d="M75.3,137.11a.92.92,0,0,0-.92.92.86.86,0,0,0,.07.36.92.92,0,0,0,1.7,0,.86.86,0,0,0,.08-.36A.93.93,0,0,0,75.3,137.11Z"/><path d="M78.38,127.86a.93.93,0,0,0,0,1.85.93.93,0,1,0,0-1.85Z"/><path d="M75.3,124.77a.93.93,0,0,0-.92.93.86.86,0,0,0,.07.36.93.93,0,0,0,1.7,0,.86.86,0,0,0,.08-.36A.93.93,0,0,0,75.3,124.77Z"/><path d="M75.3,130.94a.93.93,0,0,0,0,1.85.93.93,0,1,0,0-1.85Z"/><path d="M78.38,140.19a.93.93,0,0,0,0,1.85.93.93,0,1,0,0-1.85Z"/><path d="M78.38,134a.93.93,0,1,0,.93.93A.93.93,0,0,0,78.38,134Z"/><path d="M78.38,146.36a.92.92,0,1,0,.93.92A.92.92,0,0,0,78.38,146.36Z"/><path d="M78.38,152.52a.93.93,0,1,0,.93.93A.93.93,0,0,0,78.38,152.52Z"/><path d="M75.3,106.27a.93.93,0,1,0,.93.93A.93.93,0,0,0,75.3,106.27Z"/><path d="M103.05,158.69a.93.93,0,1,0,.92.92A.93.93,0,0,0,103.05,158.69Z"/><path d="M106.13,155.6a.93.93,0,1,0,.93.93A.93.93,0,0,0,106.13,155.6Z"/><path d="M100,155.6a.93.93,0,1,0,.92.93A.93.93,0,0,0,100,155.6Z"/><path d="M112.3,155.6a.93.93,0,1,0,.92.93A.93.93,0,0,0,112.3,155.6Z"/><path d="M81.47,112.44a.94.94,0,0,0-.86.56,1.1,1.1,0,0,0-.07.36,1,1,0,0,0,.07.36.93.93,0,0,0,.86.57.93.93,0,0,0,0-1.85Z"/><path d="M96.88,158.69a.93.93,0,0,0,0,1.85.93.93,0,1,0,0-1.85Z"/><path d="M84.55,146.36a.92.92,0,1,0,.93.92A.92.92,0,0,0,84.55,146.36Z"/><path d="M84.55,158.69a.93.93,0,0,0,0,1.85.93.93,0,1,0,0-1.85Z"/><path d="M81.47,106.27a1,1,0,0,0-.86.57,1,1,0,0,0,0,.72.94.94,0,0,0,.86.56.93.93,0,0,0,.65-1.58A1,1,0,0,0,81.47,106.27Z"/><path d="M84.55,152.52a.93.93,0,1,0,.93.93A.93.93,0,0,0,84.55,152.52Z"/><path d="M90.72,152.52a.93.93,0,1,0,0,1.85.93.93,0,0,0,0-1.85Z"/><path d="M94.16,155.68a.86.86,0,0,0-.36-.08.93.93,0,0,0,0,1.86.86.86,0,0,0,.36-.08.93.93,0,0,0,0-1.7Z"/><path d="M87.63,149.44a.93.93,0,0,0,0,1.85.93.93,0,1,0,0-1.85Z"/><path d="M90.72,158.69a.93.93,0,1,0,.92.92A.93.93,0,0,0,90.72,158.69Z"/><path d="M81.47,149.44a.94.94,0,0,0-.86.56,1.1,1.1,0,0,0-.07.36,1,1,0,0,0,.07.36.93.93,0,0,0,.86.57.93.93,0,0,0,0-1.85Z"/><path d="M66.05,146.36a.92.92,0,1,0,.93.92A.92.92,0,0,0,66.05,146.36Z"/><path d="M75.3,143.27a.93.93,0,1,0,.93.93A.93.93,0,0,0,75.3,143.27Z"/><path d="M66.05,152.52a.93.93,0,1,0,.93.93A.93.93,0,0,0,66.05,152.52Z"/><circle cx="62.97" cy="107.2" r="0.93"/><path d="M63,100.11a.93.93,0,1,0,.92.92A.93.93,0,0,0,63,100.11Z"/><path d="M66.05,134A.93.93,0,1,0,67,135,.93.93,0,0,0,66.05,134Z"/><path d="M66.05,115.52a.93.93,0,1,0,.93.93A.93.93,0,0,0,66.05,115.52Z"/><path d="M66.05,109.36a.93.93,0,0,0,0,1.85.93.93,0,1,0,0-1.85Z"/><path d="M66.05,121.69a.93.93,0,0,0,0,1.85.93.93,0,1,0,0-1.85Z"/><path d="M66.05,127.86a.93.93,0,0,0,0,1.85.93.93,0,1,0,0-1.85Z"/><path d="M63,149.44a.93.93,0,1,0,.92.92A.93.93,0,0,0,63,149.44Z"/><circle cx="62.97" cy="144.2" r="0.93"/><path d="M66.05,103.19a.93.93,0,0,0,0,1.85.93.93,0,1,0,0-1.85Z"/><path d="M59.88,97a.93.93,0,1,0,.93.93A.93.93,0,0,0,59.88,97Z"/><path d="M63,124.77a.93.93,0,0,0-.93.93.86.86,0,0,0,.08.36.91.91,0,0,0,.85.56.92.92,0,0,0,.85-.56.86.86,0,0,0,.07-.36A.93.93,0,0,0,63,124.77Z"/><path d="M63,112.44a.93.93,0,1,0,.92.92A.93.93,0,0,0,63,112.44Z"/><path d="M63,118.61a.93.93,0,1,0,.92.92A.93.93,0,0,0,63,118.61Z"/><circle cx="62.97" cy="131.86" r="0.93"/><path d="M63,137.11A.93.93,0,0,0,62,138a.86.86,0,0,0,.08.36A.92.92,0,0,0,63,139a.93.93,0,0,0,.85-.57.86.86,0,0,0,.07-.36A.92.92,0,0,0,63,137.11Z"/><path d="M66.05,140.19a.93.93,0,0,0,0,1.85.93.93,0,1,0,0-1.85Z"/><path d="M72.22,121.69a.93.93,0,1,0,.92.92A.93.93,0,0,0,72.22,121.69Z"/><path d="M72.22,115.52a.93.93,0,1,0,0,1.85.93.93,0,0,0,0-1.85Z"/><path d="M72.22,146.36a.92.92,0,1,0,.92.92A.93.93,0,0,0,72.22,146.36Z"/><path d="M72.22,140.19a.93.93,0,1,0,.92.92A.93.93,0,0,0,72.22,140.19Z"/><path d="M72.22,134a.93.93,0,1,0,0,1.85.93.93,0,0,0,0-1.85Z"/><path d="M72.22,127.86a.93.93,0,1,0,.92.92A.93.93,0,0,0,72.22,127.86Z"/><path d="M72.22,109.36a.93.93,0,1,0,.92.92A.93.93,0,0,0,72.22,109.36Z"/><path d="M75.3,155.6a.93.93,0,1,0,.93.93A.93.93,0,0,0,75.3,155.6Z"/><path d="M75.3,149.44a.93.93,0,0,0,0,1.85.93.93,0,1,0,0-1.85Z"/><path d="M72.22,103.19a.93.93,0,1,0,.92.92A.93.93,0,0,0,72.22,103.19Z"/><path d="M69.13,137.11a.92.92,0,0,0-.92.92,1,1,0,0,0,.07.36.93.93,0,0,0,1.71,0,1,1,0,0,0,.07-.36A.93.93,0,0,0,69.13,137.11Z"/><path d="M69.13,143.27a.93.93,0,1,0,.93.93A.93.93,0,0,0,69.13,143.27Z"/><path d="M69.13,130.94a.93.93,0,0,0,0,1.85.93.93,0,1,0,0-1.85Z"/><path d="M69.13,149.44a.93.93,0,0,0,0,1.85.93.93,0,1,0,0-1.85Z"/><path d="M69.13,112.44a.93.93,0,0,0,0,1.85.93.93,0,1,0,0-1.85Z"/><path d="M72.22,152.52a.93.93,0,1,0,0,1.85.93.93,0,0,0,0-1.85Z"/><path d="M69.13,124.77a.93.93,0,0,0-.92.93,1,1,0,0,0,.07.36.93.93,0,0,0,1.71,0,1,1,0,0,0,.07-.36A.93.93,0,0,0,69.13,124.77Z"/><path d="M69.13,106.27a.93.93,0,1,0,.93.93A.93.93,0,0,0,69.13,106.27Z"/><path d="M69.13,118.61a.93.93,0,0,0,0,1.85.93.93,0,1,0,0-1.85Z"/><path d="M17.17,107.34l-2,.54a1.16,1.16,0,0,0-.81,1.43l2.74,10.13a1.16,1.16,0,0,1-.81,1.42l-.28.07a1.16,1.16,0,0,1-1.42-.81l-2.68-9.91a1.16,1.16,0,0,0-1.42-.82l-1.78.48a1.16,1.16,0,0,0-.81,1.42l2.69,9.91a1.16,1.16,0,0,1-.82,1.42h0a1.15,1.15,0,0,1-1.42-.81L5.61,111.68a1.16,1.16,0,0,0-1.42-.82l-2,.54a1.17,1.17,0,0,0-.82,1.43l4.09,15.09a1.17,1.17,0,0,0,1.43.82l15-4.06a1.16,1.16,0,0,0,.82-1.42l-4.1-15.1A1.16,1.16,0,0,0,17.17,107.34Z"/><path d="M16.91,101l-6.17.11a1.17,1.17,0,0,1-.92-1.9l7.79-9.51a1.12,1.12,0,0,0,.26-.76l0-2.49a1.15,1.15,0,0,0-1.17-1.14l-15.52.25A1.16,1.16,0,0,0,0,86.71l.05,2.83a1.15,1.15,0,0,0,1.17,1.14l6.18-.1a1.16,1.16,0,0,1,.92,1.89L.52,102a1.23,1.23,0,0,0-.26.76l0,2.46a1.16,1.16,0,0,0,1.18,1.14L17,106.12a1.16,1.16,0,0,0,1.14-1.18l-.05-2.83A1.16,1.16,0,0,0,16.91,101Z"/><path d="M20.57,75.65c.85-3.15.79-5.8-.2-8a8.12,8.12,0,0,0-5.69-4.39,8.12,8.12,0,0,0-7.11.92C5.62,65.58,4.21,67.84,3.36,71L1.42,78.15a1.16,1.16,0,0,0,.81,1.43l15,4a1.15,1.15,0,0,0,1.42-.81ZM16.34,74.5l-.59,2.21a1.17,1.17,0,0,1-1.43.81L7.81,75.76A1.17,1.17,0,0,1,7,74.33l.6-2.2A6.06,6.06,0,0,1,9.67,68.6a4.27,4.27,0,0,1,3.67-.35,4.31,4.31,0,0,1,3,2.14A5.93,5.93,0,0,1,16.34,74.5Z"/><path d="M30.18,51l-1.83-1a1.17,1.17,0,0,0-1.57.49l-4.17,7.94a1.17,1.17,0,0,1-1.57.48l-9.85-5.18a1.15,1.15,0,0,0-1.56.49l-1.32,2.5a1.15,1.15,0,0,0,.49,1.56l13.73,7.23a1.16,1.16,0,0,0,1.56-.49l6.57-12.49A1.15,1.15,0,0,0,30.18,51Z"/><path d="M42.69,36.63l-1.54-1.37a1.16,1.16,0,0,0-1.64.09l-7,7.84a1.16,1.16,0,0,1-1.64.1l-.21-.19a1.15,1.15,0,0,1-.09-1.63l6.82-7.67a1.17,1.17,0,0,0-.1-1.64L36,30.94a1.15,1.15,0,0,0-1.63.1L27.5,38.71a1.17,1.17,0,0,1-1.64.1h0a1.17,1.17,0,0,1-.1-1.64l7-7.84a1.17,1.17,0,0,0-.1-1.64L31.1,26.32a1.16,1.16,0,0,0-1.64.1L19.07,38.1a1.17,1.17,0,0,0,.1,1.64L30.76,50.05A1.17,1.17,0,0,0,32.4,50L42.79,38.26A1.16,1.16,0,0,0,42.69,36.63Z"/><path d="M40,29.18a8.52,8.52,0,0,0,3.86-.79,45.56,45.56,0,0,0,4.65-2.45,31,31,0,0,1,3.08-1.65c.66-.29,1.11-.25,1.35.1.35.52.18,1.15-.52,1.87a17.75,17.75,0,0,1-3.12,2.44,9.64,9.64,0,0,1-2.39,1.2,3.33,3.33,0,0,1-1.58.16,1.15,1.15,0,0,1-.77-.46l-3.46,2.34a1.16,1.16,0,0,0-.08,1.87,4.78,4.78,0,0,0,1.88.91,8.29,8.29,0,0,0,4.26-.22,17.81,17.81,0,0,0,5-2.43,16.89,16.89,0,0,0,4-3.6,8,8,0,0,0,1.77-3.76,4.6,4.6,0,0,0-.74-3.34,3.62,3.62,0,0,0-3-1.74,8.53,8.53,0,0,0-3.7.74c-1.25.53-2.78,1.3-4.58,2.29a24.77,24.77,0,0,1-3.34,1.71c-.77.29-1.28.24-1.55-.15s-.24-1.11.35-1.76a13.72,13.72,0,0,1,2.76-2.19,6,6,0,0,1,3-1.25,2.15,2.15,0,0,1,1,.21,1.1,1.1,0,0,0,1.13-.11L52,17.29A1.17,1.17,0,0,0,52,15.41a5.1,5.1,0,0,0-1.87-.91,8.13,8.13,0,0,0-4.13.14,17.24,17.24,0,0,0-8.42,5.66A6.59,6.59,0,0,0,36.17,26a1.57,1.57,0,0,0,.1.28Q37.64,29.08,40,29.18Z"/><path d="M58.85,17.09a8.51,8.51,0,0,0,3.94.21,47.85,47.85,0,0,0,5.12-1.19,32.32,32.32,0,0,1,3.4-.82c.71-.11,1.13,0,1.28.44.2.59-.12,1.15-1,1.68A17.82,17.82,0,0,1,68,19a9.31,9.31,0,0,1-2.61.55,3.35,3.35,0,0,1-1.57-.24,1.14,1.14,0,0,1-.63-.64L59.22,20a1.17,1.17,0,0,0-.56,1.79,4.71,4.71,0,0,0,1.6,1.35,8.24,8.24,0,0,0,4.18.87A17.62,17.62,0,0,0,69.86,23a17,17,0,0,0,4.76-2.48,8,8,0,0,0,2.66-3.19,4.56,4.56,0,0,0,.13-3.42A3.58,3.58,0,0,0,75,11.44a8.59,8.59,0,0,0-3.77-.23c-1.34.21-3,.56-5,1.07a25.71,25.71,0,0,1-3.66.8c-.82.09-1.3-.09-1.46-.54s0-1.13.78-1.61A13.83,13.83,0,0,1,65.1,9.51a6,6,0,0,1,3.17-.46,2.18,2.18,0,0,1,.94.47,1.12,1.12,0,0,0,1.12.17L73.42,8.6A1.16,1.16,0,0,0,74,6.8a4.93,4.93,0,0,0-1.58-1.34,8,8,0,0,0-4-.92,15.85,15.85,0,0,0-5.11,1,15.39,15.39,0,0,0-4.46,2.37A6.58,6.58,0,0,0,55.93,13a1.53,1.53,0,0,0,0,.3Q56.56,16.38,58.85,17.09Z"/><path d="M89.5,17.58a12.9,12.9,0,0,0,5.65,1.07,14.39,14.39,0,0,0,5.62-1.11,8.62,8.62,0,0,0,3.73-2.94,7,7,0,0,0,1.19-3,1.15,1.15,0,0,0-1.18-1.28l-3,0a1.17,1.17,0,0,0-1.1.89,3.41,3.41,0,0,1-1.45,2,7.25,7.25,0,0,1-3.9,1A6.11,6.11,0,0,1,91,13.06a4.55,4.55,0,0,1-1.58-3.64,4.52,4.52,0,0,1,1.46-3.69,6.15,6.15,0,0,1,4.07-1.35,7.13,7.13,0,0,1,3.91.9,3.44,3.44,0,0,1,1.53,2,1.16,1.16,0,0,0,1.12.84l3,0a1.16,1.16,0,0,0,1.13-1.33,7,7,0,0,0-1.29-2.95A8.48,8.48,0,0,0,100.49.93,14.65,14.65,0,0,0,94.85,0a13,13,0,0,0-5.61,1.25,8.8,8.8,0,0,0-3.73,3.34A8.93,8.93,0,0,0,84.25,9.5a8.9,8.9,0,0,0,1.42,4.87A8.72,8.72,0,0,0,89.5,17.58Z"/><path d="M110.42,18.72a14.29,14.29,0,0,0,5.46,2.72,14.44,14.44,0,0,0,6.09.48,8.9,8.9,0,0,0,4.65-2.09,8.75,8.75,0,0,0,2.62-4.36,8.82,8.82,0,0,0,0-5.09,8.9,8.9,0,0,0-2.91-4.19,14.41,14.41,0,0,0-5.47-2.72A14.39,14.39,0,0,0,114.78,3a8.84,8.84,0,0,0-4.64,2.11,8.76,8.76,0,0,0-2.62,4.35,8.83,8.83,0,0,0,0,5.07A8.81,8.81,0,0,0,110.42,18.72Zm2.06-7.9A4.42,4.42,0,0,1,115,7.7a7.1,7.1,0,0,1,4.69,0,7.23,7.23,0,0,1,4,2.43,4.44,4.44,0,0,1,.55,4,4.42,4.42,0,0,1-2.52,3.13,7.26,7.26,0,0,1-4.72,0,7.1,7.1,0,0,1-4-2.43A4.4,4.4,0,0,1,112.48,10.82Z"/><path d="M132.06,26.17l2.32-4.05a1.16,1.16,0,0,1,1.58-.43L143.54,26a1.16,1.16,0,0,0,1.59-.43L146,24a1.16,1.16,0,0,0-.43-1.58L138,18.09a1.15,1.15,0,0,1-.43-1.58h0a1.15,1.15,0,0,1,1.58-.43L147,20.54a1.15,1.15,0,0,0,1.58-.43l1-1.79a1.15,1.15,0,0,0-.43-1.58l-12.24-7a1.16,1.16,0,0,0-1.59.43l-7.72,13.46a1.17,1.17,0,0,0,.43,1.58l2.46,1.41A1.16,1.16,0,0,0,132.06,26.17Z"/><path d="M146.14,36l3.14-3.45a1.15,1.15,0,0,1,1.63-.08l6.47,5.88a1.17,1.17,0,0,0,1.64-.08l1.23-1.36a1.16,1.16,0,0,0-.08-1.64l-6.46-5.87a1.16,1.16,0,0,1-.08-1.64h0a1.15,1.15,0,0,1,1.63-.08l6.64,6a1.16,1.16,0,0,0,1.64-.08l1.39-1.52a1.17,1.17,0,0,0-.08-1.64L154.4,20.93a1.15,1.15,0,0,0-1.63.08L142.33,32.49a1.17,1.17,0,0,0,.08,1.64L144.5,36A1.17,1.17,0,0,0,146.14,36Z"/><path d="M165.13,58.6l1.7-1.17a1.16,1.16,0,0,0,.3-1.61l-6-8.65a1.16,1.16,0,0,1,.3-1.61l.23-.16a1.16,1.16,0,0,1,1.61.3l5.83,8.45a1.16,1.16,0,0,0,1.61.3l1.51-1a1.16,1.16,0,0,0,.3-1.61l-5.83-8.46a1.16,1.16,0,0,1,.3-1.61h0a1.16,1.16,0,0,1,1.61.3l6,8.64a1.16,1.16,0,0,0,1.61.3l1.7-1.17a1.17,1.17,0,0,0,.3-1.62L169.33,35.3a1.15,1.15,0,0,0-1.61-.29l-12.78,8.8a1.15,1.15,0,0,0-.29,1.61l8.87,12.88A1.16,1.16,0,0,0,165.13,58.6Z"/><path d="M172,76.68,174,76a1.16,1.16,0,0,0,.69-1.49L171,64.64a1.16,1.16,0,0,1,.68-1.49l.26-.1a1.16,1.16,0,0,1,1.49.68L177,73.35a1.15,1.15,0,0,0,1.49.68l1.72-.64a1.16,1.16,0,0,0,.68-1.49l-3.59-9.62a1.16,1.16,0,0,1,.68-1.49h0a1.17,1.17,0,0,1,1.5.68l3.66,9.83a1.17,1.17,0,0,0,1.49.69l1.94-.73a1.16,1.16,0,0,0,.68-1.49l-5.47-14.65a1.16,1.16,0,0,0-1.49-.68l-14.53,5.42a1.15,1.15,0,0,0-.68,1.49L170.54,76A1.15,1.15,0,0,0,172,76.68Z"/><path d="M189.51,87.55a8.76,8.76,0,0,0-3.37-3.69,8.87,8.87,0,0,0-4.92-1.21,9,9,0,0,0-4.86,1.46A8.87,8.87,0,0,0,173.19,88a12.92,12.92,0,0,0-1,5.66,14.46,14.46,0,0,0,1.16,5.6,8.6,8.6,0,0,0,3,3.7,6.94,6.94,0,0,0,3,1.16,1.15,1.15,0,0,0,1.27-1.19l-.08-3a1.17,1.17,0,0,0-.9-1.09,3.43,3.43,0,0,1-2-1.43,7.19,7.19,0,0,1-1.05-3.89,6.14,6.14,0,0,1,1.16-4.12,5.2,5.2,0,0,1,7.34-.19,6.21,6.21,0,0,1,1.38,4.05,7.09,7.09,0,0,1-.86,3.92,3.46,3.46,0,0,1-1.94,1.55,1.18,1.18,0,0,0-.83,1.13l.08,3a1.15,1.15,0,0,0,1.33,1.12,7,7,0,0,0,2.95-1.31A8.64,8.64,0,0,0,190,98.8a14.72,14.72,0,0,0,.87-5.65A13,13,0,0,0,189.51,87.55Z"/><path d="M186.07,108.34a9.47,9.47,0,0,0-9.48-2.4,8.87,8.87,0,0,0-4.14,3,14.29,14.29,0,0,0-2.59,5.52,14.47,14.47,0,0,0-.35,6.1,8.94,8.94,0,0,0,2.2,4.6,8.82,8.82,0,0,0,4.42,2.53,8.54,8.54,0,0,0,9.22-3.13,14.48,14.48,0,0,0,2.59-5.53,14.26,14.26,0,0,0,.34-6.09A8.88,8.88,0,0,0,186.07,108.34ZM183.69,118a7.16,7.16,0,0,1-2.34,4.1,5,5,0,0,1-7.13-1.81,8.77,8.77,0,0,1,2.22-8.79,5.06,5.06,0,0,1,7.14,1.8A7.18,7.18,0,0,1,183.69,118Z"/><path d="M24.36,144.83a2.42,2.42,0,0,0,3.31.32c1.63-1.08,2.13-2.67.59-5l-2.18-3.28-10,6.67,2.19,3.29c1.57,2.36,3.3,2.76,5.05,1.6A2.72,2.72,0,0,0,24.36,144.83Zm1.38-4.77.64,1c.73,1.1.4,1.74-.32,2.21s-1.37.5-2.1-.6l-.64-1Zm-3.59,6.17c-.81.54-1.5.5-2.25-.62l-.77-1.16,2.56-1.7.77,1.15C23.21,145,23,145.7,22.15,146.23Z"/><polygon points="27.9 151.33 30.2 154.04 31.79 152.69 29.5 149.98 31.6 148.2 34.61 151.76 36.23 150.39 31.59 144.91 22.39 152.68 27.06 158.2 28.68 156.83 25.64 153.24 27.9 151.33"/><path d="M41.09,160.14c1.54-1.64,1.51-3.63-.63-5.62l-3-2.81-8.21,8.8,1.84,1.72,3-3.25,1,1c.84.78.7,1.41-.08,2.36a6.74,6.74,0,0,0-1.49,2.26l1.9,1.78c.11-.66.48-1.17,1.5-2.42s1.13-2,.54-3A2.86,2.86,0,0,0,41.09,160.14Zm-4.5-1.61-1.09-1,2.4-2.57L39,156a1.62,1.62,0,0,1,.15,2.58C38.33,159.4,37.54,159.41,36.59,158.53Z"/><polygon points="49.89 162.09 43.72 164.57 47.01 160.01 44.92 158.5 37.88 168.26 39.97 169.77 42.01 166.94 43.58 166.3 42.91 171.9 45.25 173.59 46.22 165.97 52.11 163.69 49.89 162.09"/><polygon points="54.62 167.51 58.7 169.76 59.73 167.91 53.44 164.43 47.62 174.97 53.94 178.46 54.97 176.61 50.85 174.34 52.28 171.74 55.4 173.46 56.4 171.64 53.29 169.92 54.62 167.51"/><polygon points="63.77 169.67 61.38 168.69 56.78 179.8 63.39 182.55 64.2 180.59 59.97 178.83 63.77 169.67"/><polygon points="66.26 183.53 73.2 185.53 73.79 183.5 69.27 182.19 70.1 179.35 73.51 180.34 74.09 178.33 70.67 177.35 71.44 174.71 75.92 176 76.5 173.96 69.6 171.97 66.26 183.53"/><polygon points="81.51 179.92 80.12 174.68 77.48 174.24 79.74 182.43 79.04 186.7 81.5 187.1 82.19 182.84 86.94 175.79 84.4 175.38 81.51 179.92"/><path d="M98.39,182.89v.29c0,1.95-.5,3-1.76,3s-1.95-1-2-3.14l0-1.84c0-2.13.58-3.18,1.87-3.2s1.84,1,1.87,2.93v.29l2.43,0v-.3c0-3-1.38-5.06-4.36-5s-4.49,2.33-4.43,5.9v.81c.06,3.57,1.58,5.8,4.62,5.75s4.25-2.15,4.2-5.15v-.31Z"/><path d="M105.07,175.5l-1.75,12.4,2.36-.33.38-2.85,3.48-.49,1.12,2.64,2.58-.36-5.1-11.44Zm1.25,7.14.58-4.42.08,0,1.73,4.1Z"/><polygon points="117.9 183.15 115.34 173.56 112.85 174.23 115.95 185.86 122.87 184.02 122.33 181.97 117.9 183.15"/><rect x="123.42" y="170.95" width="2.58" height="12.04" transform="translate(-52.75 52.96) rotate(-19.88)"/><polygon points="133.66 172.24 130.46 173.71 129.19 170.95 133.24 169.08 132.35 167.16 125.98 170.09 131.02 181.03 133.34 179.96 131.34 175.6 134.53 174.13 133.66 172.24"/><path d="M144.29,166.58c-1.88-3-4.35-4.18-7-2.57s-2.72,4.34-.84,7.38l.4.65c1.87,3,4.34,4.19,7,2.58s2.72-4.34.85-7.38Zm-1.57,6.21c-1.1.68-2.21.13-3.33-1.69l-.94-1.53c-1.12-1.82-1.12-3.06,0-3.74s2.21-.13,3.33,1.7l.94,1.53C143.83,170.88,143.83,172.11,142.72,172.79Z"/><path d="M154.75,162.93c-1-1.08-1.82-1.41-2.92-1a2.86,2.86,0,0,0-.23-3.64c-1.42-1.75-3.39-2-5.67-.17l-3.19,2.59,7.56,9.36,2-1.58-2.79-3.47,1.08-.87c.89-.72,1.49-.5,2.32.41a7,7,0,0,0,2,1.79l2-1.63C156.3,164.55,155.85,164.1,154.75,162.93Zm-5.38-.37-1.16.93L146,160.76l1.16-.94a1.61,1.61,0,0,1,2.57.21C150.47,161,150.38,161.74,149.37,162.56Z"/><polygon points="154.81 149.82 159.96 154.75 159.9 154.81 152.18 152.57 150.5 154.32 159.19 162.65 160.83 160.94 155.35 155.69 155.41 155.63 163.74 157.9 165.13 156.45 156.44 148.13 154.81 149.82"/><rect x="162.01" y="143.06" width="2.58" height="12.04" transform="translate(-54.87 185.05) rotate(-51.76)"/><path d="M162.22,140.37l8.24,9.43,1.3-2-1.92-2.14,1.9-3,2.74.88,1.4-2.19-12-3.61Zm3.29.33,4.23,1.36-1.3,2-3-3.33Z"/><path d="M95.3,22.42a73.14,73.14,0,1,0,73.14,73.14A73.22,73.22,0,0,0,95.3,22.42Zm67.22,90.78s0-.08,0-.11c-.08.33-.19.65-.28,1a.35.35,0,0,0,.08-.1A69.36,69.36,0,0,1,153,134.27l0,0c-.34.5-.7,1-1,1.48l0,0a70.27,70.27,0,0,1-14.07,14.69s0,0,0-.07h0c-.38.3-.76.61-1.14.9h.06a69.26,69.26,0,0,1-23.59,11.44h0a.09.09,0,0,0,0,0c-.57.16-1.16.3-1.74.44,0,0,0,0,0,0a68.95,68.95,0,0,1-35.34-.78l0-.06c-.43-.12-.87-.23-1.3-.37l0,0A69.77,69.77,0,0,1,34.7,129.52l.09.07c-.16-.29-.33-.57-.49-.85v0a.43.43,0,0,0,0,.05,69.34,69.34,0,0,1-5.12-54.65h.05l.51-1.49s0,0,0,0a68.87,68.87,0,0,1,5-11l0,0c.29-.53.6-1,.91-1.58h0A69.93,69.93,0,0,1,59,36.34a.09.09,0,0,1,0,0c.47-.29,1-.57,1.43-.85l0,0c.83-.49,1.67-1,2.53-1.41H63l.73-.37a.56.56,0,0,0,.05-.08,67.73,67.73,0,0,1,7.59-3.35.09.09,0,0,1,0,.05c.57-.21,1.16-.4,1.73-.59,0,0,0,0,0-.05a69.17,69.17,0,0,1,13.78-3.14l0,.06c.51-.07,1-.14,1.54-.19l0-.05q3.45-.35,7-.35c1.44,0,2.87.06,4.3.15l-.09,0,1,.08-.09-.06c1.62.12,3.23.29,4.82.52l0,0,1.79.29a.43.43,0,0,0,0-.05,69.38,69.38,0,0,1,35.61,17.69l0,0c.44.4.87.81,1.29,1.22a.08.08,0,0,0,0,0,66.89,66.89,0,0,1,4.72,5.1l0,0c.39.46.76.93,1.13,1.4l0,0c.58.74,1.15,1.48,1.7,2.24,0,0,0,0,0,.06l.62.88h.07a69.22,69.22,0,0,1,9.68,19.83l-.06,0c.16.53.31,1.06.46,1.59l0,0a69.15,69.15,0,0,1,.26,36.18Z"/><path d="M144.56,122.5,122.08,93.73c-2.39-3.07-8.43-2.61-15.19.61a9.92,9.92,0,0,0-1-1.65A24.88,24.88,0,0,0,97.7,86.4c5.9-6.36,8.49-13,5.85-16.38l-3.06-3.92L101.84,65c4.24-3.31,5.15-9.26,2-13.25l-7.17-9.18c-3.12-4-9.11-4.56-13.35-1.25L82,42.42l-.92-1.18c-3.37-4.31-13.95-1.68-23.62,5.88S42.66,64.3,46,68.61L68.51,97.39c2.64,3.37,9.7,2.48,17.29-1.7a26,26,0,0,0,3.42,8.4,10.77,10.77,0,0,0,2.16,2.35c-4.81,5.8-6.74,11.58-4.33,14.66L90.11,125l-1.36,1.06a9.5,9.5,0,0,0-2,13.25l7.18,9.18a9.49,9.49,0,0,0,13.34,1.25l1.36-1.06.92,1.18c3.37,4.31,13.94,1.68,23.62-5.88S147.93,126.82,144.56,122.5ZM100.81,72.61c.09-.29.18-.59.26-.89l.11.12c.65.84.5,2.59-.34,4.69A26.7,26.7,0,0,1,96.2,83.6c-.41.47-.84.93-1.28,1.39-4.64-2.23-9.4-4.18-12.57-7.21a38.58,38.58,0,0,1,11-6,24.23,24.23,0,0,1-2.85,4.71,25,25,0,0,0,4.33-5.13,14.12,14.12,0,0,1,1.44-.29,22.88,22.88,0,0,1-3.85,7.38A23,23,0,0,0,98,70.92c.34,0,.65,0,.95,0,0,.4,0,.8-.11,1.2a21.25,21.25,0,0,1-4.36,9.72A22.19,22.19,0,0,0,100.81,72.61ZM85.18,43.72a6.5,6.5,0,0,1,9.15.73l7.18,9.18a6.51,6.51,0,0,1-1.51,9l-1.35,1.06-2.09-2.67L97.92,60a3,3,0,0,0,.68-4.11l-7.17-9.18a3,3,0,0,0-4.16-.34l-1.36,1.06-2.08-2.67ZM96.13,57.6l0,.06-1.36,1.06-7-8.92,1.36-1.06.07,0Zm-28.33,34-1.71-2.19a16.66,16.66,0,0,1,.79-4.18,21.07,21.07,0,0,1,2.69-5.47,22.23,22.23,0,0,0-3.92,4.92,19.15,19.15,0,0,0-1.24,2.58L63,85.51a16.55,16.55,0,0,1,.78-4.18,21.33,21.33,0,0,1,2.7-5.48,21.72,21.72,0,0,0-3.92,4.93,19.68,19.68,0,0,0-1.25,2.57L60,81.58a16.64,16.64,0,0,1,.78-4.18,21.43,21.43,0,0,1,2.7-5.47,21.78,21.78,0,0,0-3.92,4.93,18.47,18.47,0,0,0-1.24,2.57L56.9,77.66a16.12,16.12,0,0,1,.78-4.18A21.62,21.62,0,0,1,60.37,68a22.28,22.28,0,0,0-3.92,4.93,19.62,19.62,0,0,0-1.24,2.57l-1.38-1.76a16.63,16.63,0,0,1,.78-4.19,21.11,21.11,0,0,1,2.7-5.47A21.5,21.5,0,0,0,53.39,69a19.71,19.71,0,0,0-1.25,2.57l-1.38-1.77a16.55,16.55,0,0,1,.78-4.18,21.65,21.65,0,0,1,2.7-5.48,22.23,22.23,0,0,0-3.92,4.93,19.62,19.62,0,0,0-1.24,2.57l-.69-.88c-1.7-2.17,1.79-10.17,10.9-17.29a37.23,37.23,0,0,1,13.05-6.85c3.06-.76,5.56-.58,6.37.45l.69.89a18.54,18.54,0,0,0-2.8.58,22.07,22.07,0,0,0-5.73,2.61,21.64,21.64,0,0,1,6-1.29,16.14,16.14,0,0,1,4.24.25l.39.5,1,1.27a19.57,19.57,0,0,0-2.8.58,22.1,22.1,0,0,0-5.73,2.62,21.16,21.16,0,0,1,6-1.3,16.63,16.63,0,0,1,4.25.26l1.25,1.59.13.17a20.17,20.17,0,0,0-2.8.59A21.86,21.86,0,0,0,77,55a21.14,21.14,0,0,1,6-1.29,16.25,16.25,0,0,1,4.25.25l1.38,1.77a19.86,19.86,0,0,0-2.8.58,22.1,22.1,0,0,0-5.73,2.62,21.24,21.24,0,0,1,6-1.3,16.63,16.63,0,0,1,4.25.26l1.38,1.76a19.73,19.73,0,0,0-2.79.59,21.75,21.75,0,0,0-5.73,2.61,20.8,20.8,0,0,1,6-1.29,16.19,16.19,0,0,1,4.25.25l.85,1.09.53.68a18.8,18.8,0,0,0-2.8.58,22.41,22.41,0,0,0-5.73,2.61,21.64,21.64,0,0,1,6-1.29,16.69,16.69,0,0,1,4.25.26l1.66,2.12a10,10,0,0,0-1.2,0s0,0,0,.08l-.36,0,0-.08a16,16,0,0,0-2,.4v0a39.2,39.2,0,0,0-14.65,7.5C73.43,80.93,69,86.92,67.8,91.62ZM77.23,96c-3.06.76-5.56.58-6.37-.46S70.48,92,72,89.24a36.44,36.44,0,0,1,9.23-10.56c2.17,3.81,2.89,8.91,3.93,14A31.1,31.1,0,0,1,77.23,96Zm12.56,22.52c-.1.29-.18.58-.26.88l-.12-.12c-.65-.83-.5-2.59.35-4.69A26.18,26.18,0,0,1,94,108a10,10,0,0,0,9.6-.77,10.09,10.09,0,0,0,4.27-10,28.13,28.13,0,0,1,5.52-2.09c3.06-.76,5.56-.58,6.38.46s.38,3.51-1.1,6.3c-.12.23-.27.47-.41.71-8.86,1.69-16.26,6.43-20,13.88a22.92,22.92,0,0,0-2.49,3.27c-.5.12-1,.22-1.44.29a22.59,22.59,0,0,1,3.85-7.38,23.1,23.1,0,0,0-5.62,7.54,7.15,7.15,0,0,1-.94,0c0-.4,0-.79.11-1.19a21.12,21.12,0,0,1,4.36-9.73A22.13,22.13,0,0,0,89.79,118.51Zm15.62,28.89a6.51,6.51,0,0,1-9.15-.73l-7.17-9.18a6.52,6.52,0,0,1,1.5-9.06L92,127.37,94,130l-1.36,1.06a3,3,0,0,0-.68,4.12l7.17,9.18a3,3,0,0,0,4.16.33l1.35-1.06,2.09,2.67Zm-11-13.88a.34.34,0,0,1,.06-.06l1.36-1.06,7,8.91-1.35,1.06-.07,0Zm36.85,8.12a37.44,37.44,0,0,1-13.06,6.85c-3.06.76-5.55.58-6.36-.46l-.69-.88a19.72,19.72,0,0,0,2.79-.58,22,22,0,0,0,5.73-2.62,21.16,21.16,0,0,1-6,1.3,16.63,16.63,0,0,1-4.25-.26l-.38-.49-1-1.28a18.54,18.54,0,0,0,2.8-.58,22.07,22.07,0,0,0,5.73-2.61,21.28,21.28,0,0,1-6,1.29,16.14,16.14,0,0,1-4.24-.25l-1.25-1.6-.14-.17a19.86,19.86,0,0,0,2.8-.58,22.1,22.1,0,0,0,5.73-2.62,21.24,21.24,0,0,1-6,1.3,16.63,16.63,0,0,1-4.25-.26L102,135.38a19.73,19.73,0,0,0,2.79-.59,21.92,21.92,0,0,0,5.73-2.61,20.8,20.8,0,0,1-6,1.29,16.25,16.25,0,0,1-4.25-.25l-1.38-1.77a18.54,18.54,0,0,0,2.8-.58,22.41,22.41,0,0,0,5.73-2.61,21.64,21.64,0,0,1-6,1.29,16.58,16.58,0,0,1-4.24-.26l-.86-1.09-.53-.67a19.58,19.58,0,0,0,2.8-.59,21.75,21.75,0,0,0,5.73-2.61,20.8,20.8,0,0,1-6,1.29,16.19,16.19,0,0,1-4.25-.25l-1.66-2.13a9.88,9.88,0,0,0,1.2,0,.19.19,0,0,1,0-.08l.35,0,0,.08a14.48,14.48,0,0,0,2-.4v0a39,39,0,0,0,14.66-7.49c6.47-5.06,10.9-11,12.11-15.75l1.7,2.18a16.55,16.55,0,0,1-.78,4.18,21.33,21.33,0,0,1-2.7,5.48,21.72,21.72,0,0,0,3.92-4.93,21,21,0,0,0,1.25-2.57l1.38,1.77a16.64,16.64,0,0,1-.78,4.18,21.43,21.43,0,0,1-2.7,5.47,21.94,21.94,0,0,0,3.92-4.92,19.15,19.15,0,0,0,1.24-2.58l1.38,1.77a16.55,16.55,0,0,1-.78,4.18,21.33,21.33,0,0,1-2.7,5.48,22,22,0,0,0,3.93-4.93,21,21,0,0,0,1.24-2.57l1.38,1.76a16.63,16.63,0,0,1-.78,4.19,21.11,21.11,0,0,1-2.7,5.47,21.5,21.5,0,0,0,3.92-4.93,18.47,18.47,0,0,0,1.24-2.57l1.39,1.77a16.55,16.55,0,0,1-.78,4.18,21.65,21.65,0,0,1-2.7,5.48,22.52,22.52,0,0,0,3.92-4.93,19.62,19.62,0,0,0,1.24-2.57l1.38,1.76a16.63,16.63,0,0,1-.78,4.19,21.11,21.11,0,0,1-2.7,5.47,21.82,21.82,0,0,0,3.93-4.93,19.67,19.67,0,0,0,1.24-2.57l.69.89C143.9,126.51,140.42,134.52,131.31,141.64Z"/></g></g></svg>