<?xml version="1.0" encoding="utf-8"?>
<!-- Generator: Adobe Illustrator 19.1.0, SVG Export Plug-In . SVG Version: 6.00 Build 0)  -->
<svg version="1.1" id="Layer_1" xmlns="http://www.w3.org/2000/svg" xmlns:xlink="http://www.w3.org/1999/xlink" x="0px" y="0px"
	 viewBox="-67 125 225 112" style="enable-background:new -67 125 225 112;" xml:space="preserve">
<style type="text/css">
	.st0{fill:#202124;}
</style>
<title>endless-logo</title>
<desc>Created with Sketch.</desc>
<g id="Page-1">
	<g id="endless-logo">
		<path id="Path" class="st0" d="M75.7,125H55.8c-0.6,0-1.1,0.2-1.5,0.6s-0.6,0.9-0.6,1.5v2.9c0,0.6,0.2,1.1,0.6,1.5
			s0.9,0.6,1.5,0.6h4.4c1.1,0,2.1,0.9,2.1,2.1v19.7c0,0.1,0,0.2-0.1,0.3c0,0-0.2,0-0.4-0.2l-31.5-28.4c-0.4-0.4-0.9-0.6-1.4-0.6
			H14.4c-0.6,0-1.1,0.2-1.5,0.6s-0.6,0.9-0.6,1.5v2.9c0,0.6,0.2,1.1,0.6,1.5c0.4,0.4,0.9,0.6,1.5,0.6h4.4c1.2,0,2.1,0.9,2.1,2.1
			v20.6c0,1.2-0.9,2.1-2.1,2.1h-4.4c-0.6,0-1.1,0.2-1.5,0.6s-0.6,0.9-0.6,1.5v2.9c0,1.1,0.9,2.1,2.1,2.1h19.8c1.1,0,2.1-0.9,2.1-2.1
			V159c0-0.6-0.2-1.1-0.6-1.5c-0.4-0.4-0.9-0.6-1.5-0.6h-4.4c-1.2,0-2.1-0.9-2.1-2.1v-21.3c0-0.1,0-0.2,0.1-0.3c0,0,0.2,0,0.4,0.2
			l33.1,30c0.4,0.4,0.9,0.6,1.4,0.6h4.3c0.6,0,1.1-0.2,1.5-0.6s0.6-0.9,0.6-1.5v-27.7c0-1.1,0.9-2.1,2.1-2.1h4.4
			c0.6,0,1.1-0.2,1.5-0.6c0.4-0.4,0.6-0.9,0.6-1.5v-2.9c0-0.6-0.2-1.1-0.6-1.5S76.2,125,75.7,125z"/>
		<path id="Path_1_" class="st0" d="M-45,132.1h4.4c1.1,0,2,0.9,2,2.1v20.6c0,1.2-0.9,2.1-2.1,2.1H-45c-0.6,0-1.1,0.2-1.5,0.6
			c-0.4,0.4-0.6,0.9-0.6,1.5v2.9c0,0.6,0.2,1.1,0.6,1.5c0.4,0.4,0.9,0.6,1.5,0.6H8.1c1.1,0,2.1-0.9,2.1-2.1v-12.1
			c0-1.1-0.9-2.1-2.1-2.1H5.1c-0.6,0-1.1,0.2-1.5,0.6c-0.4,0.4-0.6,0.9-0.6,1.5v5.2c0,1.1-0.9,2-2,2.1h-30.6c-1.1,0-2.1-0.9-2.1-2.1
			v-5.2c0-1.2,0.9-2.1,2.1-2.1h22.9c0.6,0,1.1-0.2,1.5-0.6c0.4-0.4,0.6-0.9,0.6-1.5v-2.2c0-1.2-0.9-2.1-2.1-2.1h-22.9
			c-1.2,0-2.1-0.9-2.1-2.1V134c0-1.2,0.9-2.1,2.1-2.1H1c1.1,0,2,1,2,2.1v5.2c0,1.2,0.9,2.1,2.1,2.1H8c1.1,0,2.1-0.9,2.1-2.1v-12.1
			c0-1.1-0.9-2.1-2-2.1H-45c-1.2,0-2.1,0.9-2.1,2.1v2.9c0,0.6,0.2,1.1,0.6,1.5C-46.1,131.9-45.6,132.1-45,132.1z"/>
		<path id="Shape" class="st0" d="M112.7,125H82.1c-0.6,0-1.1,0.2-1.5,0.6c-0.4,0.4-0.6,0.9-0.6,1.5v2.9c0,0.6,0.2,1.1,0.6,1.5
			s0.9,0.6,1.5,0.6h4.4c1.1,0,2.1,0.9,2.1,2.1v20.7c0,1.1-0.9,2.1-2.1,2.1h-13c-1.1,0-2.1,1-2.1,2.1v2.9c0,1.1,0.9,2.1,2.1,2.1h39.2
			c12,0,24.9-5.1,24.9-19.5S124.8,125,112.7,125z M130.3,144.5c0,8.2-6.1,12.6-17.6,12.6H97.6c-1.1,0-2.1-0.9-2.1-2.1v-21
			c0-1.1,0.9-2.1,2.1-2.1h15.1C124.2,131.9,130.3,136.3,130.3,144.5z"/>
		<path id="Path_2_" class="st0" d="M-28.4,198.7h-21c-1.2,0-2.1-0.9-2.1-2.1V176c0-1.2,0.9-2.1,2.1-2.1h4.4c1.1,0,2-0.9,2-2.1v-2.9
			c0-1.2-0.9-2.1-2.1-2.1h-19.8c-1.2,0-2.1,0.9-2.1,2.1v2.9c0,1.1,0.9,2.1,2.1,2.1h4.4c1.2,0,2.1,0.9,2.1,2.1v20.6
			c0,1.2-0.9,2.1-2.1,2.1h-4.4c-1.1,0-2.1,0.9-2.1,2.1v2.9c0,1.1,0.9,2.1,2.1,2.1h43.6c1.2,0,3.1-0.9,3.1-2.1v-12.1
			c0-1.2-1.9-2.1-3.1-2.1h-2.9c-0.6,0-1.1,0.2-1.5,0.6s-0.6,0.9-0.6,1.5v5c0,0.6-0.2,1.1-0.6,1.5C-27.3,198.5-27.9,198.7-28.4,198.7
			z"/>
		<path id="Path_3_" class="st0" d="M29,198.7H1.5c-1.2,0-2.1-0.9-2.1-2.1v-5c0-0.6,0.2-1.1,0.6-1.5c0.4-0.4,0.9-0.6,1.5-0.6h19.9
			c1.1,0,2.1-0.9,2.1-2.1v-2.3c0-1.1-0.9-2.1-2.1-2.1H1.5c-0.6,0-1.1-0.2-1.5-0.6c-0.4-0.4-0.6-0.9-0.6-1.5v-5.2
			c0-0.6,0.2-1.1,0.6-1.5c0.4-0.4,0.9-0.6,1.5-0.6H29c0.6,0,1.1,0.2,1.5,0.6c0.4,0.4,0.6,0.9,0.6,1.5v5.2c0,1.2,0.9,2.1,2.1,2.1h2.9
			c1.2,0,2.1-0.9,2.1-2.1v-12.1c0-1.2-0.9-2.1-2.1-2.1H-14c-1.2,0-2.1,0.9-2.1,2.1v2.9c0,0.6,0.2,1.1,0.6,1.5s0.9,0.6,1.5,0.6h4.4
			c1.2,0,2.1,0.9,2.1,2.1v20.6c0,1.2-0.9,2.1-2.1,2.1H-14c-1.1,0-2.1,0.9-2.1,2.1v2.9c0,1.1,0.9,2.1,2.1,2.1h50.2
			c1.2,0,2.1-0.9,2.1-2.1v-12.1c0-0.6-0.2-1.1-0.6-1.5s-0.9-0.6-1.5-0.6h-3.1c-0.6,0-1.1,0.2-1.5,0.6s-0.6,0.9-0.6,1.5v5
			c0,0.6-0.2,1.1-0.6,1.5S29.6,198.7,29,198.7z"/>
		<path id="Path_4_" class="st0" d="M142.3,184l-25.7-1.7c-7.8-0.5-9.2-1.8-9.2-4.1c0-3.3,5.6-5.1,16.1-5.1
			c17.8,0,22.4,4.8,25.3,8.9c0.4,0.5,0.9,0.8,1.6,0.9l2.5,0.2c1.8,0,3.2-1.4,3.2-3.2v-11c0-1.1-0.9-2-2-2.1h-2.6
			c-1.2,0-2.1,0.9-2.1,2.1v5.8c0,0.1,0,0.2,0,0.2c0,0-0.2,0-0.4-0.2c-7.4-6.1-14.4-8.5-25.3-8.5c-14.6,0-23.4,4.6-23.4,12.4
			c0,6.2,4.9,9.7,14.6,10.3l25.8,1.7c7.9,0.6,9.4,1.9,9.4,4c0,3.2-5.8,4.8-15,4.8c-6.5,0-13.1-0.6-19.2-3
			c-6.8-2.6-11.2-7.6-16.1-12.9c-5-5.5-11-10.1-17.7-13.5c-6.7-3.3-13.9-4.1-21.3-3.8c-5.5,0.3-11.7,1.1-16.2,4.5
			c-2.6,1.8-4.2,4.7-4.2,7.9c0,6.2,4.9,9.7,14.6,10.3l25.8,1.7c7.9,0.6,9.4,1.9,9.4,4c0,3.2-4.7,4.8-13.9,4.8
			c-18.4,0-24.9-4-28.8-9.1c-0.4-0.5-1-0.8-1.7-0.8h-3c-0.6,0-1.1,0.2-1.5,0.6s-0.6,0.9-0.6,1.5v12.1c0,1.1,0.9,2.1,2.1,2.1h2.6
			c1.1,0,2.1-0.9,2.1-2.1v-5.6c0-0.1,0-0.1,0.1-0.2c0.1,0,0.3,0,0.5,0.2c6.8,5.7,15.4,8.3,27.8,8.3h0.4c18.7-0.1,21.5-7.5,21.5-11.9
			c0-6.3-5.1-9.8-15.2-10.5l-25.7-1.7c-7.8-0.5-9.2-1.8-9.2-4.1c0-4,7-4.6,9.7-4.8c11.7-1.1,23.9,0.6,33.1,8.5
			c4,3.4,7.3,7.4,11,11.2c3.8,4,8.3,7.3,13.3,9.7c5.4,2.5,11.7,3.4,17.6,3.6c0.8,0,1.6,0,2.3,0h0.3c18.7-0.1,22.6-7.5,22.6-11.9
			C157.5,188.2,152.4,184.7,142.3,184z"/>
		<path id="Path_5_" class="st0" d="M-62,218.6c-1.3-1.8-1.3-4.2,0-6c0.7-0.9,1.7-1.6,2.8-2c1.3-0.5,2.8-0.8,4.2-0.8
			c1.4,0,2.8,0.2,4.2,0.6c1.1,0.3,2,0.9,2.8,1.8c0.6,0.7,1,1.7,1,2.6h-3.9c-0.1-0.8-0.5-1.4-1.2-1.8c-0.9-0.4-1.9-0.6-2.9-0.6
			c-1.1-0.1-2.1,0.2-3,0.8c-0.7,0.5-1.1,1.4-1.1,2.3c0,0.9,0.4,1.7,1.1,2.3c0.9,0.6,1.9,0.8,3,0.8c1,0,2-0.2,2.9-0.6
			c0.7-0.3,1.2-1,1.2-1.8h3.8c0,1-0.4,1.9-1,2.6c-0.8,0.8-1.7,1.4-2.8,1.8c-1.3,0.4-2.7,0.7-4.1,0.6c-1.4,0-2.8-0.2-4.2-0.7
			C-60.3,220.2-61.3,219.5-62,218.6z"/>
		<path id="Shape_1_" class="st0" d="M-45.1,218.3c-1.2-1.9-1.1-4.3,0.4-6c0.8-0.9,1.8-1.5,3-1.8c1.4-0.4,3-0.5,4.5-0.4
			c1.5,0.1,3,0.4,4.4,1c1.1,0.5,2.1,1.2,2.8,2.2c1.2,1.9,1.1,4.3-0.4,6c-0.8,0.9-1.9,1.5-3,1.8c-1.5,0.4-3,0.5-4.5,0.4
			c-1.5-0.1-3-0.4-4.4-1C-43.4,220-44.4,219.3-45.1,218.3z M-33.1,216.1c0.1-0.9-0.3-1.8-1-2.3c-1-0.6-2.1-1-3.3-1
			c-1.2-0.2-2.3,0-3.4,0.6c-0.8,0.5-1.3,1.3-1.3,2.2c-0.1,0.9,0.3,1.8,1,2.3c1,0.6,2.1,1,3.3,1c1.2,0.2,2.3,0,3.4-0.6
			C-33.5,217.8-33,217-33.1,216.1L-33.1,216.1z"/>
		<polygon id="Path_6_" class="st0" points="-15.2,214 -15.8,216.6 -23.9,214.9 -24.2,216.2 -16.2,218 -16.8,220.5 -24.8,218.8 
			-25.7,222.9 -29.4,222.1 -27.1,211.4 		"/>
		<polygon id="Path_7_" class="st0" points="-2,218.2 -2.8,220.8 -10.8,218.2 -11.2,219.6 -3.4,222.1 -4.2,224.5 -11.9,222 
			-13.2,226.1 -16.9,225 -13.5,214.5 		"/>
		<polygon id="Path_8_" class="st0" points="11.9,222.5 11.2,225.1 2.1,222.6 1.7,224 10.7,226.4 10,228.9 1,226.5 0.6,228 
			9.8,230.4 9.1,233 -3.7,229.6 -0.9,219 		"/>
		<polygon id="Path_9_" class="st0" points="26.1,224.2 25.7,226.8 16.3,225.6 16.2,227 25.4,228.2 25,230.8 15.8,229.5 15.6,231.1 
			25,232.4 24.6,235.1 11.5,233.3 12.9,222.4 		"/>
		<path id="Path_10_" class="st0" d="M34.1,233.4c-0.6-0.9-0.9-2-0.8-3.1c0-1.1,0.4-2.2,1.2-3c0.8-0.9,1.8-1.5,2.9-1.9
			c1.4-0.4,2.8-0.6,4.2-0.5c1.4,0.1,2.8,0.3,4.1,0.9c1,0.4,2,1.1,2.7,1.9c0.6,0.8,0.9,1.7,0.8,2.7l-3.8-0.2c0-0.8-0.5-1.5-1.1-1.8
			c-0.9-0.5-1.8-0.7-2.8-0.8c-1.1-0.1-2.1,0.1-3.1,0.6c-0.8,0.5-1.2,1.3-1.2,2.2c-0.1,0.9,0.3,1.8,1,2.3c0.9,0.6,1.9,0.9,3,0.9
			c1,0.1,2-0.1,2.9-0.4c0.7-0.3,1.2-0.9,1.3-1.7l3.8,0.2c0,1-0.4,1.9-1.1,2.6c-0.8,0.8-1.8,1.3-2.9,1.6c-1.4,0.4-2.8,0.5-4.2,0.4
			c-1.4-0.1-2.8-0.4-4.1-0.9C35.7,235.1,34.8,234.4,34.1,233.4z"/>
		<path id="Shape_2_" class="st0" d="M51.6,234c-1.5-1.6-1.8-4.1-0.6-6c0.7-1,1.6-1.8,2.7-2.3c2.8-1.2,5.9-1.5,8.8-0.9
			c1.2,0.3,2.2,0.9,3.1,1.7c1.5,1.6,1.7,4.1,0.6,6c-0.7,1-1.6,1.8-2.7,2.3c-2.8,1.2-5.9,1.5-8.8,0.9C53.5,235.4,52.4,234.8,51.6,234
			z M63.1,229.8c0-0.9-0.6-1.7-1.4-2.1c-1.1-0.5-2.3-0.6-3.4-0.4c-1.2,0-2.3,0.4-3.2,1.1c-0.7,0.6-1,1.5-1,2.4
			c0.1,0.9,0.6,1.7,1.4,2.1c2.2,0.8,4.7,0.6,6.7-0.7C62.9,231.6,63.2,230.7,63.1,229.8L63.1,229.8z"/>
		<polygon id="Path_11_" class="st0" points="69.7,223.3 76.3,228.4 79.9,220.8 82.9,220.1 85.5,230.8 81.8,231.7 80.6,226.6 
			77.8,232.6 77.1,232.8 71.8,228.7 73.1,233.8 69.4,234.7 66.7,224 		"/>
		<path id="Shape_3_" class="st0" d="M92.9,216.1c0.8-0.3,1.6-0.4,2.3-0.3c0.7,0,1.3,0.3,1.9,0.7c1.3,1,1.6,2.8,0.7,4.2
			c-0.7,0.9-1.7,1.5-2.8,1.8l-5.6,1.9l1.4,4.1l-3.6,1.2l-3.5-10.4L92.9,216.1z M94.4,219.8c0.1-0.2,0.2-0.4,0.1-0.7
			c-0.2-0.5-0.6-0.7-1.3-0.4l-5.1,1.7l0.5,1.5l5.2-1.7C94,220.2,94.3,220,94.4,219.8z"/>
		<path id="Shape_4_" class="st0" d="M105.9,212.8l10.1,9l-4.4,1l-1.6-1.6l-8.2,1.8l-0.8,2.1l-4.4,1l5.3-12.4L105.9,212.8z
			 M104.5,216l-1.5,4l4.6-1L104.5,216z"/>
		<polygon id="Path_12_" class="st0" points="119.5,210.7 128.5,216.2 128.1,210.2 131.9,209.9 132.6,220.9 129.6,221.1 
			120.6,215.6 121,221.6 117.2,221.8 116.5,210.8 		"/>
		<polygon id="Path_13_" class="st0" points="133.2,210.1 137.9,210.1 142.8,215 147.7,210.1 152.4,210.1 144.7,217.5 144.7,221.1 
			140.9,221.1 140.9,217.5 		"/>
		<polygon id="Path_14_" class="st0" points="29.8,213.8 29.7,214.9 26.6,214.6 26.6,215.2 29.6,215.4 29.5,216.4 26.5,216.2 
			26.5,216.8 29.6,217.1 29.5,218.1 25.2,217.7 25.6,213.4 		"/>
		<path id="Path_15_" class="st0" d="M30.2,217.6c-0.2-0.2-0.3-0.5-0.3-0.8l1.3,0.1c0,0.1,0,0.1,0.1,0.2c0.1,0.1,0.2,0.2,0.3,0.2
			c0.2,0.1,0.4,0.1,0.6,0.1c0.3,0,0.6,0,0.9,0c0.2,0,0.4-0.1,0.4-0.3c0-0.2-0.1-0.2-0.2-0.2c-0.2-0.1-0.4-0.1-0.8-0.1
			c-0.4-0.1-0.9-0.1-1.3-0.2c-0.3-0.1-0.6-0.2-0.9-0.4c-0.2-0.2-0.4-0.5-0.3-0.8c0-0.3,0.1-0.5,0.3-0.8c0.2-0.2,0.5-0.4,0.8-0.5
			c0.4-0.1,0.8-0.1,1.2-0.1c0.4,0,0.8,0.1,1.2,0.3c0.3,0.1,0.6,0.3,0.8,0.6c0.2,0.2,0.3,0.5,0.3,0.8l-1.3-0.1c0-0.1-0.1-0.3-0.2-0.3
			c-0.2-0.1-0.5-0.2-0.8-0.2c-0.3,0-0.6,0-0.8,0c-0.2,0-0.3,0.1-0.3,0.3c0,0.1,0.1,0.2,0.3,0.3c0.3,0.1,0.6,0.1,0.9,0.2
			c0.4,0.1,0.8,0.1,1.2,0.2c0.3,0.1,0.6,0.2,0.8,0.4c0.2,0.2,0.3,0.5,0.3,0.8c0,0.3-0.1,0.6-0.3,0.8c-0.3,0.2-0.6,0.4-0.9,0.5
			c-0.4,0.1-0.9,0.1-1.3,0.1c-0.4,0-0.9-0.1-1.3-0.3C30.8,218,30.5,217.8,30.2,217.6z"/>
		<polygon id="Path_16_" class="st0" points="35.2,215.2 35.2,214.1 40.3,214.3 40.3,215.4 38.4,215.3 38.3,218.6 37,218.6 
			37.1,215.3 		"/>
		<path id="Shape_5_" class="st0" d="M42.9,214.3c0.7,0,1.3,0.2,1.8,0.6c0.9,0.9,0.9,2.3,0,3.2c-0.5,0.4-1.2,0.6-1.9,0.5h-2.1v-4.3
			H42.9z M43.9,217.3c0.2-0.2,0.3-0.5,0.3-0.8c0-0.3-0.1-0.6-0.3-0.8c-0.3-0.2-0.6-0.3-1-0.3h-0.8v2.2h0.8
			C43.2,217.6,43.6,217.5,43.9,217.3L43.9,217.3z"/>
		<path id="Path_17_" class="st0" d="M48.7,217.2c0.5-0.2,1-0.5,1.3-0.6c0.3-0.1,0.5-0.3,0.8-0.5c0.2-0.2,0.3-0.3,0.3-0.5
			c0-0.2-0.1-0.3-0.3-0.4c-0.3-0.1-0.7-0.1-1-0.1c-0.3,0-0.7,0-1.2,0.1c-0.3,0-0.6,0.1-0.9,0.2v-1.1c0.3-0.1,0.6-0.2,0.9-0.2
			c0.4-0.1,0.8-0.1,1.2-0.1c0.4,0,0.9,0,1.3,0.1c0.3,0,0.6,0.2,0.8,0.4c0.2,0.2,0.3,0.5,0.3,0.8c0,0.6-0.4,1.1-1,1.3
			c-0.8,0.4-1.6,0.6-2.4,0.8l3.3-0.1v1.1l-4.6,0.1v-0.9C47.9,217.6,48.3,217.4,48.7,217.2z"/>
		<path id="Shape_6_" class="st0" d="M53.1,217.5c-0.2-0.3-0.4-0.7-0.4-1.2c0-0.4,0.1-0.8,0.3-1.2c0.2-0.4,0.5-0.7,0.9-0.8
			c0.4-0.2,0.9-0.3,1.4-0.4c0.5,0,1,0,1.5,0.2c0.4,0.1,0.7,0.4,1,0.7c0.2,0.3,0.4,0.7,0.4,1.2c0,0.4-0.1,0.8-0.3,1.2
			c-0.2,0.4-0.5,0.7-0.9,0.8c-0.4,0.2-0.9,0.3-1.4,0.4c-0.5,0-1,0-1.5-0.2C53.7,218.1,53.3,217.8,53.1,217.5z M56.9,216.1
			c0-0.3-0.2-0.7-0.4-0.9c-0.7-0.4-1.5-0.3-2.2,0.1c-0.2,0.2-0.4,0.6-0.3,0.9s0.2,0.7,0.4,0.9c0.3,0.2,0.7,0.3,1.1,0.2
			c0.4,0,0.8-0.1,1.1-0.4C56.8,216.8,56.9,216.4,56.9,216.1z"/>
		<polygon id="Path_18_" class="st0" points="58.6,216.2 58.5,214.9 61,213.6 61.9,213.6 62.2,217.9 60.9,218 60.7,214.7 		"/>
		<path id="Shape_7_" class="st0" d="M62.9,217.4c-0.2-0.2-0.3-0.4-0.4-0.6c0-0.3,0.1-0.6,0.4-0.7c0.3-0.2,0.6-0.3,1-0.4
			c-0.3,0-0.7-0.1-1-0.3c-0.3-0.1-0.5-0.4-0.5-0.7c0-0.4,0.2-0.8,0.6-0.9c0.5-0.3,1.1-0.4,1.7-0.5c0.4-0.1,0.8-0.1,1.2,0
			c0.3,0,0.6,0.1,0.9,0.3c0.2,0.1,0.3,0.4,0.4,0.6c0,0.3-0.1,0.6-0.3,0.8c-0.3,0.2-0.6,0.4-0.9,0.4c0.4,0,0.7,0.1,1.1,0.2
			c0.3,0.1,0.5,0.4,0.5,0.7c0,0.3-0.1,0.5-0.2,0.7c-0.2,0.2-0.5,0.4-0.8,0.5c-0.4,0.1-0.8,0.2-1.3,0.2c-0.4,0.1-0.9,0.1-1.3,0
			C63.4,217.7,63.1,217.6,62.9,217.4z M65.9,214.7c0-0.1,0.1-0.1,0.1-0.2c0-0.1-0.1-0.2-0.4-0.2c-0.3,0-0.5,0-0.8,0
			c-0.3,0-0.5,0.1-0.8,0.2c-0.2,0.1-0.3,0.2-0.3,0.3c0,0.1,0,0.1,0.1,0.2c0,0,0.1,0.1,0.3,0.1c0.3,0,0.5,0,0.8,0
			c0.2,0,0.5-0.1,0.7-0.1C65.8,214.8,65.9,214.8,65.9,214.7L65.9,214.7z M66.1,216.1c-0.1-0.1-0.2-0.1-0.4-0.1c-0.3,0-0.5,0-0.8,0
			c-0.3,0-0.5,0.1-0.8,0.1c-0.1,0-0.2,0.1-0.3,0.2c0,0.1-0.1,0.1-0.1,0.2c0,0.2,0.4,0.3,1.2,0.2c0.8-0.1,1.2-0.2,1.2-0.5
			C66.2,216.2,66.2,216.1,66.1,216.1L66.1,216.1z"/>
	</g>
</g>
</svg>
