<svg xmlns="http://www.w3.org/2000/svg" viewBox="0 0 351.03 174.54"><title>Asset 10</title><g id="Layer_2" data-name="Layer 2"><g id="Layer_1-2" data-name="Layer 1"><path d="M223.07,0h-31a3.26,3.26,0,0,0-3.26,3.26V7.84a3.26,3.26,0,0,0,3.26,3.26h6.82a3.25,3.25,0,0,1,3.25,3.26v30.7a1.07,1.07,0,0,1-.1.55s-.26,0-.59-.33L152.17.85A3.26,3.26,0,0,0,150,0H127.36a3.26,3.26,0,0,0-3.26,3.26V7.84a3.26,3.26,0,0,0,3.26,3.26h6.82a3.26,3.26,0,0,1,3.26,3.26V46.62a3.26,3.26,0,0,1-3.26,3.26h-6.82a3.26,3.26,0,0,0-3.26,3.26v4.58A3.26,3.26,0,0,0,127.36,61h31a3.26,3.26,0,0,0,3.26-3.26V53.14a3.26,3.26,0,0,0-3.26-3.26h-6.82a3.26,3.26,0,0,1-3.26-3.26V13.38a1,1,0,0,1,.11-.55s.25,0,.58.33l51.83,47A3.2,3.2,0,0,0,203,61h6.73A3.26,3.26,0,0,0,213,57.72V14.36a3.26,3.26,0,0,1,3.26-3.26h6.82a3.26,3.26,0,0,0,3.26-3.26V3.26A3.26,3.26,0,0,0,223.07,0Z"/><path d="M34.32,11.1h6.82a3.26,3.26,0,0,1,3.26,3.26V46.62a3.26,3.26,0,0,1-3.26,3.26H34.32a3.26,3.26,0,0,0-3.26,3.26v4.58A3.26,3.26,0,0,0,34.32,61h83a3.26,3.26,0,0,0,3.26-3.26v-19a3.26,3.26,0,0,0-3.26-3.26h-4.58a3.26,3.26,0,0,0-3.26,3.26v8.12a3.25,3.25,0,0,1-3.26,3.26H58.5a3.25,3.25,0,0,1-3.25-3.26V38.75a3.25,3.25,0,0,1,3.25-3.26H94.32a3.26,3.26,0,0,0,3.26-3.26V28.75a3.26,3.26,0,0,0-3.26-3.26H58.5a3.25,3.25,0,0,1-3.25-3.26V14.11a3.25,3.25,0,0,1,3.25-3.26h47.76a3.26,3.26,0,0,1,3.26,3.26v8.12a3.26,3.26,0,0,0,3.26,3.26h4.58a3.26,3.26,0,0,0,3.26-3.26v-19A3.26,3.26,0,0,0,117.36,0h-83a3.26,3.26,0,0,0-3.26,3.26V7.84A3.26,3.26,0,0,0,34.32,11.1Z"/><path d="M281,0H233.19a3.26,3.26,0,0,0-3.26,3.26V7.84a3.26,3.26,0,0,0,3.26,3.26H240a3.26,3.26,0,0,1,3.26,3.26V46.62A3.26,3.26,0,0,1,240,49.88H219.73a3.26,3.26,0,0,0-3.26,3.26v4.58A3.26,3.26,0,0,0,219.73,61H281c18.83,0,39-8,39-30.49S299.84,0,281,0Zm27.43,30.49c0,12.85-9.48,19.64-27.43,19.64H257.37a3.25,3.25,0,0,1-3.26-3.26V14.11a3.26,3.26,0,0,1,3.26-3.26H281C299,10.85,308.44,17.64,308.44,30.49Z"/><path d="M60.34,115.26H27.44A3.26,3.26,0,0,1,24.18,112V79.74a3.26,3.26,0,0,1,3.26-3.26h6.82a3.26,3.26,0,0,0,3.26-3.26V68.64a3.26,3.26,0,0,0-3.26-3.26h-31A3.26,3.26,0,0,0,0,68.64v4.58a3.26,3.26,0,0,0,3.26,3.26h6.82a3.26,3.26,0,0,1,3.26,3.26V112a3.26,3.26,0,0,1-3.26,3.26H3.26A3.26,3.26,0,0,0,0,118.52v4.58a3.26,3.26,0,0,0,3.26,3.26H71.44c1.8,0,4.83-1.46,4.83-3.26v-19c0-1.8-3-3.26-4.83-3.26H66.86a3.26,3.26,0,0,0-3.26,3.26V112A3.26,3.26,0,0,1,60.34,115.26Z"/><path d="M150.07,115.26h-43A3.26,3.26,0,0,1,103.8,112v-7.87a3.26,3.26,0,0,1,3.26-3.26h31.13a3.26,3.26,0,0,0,3.26-3.26V94.13a3.26,3.26,0,0,0-3.26-3.26H107.06a3.26,3.26,0,0,1-3.26-3.26V79.49a3.26,3.26,0,0,1,3.26-3.26h43.06a3.26,3.26,0,0,1,3.26,3.26v8.12a3.26,3.26,0,0,0,3.26,3.26h4.58a3.26,3.26,0,0,0,3.26-3.26v-19a3.26,3.26,0,0,0-3.26-3.26H82.88a3.26,3.26,0,0,0-3.26,3.26v4.58a3.26,3.26,0,0,0,3.26,3.26H89.7A3.26,3.26,0,0,1,93,79.74V112a3.26,3.26,0,0,1-3.26,3.26H82.88a3.26,3.26,0,0,0-3.26,3.26v4.58a3.26,3.26,0,0,0,3.26,3.26h78.53a3.26,3.26,0,0,0,3.26-3.26v-19a3.26,3.26,0,0,0-3.26-3.26h-4.83a3.25,3.25,0,0,0-3.25,3.26V112A3.26,3.26,0,0,1,150.07,115.26Z"/><path d="M327.28,92.32l-40.14-2.71c-12.14-.79-14.36-2.76-14.36-6.35,0-5.21,8.69-8,25.14-8,27.81,0,34.95,7.48,39.53,13.94a3.27,3.27,0,0,0,2.44,1.37l3.85.26a5,5,0,0,0,5-5V68.64a3.26,3.26,0,0,0-3.26-3.26h-4.07a3.26,3.26,0,0,0-3.26,3.26v9a1.44,1.44,0,0,1-.06.39,1.07,1.07,0,0,1-.58-.28C326,68.19,314.92,64.45,297.92,64.45c-22.91,0-36.58,7.25-36.58,19.4,0,9.69,7.67,15.11,22.81,16.09l40.31,2.71c12.3.86,14.7,2.94,14.7,6.27,0,5-9,7.53-23.46,7.53-10.14,0-20.52-1-30.05-4.67C275,107.66,268.08,99.9,260.49,91.69S243.2,75.53,233,70.51c-10.53-5.2-21.79-6.5-33.39-6-8.55.4-18.21,1.73-25.29,7a15.3,15.3,0,0,0-6.6,12.32c0,9.69,7.67,15.11,22.81,16.09l40.31,2.71c12.3.86,14.7,2.94,14.7,6.27,0,5-7.32,7.53-21.76,7.53-28.72,0-38.9-6.25-44.95-14.29a3.24,3.24,0,0,0-2.59-1.29h-4.67a3.26,3.26,0,0,0-3.26,3.26v19a3.26,3.26,0,0,0,3.26,3.26h4.07a3.26,3.26,0,0,0,3.26-3.26v-8.76c0-.16,0-.29.1-.32s.41,0,.79.29c10.66,9,24.07,13,43.41,13h.59c29.25-.15,33.62-11.74,33.62-18.64,0-9.82-8-15.32-23.75-16.34l-40.14-2.71c-12.14-.79-14.36-2.76-14.36-6.35,0-6.27,10.94-7.13,15.16-7.54C212.66,74,231.74,76.61,246,89c6.19,5.34,11.48,11.62,17.21,17.45,6.15,6.25,12.85,11.58,20.87,15.21,8.5,3.85,18.28,5.28,27.54,5.62,1.21,0,2.42.07,3.63.07h.42C345,127.15,351,115.56,351,108.66,351,98.84,343,93.34,327.28,92.32Z"/><path d="M6,144.88A7.9,7.9,0,0,1,5.5,144a8.65,8.65,0,0,1-.43-.93,6.87,6.87,0,0,1-.26-1,8.35,8.35,0,0,1-.17-1c0-.33,0-.68,0-1a8.41,8.41,0,0,1,.09-1,6.59,6.59,0,0,1,.22-1,9,9,0,0,1,.53-1.33c0-.08.08-.16.12-.24a12,12,0,0,1,.77-1.14,9.84,9.84,0,0,1,.76-.82,9.72,9.72,0,0,1,.86-.7,8.78,8.78,0,0,1,.93-.61,10.13,10.13,0,0,1,1-.49c.33-.15.68-.29,1-.42s.7-.23,1.07-.33.72-.19,1.09-.26.74-.13,1.12-.17.73-.08,1.12-.1.74,0,1.12,0,.75,0,1.13,0l1.12.07c.38,0,.76.09,1.12.13l1.11.16c.37.07.74.16,1.09.24s.74.18,1.09.28.71.24,1.05.37.67.28,1,.43a9.43,9.43,0,0,1,1,.49,9.08,9.08,0,0,1,.88.6,9.17,9.17,0,0,1,.81.69,8.78,8.78,0,0,1,.73.77,6.94,6.94,0,0,1,.59.9,5.5,5.5,0,0,1,.47,1,6.22,6.22,0,0,1,.27,1,6.38,6.38,0,0,1,.1,1.08.26.26,0,0,1-.26.24l-1.13,0c-.56,0-.56,0-1.13-.06l-1.13,0-1.14,0-1.14,0a.22.22,0,0,1-.2-.2,3.6,3.6,0,0,0-.31-1.07,3.38,3.38,0,0,0-.64-.92,4.38,4.38,0,0,0-.89-.66,6.59,6.59,0,0,0-1.07-.5,7.33,7.33,0,0,0-1.12-.33,10.21,10.21,0,0,0-1.17-.19c-.38-.05-.77-.09-1.18-.11s-.87,0-1.27,0a9.47,9.47,0,0,0-1.25.16,7.51,7.51,0,0,0-1.22.33,5.84,5.84,0,0,0-1.11.58,4.09,4.09,0,0,0-.82.66,3.63,3.63,0,0,0-.6.85,3.93,3.93,0,0,0-.35,1,5.56,5.56,0,0,0-.14,1,5.06,5.06,0,0,0,.06,1,4,4,0,0,0,.29,1,3.82,3.82,0,0,0,.55.88,4,4,0,0,0,.75.73,5.22,5.22,0,0,0,1.08.64,7.68,7.68,0,0,0,1.17.44,11.33,11.33,0,0,0,1.24.25c.4,0,.83.07,1.27.09s.8,0,1.18,0,.81-.06,1.19-.11a9.29,9.29,0,0,0,1.15-.25,6.9,6.9,0,0,0,1.11-.41,4.09,4.09,0,0,0,.92-.61,3.39,3.39,0,0,0,.71-.86,3.26,3.26,0,0,0,.36-1,.24.24,0,0,1,.23-.19l1.13,0,1.13,0,1.13,0,1.14,0,1.14,0a.22.22,0,0,1,.22.24,6.38,6.38,0,0,1-.15,1.08,5.35,5.35,0,0,1-.35,1,5.81,5.81,0,0,1-.53.94,6,6,0,0,1-.67.86,6.69,6.69,0,0,1-.77.73,9,9,0,0,1-.86.62,10.45,10.45,0,0,1-.93.51,9.57,9.57,0,0,1-1,.45c-.33.13-.67.23-1,.34s-.71.21-1.08.29-.72.16-1.09.22-.74.1-1.12.14-.73.08-1.11.1-.74,0-1.12,0-.75,0-1.13,0-.76,0-1.12-.07-.76-.08-1.12-.14-.75-.09-1.12-.17-.74-.15-1.09-.25a11.17,11.17,0,0,1-1.07-.35c-.36-.12-.71-.25-1.05-.4s-.68-.32-1-.49-.66-.36-1-.57a10.07,10.07,0,0,1-.87-.68,9.81,9.81,0,0,1-.81-.76A9.4,9.4,0,0,1,6,144.88Z"/><path d="M32.9,145.9a6.62,6.62,0,0,1-.5-.9,9.86,9.86,0,0,1-.62-2,8.59,8.59,0,0,1-.1-1,9,9,0,0,1,.05-1c0-.35.07-.7.14-1a8,8,0,0,1,.27-1,7.26,7.26,0,0,1,.42-.94,7.08,7.08,0,0,1,.53-.88,9.87,9.87,0,0,1,.65-.8,7.66,7.66,0,0,1,.83-.78,8.52,8.52,0,0,1,.91-.67,8.72,8.72,0,0,1,1-.54,9.92,9.92,0,0,1,1-.47c.34-.13.71-.24,1.08-.35s.77-.19,1.17-.27.77-.13,1.18-.18.78-.11,1.18-.13.79,0,1.2,0,.79,0,1.2,0,.79,0,1.19.08.81.07,1.2.12.79.12,1.18.19.79.14,1.17.24.78.21,1.16.33.76.24,1.13.38.74.31,1.09.48.69.34,1,.53a11.25,11.25,0,0,1,1,.61,10.57,10.57,0,0,1,.88.72,8.73,8.73,0,0,1,.8.81,8.61,8.61,0,0,1,.68.91,9.84,9.84,0,0,1,.5.9,7,7,0,0,1,.36,1,8.6,8.6,0,0,1,.25,1,8.76,8.76,0,0,1,.09,1,9.11,9.11,0,0,1,0,1,8,8,0,0,1-.57,2.38,2.44,2.44,0,0,1-.1.24,8.3,8.3,0,0,1-.7,1.23,6.15,6.15,0,0,1-.65.8,7.66,7.66,0,0,1-.83.78,10.31,10.31,0,0,1-.92.67c-.32.19-.65.37-1,.54a11,11,0,0,1-1,.43c-.35.13-.71.26-1.09.36s-.76.2-1.16.28-.78.14-1.18.19-.79.08-1.19.11-.79,0-1.2,0-.79,0-1.2,0-.79,0-1.2-.07-.8-.07-1.19-.12l-1.18-.2c-.4-.07-.8-.14-1.17-.23s-.79-.2-1.16-.32-.76-.27-1.12-.41-.74-.3-1.09-.47-.7-.33-1-.52-.64-.41-.94-.63a10.57,10.57,0,0,1-.88-.72,10.06,10.06,0,0,1-.8-.8A7.44,7.44,0,0,1,32.9,145.9Zm19.21-3.14a4.67,4.67,0,0,0,0-1.06,3.79,3.79,0,0,0-.25-1,3.65,3.65,0,0,0-.54-.91,4.43,4.43,0,0,0-.75-.75,6.16,6.16,0,0,0-.92-.62,8.68,8.68,0,0,0-1-.43,8.35,8.35,0,0,0-1.07-.3,11,11,0,0,0-1.09-.23q-.54-.08-1.11-.12c-.39,0-.76-.06-1.11-.07s-.76,0-1.11,0-.76.08-1.11.14a8,8,0,0,0-1.07.24,5.82,5.82,0,0,0-1,.45,4.48,4.48,0,0,0-.87.6,4.11,4.11,0,0,0-.69.81,4.21,4.21,0,0,0-.44,1,5.75,5.75,0,0,0-.18,1,5.33,5.33,0,0,0,0,1.06,3.79,3.79,0,0,0,.25,1,3.6,3.6,0,0,0,.53.93,4.86,4.86,0,0,0,.76.74,5.65,5.65,0,0,0,.92.61,8,8,0,0,0,1,.42,10,10,0,0,0,1,.33c.35.08.71.15,1.09.21s.72.1,1.11.13.76.05,1.11.05.76,0,1.12,0a9.43,9.43,0,0,0,1.11-.12,8.53,8.53,0,0,0,1.08-.26,6.64,6.64,0,0,0,1-.43,4.57,4.57,0,0,0,.86-.61,3.8,3.8,0,0,0,.7-.8,4.52,4.52,0,0,0,.42-1A4.8,4.8,0,0,0,52.11,142.76Z"/><path d="M80.47,138.32c-.1.63-.11.63-.21,1.26s-.1.63-.21,1.26-.09.64-.19,1.27a.24.24,0,0,1-.27.18c-.58-.09-.58-.08-1.15-.18l-1.15-.19-1.14-.19c-.58-.1-.58-.08-1.15-.17l-1.15-.19c-.57-.1-.57-.11-1.15-.2s-.57-.08-1.14-.17l-1.15-.2-1.16-.19-1.15-.19c-.58-.09-.58-.08-1.16-.18a.23.23,0,0,0-.26.19c-.07.45-.08.45-.15.89s-.07.45-.14.9a.23.23,0,0,0,.19.26l1.12.18,1.12.18,1.12.19,1.13.18,1.12.18,1.13.19,1.12.18,1.13.18,1.12.18,1.14.18c.56.09.56.11,1.13.2a.22.22,0,0,1,.18.26c-.09.59-.08.59-.18,1.19s-.11.59-.21,1.18-.08.6-.17,1.19a.24.24,0,0,1-.28.19l-1.12-.18-1.12-.18L74.94,148l-1.13-.17-1.12-.19-1.13-.19-1.12-.17c-.56-.09-.56-.11-1.12-.2l-1.14-.17-1.12-.19-1.14-.18a.23.23,0,0,0-.26.19c-.08.52-.1.52-.18,1s-.08.52-.16,1.05l-.18,1c-.08.53-.07.53-.15,1.06l-.18,1.05c-.09.53-.09.53-.17,1.06a.24.24,0,0,1-.27.19l-1.1-.18-1.1-.18-1.1-.19L60,152.46l-1.11-.18a.23.23,0,0,1-.19-.27l.18-1.11.18-1.12c.09-.56.1-.55.19-1.11l.18-1.12c.1-.56.1-.56.19-1.12s.07-.56.16-1.12.1-.55.19-1.11l.18-1.12c.1-.56.09-.56.19-1.12l.18-1.12.18-1.12c.09-.56.1-.56.19-1.12s.1-.56.19-1.12.08-.57.18-1.13.08-.57.17-1.13a.24.24,0,0,1,.27-.2l1.08.2,1.09.17,1.1.17,1.09.17,1.09.19c.55.08.55.09,1.09.18l1.1.18,1.09.17,1.1.18,1.09.19c.55.09.56.07,1.1.16l1.1.18,1.09.19,1.1.17,1.1.18,1.1.19,1.11.17A.23.23,0,0,1,80.47,138.32Z"/><path d="M101.28,144c-.17.61-.17.61-.35,1.23l-.34,1.23-.34,1.24a.22.22,0,0,1-.27.16l-1.13-.31-1.11-.31-1.12-.31-1.13-.31-1.12-.31L93.25,146l-1.12-.31L91,145.33,89.88,145l-1.13-.31-1.13-.31a.23.23,0,0,0-.28.16l-.24.87c-.13.44-.12.44-.24.88a.23.23,0,0,0,.15.28l1.1.31,1.1.29,1.1.3,1.09.31,1.1.32,1.1.3,1.1.29,1.1.3,1.1.31,1.1.31c.56.15.55.16,1.11.32a.21.21,0,0,1,.15.27c-.16.58-.14.58-.3,1.16s-.17.58-.33,1.16l-.32,1.16a.25.25,0,0,1-.29.16l-1.1-.31c-.54-.16-.55-.15-1.1-.3l-1.09-.3-1.1-.3-1.1-.31L91.44,152l-1.1-.29-1.1-.31-1.1-.31-1.11-.3-1.1-.32a.23.23,0,0,0-.28.17c-.14.51-.16.51-.3,1s-.12.51-.27,1l-.28,1c-.15.51-.14.51-.28,1s-.16.52-.3,1-.15.51-.29,1a.21.21,0,0,1-.27.15l-1.08-.27c-.54-.15-.53-.17-1.07-.32l-1.09-.29-1.08-.29-1.08-.31a.23.23,0,0,1-.15-.28c.15-.55.14-.55.29-1.1s.16-.54.31-1.08.16-.55.31-1.09.13-.55.28-1.1.17-.54.32-1.08l.3-1.1c.15-.54.14-.55.29-1.09s.17-.55.32-1.09.14-.55.29-1.1.16-.55.31-1.09.15-.55.31-1.09.14-.55.29-1.1.16-.55.31-1.1.15-.55.3-1.1.16-.55.32-1.1a.22.22,0,0,1,.28-.16l1.06.3,1.06.29,1.07.29,1.07.31,1.06.29,1.07.29,1.07.29,1.07.31,1.07.29,1.07.31,1.07.29,1.07.29c.54.14.53.16,1.07.3l1.07.29,1.08.29,1.08.31,1.08.29A.24.24,0,0,1,101.28,144Z"/><path d="M123.08,151.29c-.21.6-.2.6-.41,1.21l-.4,1.21c-.21.61-.22.6-.43,1.21a.22.22,0,0,1-.28.14l-1.06-.35-1.06-.37-1.06-.36-1.06-.36-1.07-.36-1.06-.37c-.53-.18-.54-.16-1.07-.35l-1.06-.36-1.07-.36c-.53-.18-.52-.2-1-.38l-1.08-.35-1.07-.36c-.54-.18-.53-.2-1.07-.38a.23.23,0,0,0-.29.15c-.14.43-.16.43-.3.86s-.15.43-.29.86a.24.24,0,0,0,.14.3c.52.18.53.17,1,.34l1,.37,1.06.33,1,.36,1,.35,1,.36c.52.17.51.19,1,.37s.52.16,1,.34l1,.37,1,.36,1,.34c.53.18.52.19,1,.36l1,.36a.23.23,0,0,1,.15.29c-.2.57-.19.57-.38,1.14s-.2.57-.39,1.14-.2.57-.39,1.14a.25.25,0,0,1-.3.15l-1-.36c-.52-.18-.51-.19-1-.36l-1-.34-1-.37-1-.35-1-.36-1-.36-1-.35-1-.35-1-.35-1-.36-1-.35-1-.37a.23.23,0,0,0-.29.15c-.17.49-.16.5-.33,1s-.19.49-.36,1a.25.25,0,0,0,.15.31c.53.18.54.16,1.07.34l1,.36,1.07.37,1.06.37,1.06.36,1.07.36,1.06.35c.54.18.53.2,1.06.38s.54.16,1.07.34l1.07.36,1.06.37c.54.19.54.17,1.08.36l1.07.37a.24.24,0,0,1,.15.3c-.2.6-.21.6-.42,1.2s-.2.61-.41,1.21-.22.6-.43,1.21a.21.21,0,0,1-.27.14l-1.08-.37-1.08-.36-1.09-.37-1.08-.38-1.09-.35c-.54-.19-.54-.18-1.09-.36l-1.07-.39-1.09-.37c-.54-.19-.55-.17-1.09-.35s-.54-.2-1.09-.38l-1.09-.37-1.09-.37-1.08-.38-1.09-.37c-.54-.18-.55-.16-1.1-.35l-1.09-.38-1.1-.36c-.54-.19-.54-.21-1.09-.39a.23.23,0,0,1-.15-.29c.19-.54.19-.53.37-1.07s.19-.53.37-1.07.19-.53.37-1.07.16-.54.34-1.07.2-.53.39-1.07.17-.54.36-1.07.18-.54.37-1.08l.36-1.07.36-1.08.36-1.07.36-1.08.37-1.07c.18-.54.19-.54.37-1.08s.18-.54.36-1.08.19-.54.37-1.08a.24.24,0,0,1,.3-.15c.54.18.54.2,1.07.38l1.08.37,1.09.36c.54.19.55.17,1.09.36l1.09.36c.54.19.53.2,1.08.38l1.08.37c.54.19.55.18,1.09.36l1.09.37c.54.18.54.2,1.08.39l1.1.35,1.09.37,1.08.37c.55.18.54.19,1.09.38l1.09.37,1.09.37,1.1.38,1.1.36A.23.23,0,0,1,123.08,151.29Z"/><path d="M145.39,155.94l-.26,1.25c-.13.63-.14.63-.27,1.25s-.12.63-.25,1.26a.22.22,0,0,1-.26.17l-1.1-.21-1.1-.23c-.55-.11-.55-.1-1.1-.22L140,159l-1.09-.24-1.1-.22-1.11-.21c-.55-.11-.55-.12-1.09-.24l-1.1-.21c-.56-.12-.55-.13-1.11-.24l-1.1-.22-1.11-.24-1.11-.22a.23.23,0,0,0-.27.18l-.18.88c-.09.45-.1.45-.19.89a.25.25,0,0,0,.19.28l1.07.22,1.08.21,1.08.23,1.07.23c.54.11.55.09,1.08.2l1.09.22,1.08.23c.54.11.53.13,1.07.24s.54.09,1.08.2l1.08.23,1.09.23,1.09.21,1.08.23a.23.23,0,0,1,.18.27c-.12.59-.13.59-.25,1.18s-.11.59-.23,1.18-.13.59-.25,1.18a.23.23,0,0,1-.27.19l-1.07-.22-1.07-.23-1.08-.23-1.08-.22-1.08-.23c-.54-.11-.54-.09-1.08-.21l-1.08-.22-1.08-.21c-.54-.11-.54-.13-1.08-.25s-.54-.09-1.08-.2-.54-.12-1.08-.24l-1.09-.21c-.55-.11-.55-.1-1.09-.22a.22.22,0,0,0-.27.17c-.11.51-.1.51-.21,1l-.2,1a.22.22,0,0,0,.17.27l1.09.23,1.1.23,1.1.21,1.1.23,1.1.22,1.1.24,1.1.21c.55.11.55.13,1.09.24l1.1.23,1.11.23,1.1.23c.55.11.56.09,1.11.21s.55.13,1.11.24a.22.22,0,0,1,.18.26c-.12.63-.12.63-.25,1.26s-.14.62-.27,1.25-.12.63-.24,1.25a.24.24,0,0,1-.28.17l-1.12-.22-1.11-.23-1.13-.23-1.12-.22-1.12-.23-1.12-.23-1.12-.24c-.56-.12-.57-.11-1.13-.22l-1.12-.24-1.12-.23-1.13-.23c-.57-.11-.56-.13-1.13-.25l-1.12-.22c-.56-.12-.56-.13-1.12-.24l-1.13-.23-1.13-.23-1.14-.23-1.13-.23a.23.23,0,0,1-.18-.27l.24-1.11c.11-.55.1-.55.22-1.11s.11-.55.23-1.1.11-.56.23-1.11.11-.56.23-1.11l.22-1.11c.11-.56.1-.56.21-1.12s.14-.55.25-1.11.09-.56.21-1.11.12-.56.23-1.11.11-.56.23-1.11L124,155c.12-.56.14-.55.25-1.11s.09-.56.21-1.12.13-.56.24-1.12a.25.25,0,0,1,.27-.19c.56.12.55.14,1.11.25l1.12.21,1.12.24,1.12.24c.56.12.57.11,1.13.22l1.12.23,1.12.23,1.12.24,1.13.23,1.12.22c.56.12.56.13,1.13.24s.56.1,1.13.22.55.13,1.12.24l1.12.22,1.13.25c.56.11.57.1,1.13.22s.57.12,1.13.24l1.14.23A.23.23,0,0,1,145.39,155.94Z"/><path d="M158.7,170a8.89,8.89,0,0,1-.55-.86,7.9,7.9,0,0,1-.44-.93,6.91,6.91,0,0,1-.3-1,8.35,8.35,0,0,1-.18-1,8.53,8.53,0,0,1,0-1,6.94,6.94,0,0,1,.07-1,8.2,8.2,0,0,1,.2-1,7.91,7.91,0,0,1,.33-1,7.57,7.57,0,0,1,.64-1.19,1.63,1.63,0,0,1,.11-.17,9.32,9.32,0,0,1,1-1.23,8.54,8.54,0,0,1,.84-.74,8.63,8.63,0,0,1,.92-.61,10.08,10.08,0,0,1,1-.54c.33-.16.67-.29,1-.43s.7-.25,1.06-.36.72-.21,1.09-.29.73-.14,1.11-.2.74-.09,1.12-.12l1.12-.08H170l1.13,0c.38,0,.75,0,1.12.08s.75.09,1.11.15.74.14,1.1.22.74.15,1.09.25.72.22,1.06.35.67.27,1,.41.65.31.95.48a10,10,0,0,1,.91.56c.29.21.57.43.83.66a10.53,10.53,0,0,1,.74.76,8.5,8.5,0,0,1,.78,1.17,2.1,2.1,0,0,1,.13.26,6.77,6.77,0,0,1,.49,1.48,7.59,7.59,0,0,1,.12,1.08.25.25,0,0,1-.26.23l-1.12,0h-2.28l-1.14,0-1.13,0a.21.21,0,0,1-.21-.19,3.46,3.46,0,0,0-.34-1.06,3.56,3.56,0,0,0-.65-.9,4.23,4.23,0,0,0-.91-.65,6.54,6.54,0,0,0-1.07-.48,9.49,9.49,0,0,0-1.14-.29,10.21,10.21,0,0,0-1.17-.19c-.38,0-.77,0-1.19-.05s-.86,0-1.26.06a9.64,9.64,0,0,0-1.25.18,7,7,0,0,0-1.2.37,5.55,5.55,0,0,0-1.11.58,4.37,4.37,0,0,0-.8.67,4.12,4.12,0,0,0-.58.87,4.63,4.63,0,0,0-.34,1,5.74,5.74,0,0,0,0,2.08,3.66,3.66,0,0,0,.32,1,3.55,3.55,0,0,0,.56.88,4,4,0,0,0,.77.7,5.81,5.81,0,0,0,1.09.62,8,8,0,0,0,1.2.39,9.1,9.1,0,0,0,1.24.23,12.52,12.52,0,0,0,1.26.08c.41,0,.81,0,1.19,0s.81-.06,1.18-.12a9.22,9.22,0,0,0,1.15-.28,5.65,5.65,0,0,0,1.09-.45,3.69,3.69,0,0,0,.91-.64,3,3,0,0,0,.69-.87,3.61,3.61,0,0,0,.35-1,.22.22,0,0,1,.22-.19l1.12,0h1.14l1.13,0,1.14,0h1.14a.25.25,0,0,1,.25.24,8.57,8.57,0,0,1-.22,1.36l-.07.25a6.28,6.28,0,0,1-.69,1.46,6.69,6.69,0,0,1-.65.86,7.81,7.81,0,0,1-.77.75,8.11,8.11,0,0,1-.84.65,9.93,9.93,0,0,1-.91.54c-.31.16-.63.31-1,.45s-.65.26-1,.38l-1.07.32c-.36.09-.72.17-1.1.24l-1.11.16c-.36.05-.73.1-1.11.13s-.74,0-1.12.06-.74,0-1.13,0-.76,0-1.12,0-.76-.06-1.13-.11-.75-.11-1.11-.17-.75-.13-1.11-.22-.73-.19-1.08-.3-.71-.26-1-.4-.69-.29-1-.46a10,10,0,0,1-1-.55,8.61,8.61,0,0,1-.9-.65,9.81,9.81,0,0,1-.81-.76A8.3,8.3,0,0,1,158.7,170Z"/><path d="M186,170.33a7.78,7.78,0,0,1-1.15-1.7,8.55,8.55,0,0,1-.38-.95,8.64,8.64,0,0,1-.26-1,8.35,8.35,0,0,1-.14-1,8.9,8.9,0,0,1,0-1,8.38,8.38,0,0,1,.11-1,8.68,8.68,0,0,1,.27-1,7.09,7.09,0,0,1,.38-1,7.26,7.26,0,0,1,.51-.89,8.56,8.56,0,0,1,.7-.89,10.21,10.21,0,0,1,.81-.8,10.57,10.57,0,0,1,.89-.7,11.2,11.2,0,0,1,1-.6c.32-.18.66-.36,1-.53s.73-.3,1.11-.44.74-.27,1.13-.38.76-.22,1.15-.31.78-.14,1.18-.21l1.19-.16c.38,0,.78-.1,1.19-.13s.8,0,1.2,0,.8,0,1.2,0,.8,0,1.19.07.81.08,1.19.13.8.12,1.18.21a11,11,0,0,1,1.16.3c.37.11.72.25,1.07.38s.71.28,1,.45a9.47,9.47,0,0,1,1,.57,7.92,7.92,0,0,1,.91.67,11.08,11.08,0,0,1,1.07,1.1l.17.22a12.21,12.21,0,0,1,.74,1.18,8,8,0,0,1,.38,1,6.65,6.65,0,0,1,.25,1,8.36,8.36,0,0,1,.13,1,7.25,7.25,0,0,1,0,1,6.77,6.77,0,0,1-.11,1,6.65,6.65,0,0,1-.25,1,6.54,6.54,0,0,1-.39.95,7.14,7.14,0,0,1-.52.89,7.65,7.65,0,0,1-.69.9,10.21,10.21,0,0,1-.81.8,10.67,10.67,0,0,1-.9.69,11.2,11.2,0,0,1-1,.6c-.33.18-.66.36-1,.52s-.72.33-1.1.47-.74.25-1.13.36-.76.22-1.16.31-.78.16-1.18.22-.78.12-1.19.17-.78.09-1.19.12-.81,0-1.2,0-.81,0-1.2,0-.8,0-1.19-.07-.8-.07-1.19-.13-.79-.13-1.17-.21-.78-.18-1.16-.29-.73-.23-1.08-.37-.69-.32-1-.48-.68-.36-1-.56a9.12,9.12,0,0,1-.92-.68A8.63,8.63,0,0,1,186,170.33Zm18.48-6.1a5.51,5.51,0,0,0-.17-1,4.24,4.24,0,0,0-1.08-1.81,4.61,4.61,0,0,0-.86-.62,5.32,5.32,0,0,0-1-.44,8,8,0,0,0-1.07-.27,9.17,9.17,0,0,0-1.1-.14c-.36,0-.73-.06-1.11,0s-.73,0-1.12.06-.75.06-1.11.11-.74.11-1.09.18-.74.18-1.07.29a7.26,7.26,0,0,0-1,.43,5.41,5.41,0,0,0-.93.58,4.11,4.11,0,0,0-.76.74,3.82,3.82,0,0,0-.55.9,3.91,3.91,0,0,0-.27,1,4.65,4.65,0,0,0,0,1.06,5,5,0,0,0,.16,1,4.06,4.06,0,0,0,.41,1,3.76,3.76,0,0,0,.69.81,4.54,4.54,0,0,0,.84.64,5.88,5.88,0,0,0,1,.42,6.69,6.69,0,0,0,1.07.28,8.69,8.69,0,0,0,1.09.15c.35,0,.72,0,1.1,0s.73,0,1.12,0,.76,0,1.11-.09.75-.13,1.1-.21a8.35,8.35,0,0,0,1.07-.3,6.79,6.79,0,0,0,1-.42,5.2,5.2,0,0,0,.95-.57,4.51,4.51,0,0,0,.77-.74,3.76,3.76,0,0,0,.52-.91,3.86,3.86,0,0,0,.29-1A5.38,5.38,0,0,0,204.52,164.23Z"/><path d="M215.78,154.63l.16.11.87.65.86.65c.43.31.45.29.89.61l.86.65.87.64.87.63c.44.32.43.34.86.66s.45.3.89.62.42.34.86.66l.88.65c.44.32.45.31.88.63a.22.22,0,0,0,.34-.09c.22-.49.24-.49.46-1l.44-1c.22-.49.21-.49.43-1s.21-.5.43-1l.44-1,.44-1,.44-1c.22-.49.23-.49.45-1s.21-.5.43-1l.44-1c.22-.5.23-.5.45-1l.06-.13a2.44,2.44,0,0,1,1.42-1.22l.19,0,1.08-.28,1.09-.29,1.08-.31a.24.24,0,0,1,.28.17l.3,1.09c.14.55.13.56.27,1.1s.16.54.31,1.09.15.54.29,1.09.15.55.29,1.1.13.55.27,1.1l.3,1.09c.15.55.14.55.29,1.1s.15.55.3,1.1l.28,1.09c.15.55.17.54.32,1.09s.12.56.26,1.11.16.55.31,1.1.14.55.29,1.1.16.55.3,1.1a.23.23,0,0,1-.17.29c-.53.15-.54.14-1.07.28L238,166l-1.08.29-1.09.28c-.54.15-.55.14-1.09.28a.21.21,0,0,1-.28-.15c-.14-.51-.15-.51-.28-1s-.11-.52-.25-1-.14-.51-.27-1l-.28-1c-.13-.52-.13-.52-.27-1s-.15-.51-.28-1l-.28-1a.23.23,0,0,0-.44,0c-.22.5-.22.5-.43,1l-.44,1c-.21.51-.2.52-.41,1s-.23.5-.45,1l-.42,1-.44,1c-.22.5-.21.51-.43,1s-.21.51-.43,1-.45,1-.45,1l-1.22.3-.87-.66-.89-.65-.87-.67-.88-.67-.87-.66-.89-.66-.88-.66-.88-.68L219,163a.23.23,0,0,0-.36.24l.26,1c.14.51.15.51.29,1s.13.51.27,1,.13.51.27,1,.15.52.29,1,.11.52.25,1,.14.52.28,1a.22.22,0,0,1-.16.27l-1.07.29-1.08.29-1.08.3-1.09.29-1.08.29a.24.24,0,0,1-.28-.18l-.3-1.09-.28-1.1c-.15-.54-.16-.54-.3-1.08s-.15-.55-.29-1.1-.15-.54-.29-1.09-.14-.55-.28-1.1-.17-.54-.31-1.09-.13-.56-.28-1.11-.15-.54-.3-1.09-.14-.55-.28-1.1-.16-.54-.3-1.09-.14-.55-.29-1.1l-.28-1.1c-.15-.56-.16-.56-.3-1.11s-.16-.55-.3-1.1a.23.23,0,0,1,.17-.27l1.08-.3,1.08-.29,1.08-.3.19,0A2.12,2.12,0,0,1,215.78,154.63Z"/><path d="M252.43,143.22a11.57,11.57,0,0,1,1.23-.3,11.33,11.33,0,0,1,1.25-.17,8.75,8.75,0,0,1,1.26,0,6.75,6.75,0,0,1,1.05.19,6.2,6.2,0,0,1,1,.35,5.18,5.18,0,0,1,.89.57,4.83,4.83,0,0,1,.71.64,4.53,4.53,0,0,1,.95,1.65,6,6,0,0,1,.24,1.13,4.34,4.34,0,0,1,0,1.14,4.63,4.63,0,0,1-.32,1.1,4.73,4.73,0,0,1-.59,1,6.66,6.66,0,0,1-.7.81,8,8,0,0,1-.84.67,9.88,9.88,0,0,1-.9.57c-.31.16-.64.3-1,.44s-.66.26-1,.38l-1.09.33-1.09.35-1.09.34-1.08.35c-.55.18-.55.16-1.1.33l-1.09.35c-.55.17-.54.19-1.09.36l-1.1.36a.21.21,0,0,0-.15.27c.16.51.15.51.31,1s.18.5.34,1,.15.51.31,1,.17.5.33,1l.32,1,.32,1a.22.22,0,0,1-.16.27l-1.05.35-1.07.34-1.07.34-1.07.33-1.07.35a.22.22,0,0,1-.28-.15c-.18-.54-.19-.54-.36-1.08l-.34-1.08-.34-1.07-.34-1.08-.34-1.08c-.18-.54-.16-.55-.33-1.09s-.18-.54-.35-1.08-.19-.54-.36-1.08-.15-.54-.32-1.08-.19-.54-.36-1.08-.16-.54-.33-1.08-.19-.54-.36-1.08-.16-.55-.33-1.1-.18-.54-.35-1.08-.17-.55-.34-1.1a.21.21,0,0,1,.14-.27l1-.33,1-.33c.52-.17.52-.16,1-.32l1-.35,1-.32,1-.32,1-.33,1-.33,1-.33,1-.33,1-.33,1-.32c.52-.17.51-.18,1-.34Zm2.43,5.86a1.25,1.25,0,0,0-.7-1.88,2.35,2.35,0,0,0-1.22.11l-1.15.37-1.14.37c-.57.18-.58.16-1.15.34l-1.14.37c-.58.18-.58.19-1.15.38l-1.15.37-1.16.36a.22.22,0,0,0-.14.28c.16.5.15.51.31,1s.15.51.31,1a.24.24,0,0,0,.3.14l1.14-.36,1.15-.37,1.14-.35,1.15-.37c.57-.19.57-.18,1.15-.36l1.15-.37,1.16-.36A2.21,2.21,0,0,0,254.86,149.08Z"/><path d="M274.73,138.31l.09.08c.4.36.39.38.79.75s.42.35.83.72l.81.73.81.75.82.73.82.74.82.74.82.73c.41.37.39.39.8.76l.82.74c.4.37.41.36.82.72l.81.74c.41.38.42.37.83.74l.81.75.83.74.82.75c.41.38.42.36.84.74l.82.75a.24.24,0,0,1-.11.41c-.53.12-.54.11-1.07.22l-1.07.24c-.53.11-.54.1-1.07.22l-1.08.23-1.07.25H284a2.43,2.43,0,0,1-2-.56l-.06-.06-.8-.76-.05,0a2.16,2.16,0,0,0-1.95-.56l-.07,0-1.07.22-1.06.22-1.06.25-1.07.21c-.53.12-.53.14-1.06.25s-.54.11-1.07.22l-1.06.23-1.07.22c-.54.12-.53.14-1.07.26l-1.07.23h-.08a2.2,2.2,0,0,0-1.55,1.32l0,0c-.2.51-.19.51-.4,1l0,.05a2.16,2.16,0,0,1-1.55,1.31l-.08,0-1.07.24-1.07.23-1.07.24c-.54.12-.55.1-1.09.21l-1.08.23a.21.21,0,0,1-.25-.3l.44-1c.21-.5.22-.5.43-1s.23-.5.45-1,.21-.51.43-1l.44-1,.44-1,.44-1c.22-.51.21-.51.43-1s.22-.51.45-1,.23-.5.45-1,.21-.51.43-1,.23-.5.45-1,.21-.51.43-1,.21-.51.43-1,.23-.5.45-1,.23-.5.45-1,.21-.51.43-1,.24-.51.46-1l0-.1a2.43,2.43,0,0,1,1.53-1.25h.05l1-.22c.51-.11.5-.13,1-.24l1-.21,1-.23.06,0A2.19,2.19,0,0,1,274.73,138.31ZM271.58,143l-.44,1.12c-.22.57-.24.56-.46,1.12s-.21.57-.43,1.14l-.45,1.13c-.22.57-.24.56-.46,1.13a.23.23,0,0,0,.26.31l1.09-.24,1.09-.24,1.1-.24c.55-.12.55-.1,1.1-.21l1.1-.24,1.1-.25a.23.23,0,0,0,.11-.39l-.87-.83-.86-.85-.87-.85-.87-.85-.88-.84A.22.22,0,0,0,271.58,143Z"/><path d="M295,134.54c.12.07.24.15.48.28.49.3.5.29,1,.58l1,.57,1,.61c.5.29.51.27,1,.57l1,.58c.5.29.49.31,1,.61l1,.58,1,.58,1,.59,1,.59,1,.59c.51.29.52.27,1,.57s.5.3,1,.6a.23.23,0,0,0,.35-.22l-.1-1.11c0-.56,0-.56-.09-1.12s0-.55-.08-1.11l-.1-1.11c0-.56,0-.56-.09-1.12s-.06-.56-.11-1.12,0-.56-.09-1.12l-.1-1.12a.24.24,0,0,1,.22-.26l1.11-.08,1.11-.09,1.12-.09,1.12-.09,1.12-.11a.23.23,0,0,1,.24.22c0,.56.06.56.11,1.13s0,.56.09,1.12,0,.57.08,1.13.06.56.11,1.12,0,.57.08,1.13,0,.57.09,1.13l.1,1.13c0,.57.05.57.1,1.13s.06.57.1,1.13.05.57.09,1.13,0,.57.08,1.13.05.57.1,1.13,0,.57.09,1.14.06.57.11,1.14l.1,1.14a.25.25,0,0,1-.22.25c-.56,0-.56.05-1.12.1l-1.12.09-1.12.09-.49.05a2.19,2.19,0,0,1-1.28-.3l-.48-.28-1-.59-1-.58-1-.59-1-.57-1-.6-1-.57-1-.59c-.49-.3-.49-.31-1-.6s-.51-.28-1-.57l-1-.59-1-.59-1-.58c-.5-.3-.49-.31-1-.61a.23.23,0,0,0-.34.22c.05.56.05.56.09,1.12s.06.55.11,1.11,0,.56.08,1.11,0,.56.09,1.12,0,.55.09,1.11,0,.56.09,1.12,0,.56.09,1.12.05.56.1,1.13a.24.24,0,0,1-.21.26l-1.11.08-1.11.09-1.12.1c-.56.05-.56,0-1.12.08l-1.12.09a.21.21,0,0,1-.23-.2c-.05-.57-.06-.57-.11-1.13s0-.57-.08-1.13-.06-.56-.11-1.12l-.08-1.13-.1-1.13c-.05-.56,0-.56-.09-1.13s-.06-.56-.1-1.13,0-.56-.08-1.13l-.1-1.13-.1-1.13c0-.56,0-.56-.1-1.13s0-.56-.09-1.13l-.08-1.14-.1-1.13c0-.57-.06-.57-.11-1.14a.24.24,0,0,1,.21-.26c.56,0,.56,0,1.11-.08l1.12-.09c.55,0,.55-.06,1.11-.11l.47,0A2.17,2.17,0,0,1,295,134.54Z"/><path d="M316.77,132.4l1.12-.05,1.13,0,1.13-.05,1.13,0,1.14,0h.33a2.1,2.1,0,0,1,1.57.57l.19.17.78.73.78.71.79.71c.4.36.39.37.78.73s.41.35.8.71.38.38.78.74l.79.73.79.74c.39.36.41.35.8.71a.24.24,0,0,0,.33,0c.36-.39.35-.4.71-.79s.38-.38.74-.77l.72-.78.73-.78c.36-.39.37-.38.73-.77s.36-.4.73-.79L337,134l.73-.79.73-.78.19-.21a2.13,2.13,0,0,1,1.51-.7h.32l1.13,0c.56,0,.56,0,1.13-.06s.57,0,1.13,0l1.14,0c.57,0,.57,0,1.13-.06a.24.24,0,0,1,.19.4c-.38.39-.39.38-.77.78l-.75.78-.75.78-.76.78-.74.79c-.38.4-.39.39-.77.78s-.36.4-.74.8l-.74.78-.76.78-.76.78c-.38.39-.37.4-.75.79l-.76.79-.76.8-.76.79-.18.2a2.46,2.46,0,0,0-.63,1.57,1.85,1.85,0,0,1,0,.25c0,.54,0,.54.07,1.07s0,.53,0,1.07l0,1.07,0,1.07a.23.23,0,0,1-.22.24l-1.11,0-1.12,0c-.56,0-.56,0-1.12,0l-1.12.06c-.56,0-.56,0-1.12,0a.23.23,0,0,1-.24-.21l0-1.06c0-.53,0-.53,0-1.06s0-.53-.06-1.07,0-.53,0-1.06v-.24a2.49,2.49,0,0,0-.72-1.53L328,143c-.4-.37-.4-.36-.81-.72s-.39-.38-.79-.74-.41-.36-.82-.72-.41-.36-.82-.72l-.81-.73-.81-.73c-.4-.36-.41-.35-.82-.71s-.39-.37-.8-.73l-.82-.72c-.41-.37-.39-.38-.8-.75l-.82-.73c-.41-.36-.42-.35-.83-.72l-.82-.73-.81-.75A.21.21,0,0,1,316.77,132.4Z"/><path d="M148.71,140.52v.25a.72.72,0,0,1-.72.72h-4.22v.9h4.13a.72.72,0,0,1,.72.72v.16a.72.72,0,0,1-.72.72h-4.13v1H148a.72.72,0,0,1,.72.72V146a.72.72,0,0,1-.72.72h-5.48a.72.72,0,0,1-.72-.72v-5.44a.72.72,0,0,1,.72-.72H148A.72.72,0,0,1,148.71,140.52Z"/><path d="M150,145.68a1.77,1.77,0,0,1-.48-1.27h2.12a.39.39,0,0,0,.15.31,1.22,1.22,0,0,0,.54.29,3.42,3.42,0,0,0,1,.13,6.58,6.58,0,0,0,1.52-.1q.57-.12.57-.48c0-.17-.14-.28-.41-.33a10.84,10.84,0,0,0-1.34-.13,19.2,19.2,0,0,1-2-.23,3.3,3.3,0,0,1-1.41-.58,1.53,1.53,0,0,1-.59-1.31,1.82,1.82,0,0,1,.45-1.22,2.9,2.9,0,0,1,1.29-.82,5.72,5.72,0,0,1,1.93-.29,6.06,6.06,0,0,1,2,.3,3,3,0,0,1,1.35.85,1.87,1.87,0,0,1,.49,1.27h-2.11a.63.63,0,0,0-.33-.49,2.24,2.24,0,0,0-1.22-.24,5.14,5.14,0,0,0-1.35.1c-.33.08-.49.24-.49.49s.15.31.46.38a11,11,0,0,0,1.43.18c.79.07,1.45.15,2,.25a3.3,3.3,0,0,1,1.34.57,1.37,1.37,0,0,1,.57,1.19,1.72,1.72,0,0,1-.49,1.22,3,3,0,0,1-1.37.82,6.38,6.38,0,0,1-2.05.29,6.8,6.8,0,0,1-2.11-.3A3.15,3.15,0,0,1,150,145.68Z"/><path d="M157.88,140.77v-.25a.72.72,0,0,1,.72-.72h6.63a.72.72,0,0,1,.72.72v.25a.72.72,0,0,1-.72.72H162.9V146a.72.72,0,0,1-.72.72h-.54a.72.72,0,0,1-.72-.72v-4.47H158.6A.72.72,0,0,1,157.88,140.77Z"/><path d="M170.3,139.8a4.48,4.48,0,0,1,2.95.89,3.61,3.61,0,0,1,0,5.11,4.53,4.53,0,0,1-2.95.88h-2.58A.72.72,0,0,1,167,146v-5.44a.72.72,0,0,1,.72-.72Zm1.53,4.76a2,2,0,0,0,0-2.65,2.35,2.35,0,0,0-1.53-.42H169V145h1.32A2.27,2.27,0,0,0,171.83,144.56Z"/><path d="M179.66,144.48c.87-.38,1.55-.69,2.05-.93a7.67,7.67,0,0,0,1.24-.73c.34-.24.51-.48.51-.7a.59.59,0,0,0-.46-.57,4.93,4.93,0,0,0-1.5-.16,15.28,15.28,0,0,0-1.83.13,7.49,7.49,0,0,0-1.4.25v-1.19a.72.72,0,0,1,.6-.71c.25,0,.55-.08.9-.11.73-.07,1.39-.1,2-.1a10.52,10.52,0,0,1,2.08.17,2.22,2.22,0,0,1,1.2.63,1.79,1.79,0,0,1,.4,1.25c0,.87-.54,1.56-1.63,2.08A15.86,15.86,0,0,1,180,145h4.47a.72.72,0,0,1,.72.72V146a.72.72,0,0,1-.72.72h-6.66v-.91a.7.7,0,0,1,.41-.65C178.64,144.91,179.13,144.69,179.66,144.48Z"/><path d="M186.68,145.13a3.45,3.45,0,0,1-.53-1.89,3.34,3.34,0,0,1,2-3.15,6.26,6.26,0,0,1,4.61,0,3.46,3.46,0,0,1,1.52,1.26,3.69,3.69,0,0,1,0,3.78,3.46,3.46,0,0,1-1.52,1.26,6.26,6.26,0,0,1-4.61,0A3.44,3.44,0,0,1,186.68,145.13Zm6.18-1.89a1.72,1.72,0,0,0-.62-1.42,3.41,3.41,0,0,0-3.49,0,2,2,0,0,0,0,2.84,3.41,3.41,0,0,0,3.49,0A1.72,1.72,0,0,0,192.86,143.24Z"/><path d="M195.64,143.53v-2l4-1.75h1.4V146a.73.73,0,0,1-.72.72h-.55a.73.73,0,0,1-.72-.72v-4.57Z"/><path d="M202.35,146a1.45,1.45,0,0,1-.48-1.09,1.19,1.19,0,0,1,.69-1.13,4.64,4.64,0,0,1,1.64-.45,4.13,4.13,0,0,1-1.5-.55,1.33,1.33,0,0,1-.64-1.19,1.53,1.53,0,0,1,1-1.39,6.36,6.36,0,0,1,2.75-.49,7.89,7.89,0,0,1,1.9.21,3.37,3.37,0,0,1,1.36.63,1.39,1.39,0,0,1-.13,2.23,4.11,4.11,0,0,1-1.51.55,4.64,4.64,0,0,1,1.65.45,1.19,1.19,0,0,1,.69,1.13,1.39,1.39,0,0,1-.51,1.08,3.33,3.33,0,0,1-1.41.7,7.57,7.57,0,0,1-2,.21,7.83,7.83,0,0,1-2.1-.22A3.09,3.09,0,0,1,202.35,146Zm5.31-1.58a1.09,1.09,0,0,0-.56-.2,7.85,7.85,0,0,0-1.28-.08,7.94,7.94,0,0,0-1.28.08,1,1,0,0,0-.55.2.41.41,0,0,0-.13.32q0,.57,1.95.57t2-.57A.44.44,0,0,0,207.66,144.39Zm-.17-2.23a.45.45,0,0,0,.1-.3c0-.22-.17-.37-.51-.46a5,5,0,0,0-1.26-.13,4.94,4.94,0,0,0-1.25.13c-.34.09-.51.24-.51.46a.53.53,0,0,0,.08.31c.05.08.2.15.46.21a6,6,0,0,0,1.22.09,5.77,5.77,0,0,0,1.19-.09A.85.85,0,0,0,207.49,142.16Z"/></g></g></svg>